<svg width="112" height="113" viewBox="0 0 112 113" fill="none" xmlns="http://www.w3.org/2000/svg">
<g clip-path="url(#clip0_2128_22812)">
<path d="M149.734 34.5809L134.448 82.4447L138.979 125.314L142.678 150.979L141.86 160.439L134.632 167.529L46.0551 124.2C47.0077 106.099 56.3942 106.099 56.3942 92.703L36.7913 109.614C36.7913 109.614 25.7768 116.337 17.483 108.316C9.1892 100.294 14.9126 85.0215 14.9126 85.0215C17.2828 79.8176 16.9761 80.2561 20.6847 77.24C29.6162 63.0114 43.8357 39.6828 59.4397 22.2556C62.5752 20.112 67.3029 18.9297 70.3481 17.9781C72.7296 -6.31492 105.105 4.00824 118.934 5.5935C129.783 9.39989 118.886 11.6084 121.484 12.8769C135.444 19.6913 147.827 26.458 149.734 34.5809Z" fill="#E0CEB2"/>
<path d="M21.9282 76.1745C31.4455 64.9018 49.7932 29.1504 59.8684 22.7408C61.9853 21.3941 67.3803 19.0097 70.3477 17.9775M39.8696 106.652C47.584 101.811 50.5739 98.4271 56.0546 93.1894" stroke="black" stroke-width="1.71479" stroke-linecap="round" stroke-linejoin="round"/>
<path d="M109.501 143.538L109.501 157.296L133.502 167.913L145.301 152.031C109.681 117.043 73.8093 74.8749 64.1167 28.1005C63.4547 24.9058 63.7097 21.5866 64.953 18.5702C67.2668 12.9564 70.599 6.36915 73.8921 0.771864C74.615 -0.456917 73.7389 -2.07515 72.3182 -2.1932C68.7962 -2.48583 65.7304 -2.90514 64.6328 -1.07554C60.3468 6.06925 51.9628 23.6935 53.0992 28.9331C61.1071 65.8561 82.7754 108.239 109.501 143.538Z" fill="#9C9C9C"/>
<path d="M145.301 152.031L133.502 167.913L109.501 157.296L109.501 143.538C99.6599 130.54 90.5045 116.581 82.4643 102.288M56.931 43.6994C55.4322 38.7024 54.1484 33.7709 53.0992 28.9331C51.9628 23.6935 60.3468 6.06925 64.6328 -1.07554C65.7304 -2.90514 68.7962 -2.48583 72.3181 -2.1932C73.7389 -2.07515 74.615 -0.456917 73.8921 0.771864C70.599 6.36915 67.2668 12.9564 64.953 18.5702C63.7097 21.5866 63.4547 24.9058 64.1167 28.1005C65.3414 34.0105 66.984 39.847 68.9912 45.6047" stroke="black" stroke-width="1.71479" stroke-linecap="round"/>
<path d="M22.5836 75.7949C22.5836 75.7949 17.4842 77.7613 14.458 87.2908C11.4318 96.8203 14.4714 110.351 23.9875 111.493C33.5036 112.635 44.3939 103.611 44.3939 103.611M41.3906 83.8552C41.3299 86.8047 43.9088 88.967 44.3939 91.2834" stroke="black" stroke-width="1.71479" stroke-linecap="round" stroke-linejoin="round"/>
<path d="M106.658 -28.391C106.658 -28.391 110.496 -28.9265 111.833 -25.6961C112.623 -23.6835 112.691 -21.4594 112.025 -19.4023L108.456 -16.3194L108.26 -4.70907C108.26 -4.70907 110.854 -3.53763 115.895 -5.88379C118.464 -7.10581 121.571 -19.253 120.691 -21.1489C120.691 -21.1489 123.527 -26.9836 118.057 -42.8009C115.314 -50.7307 109.392 -63.1119 96.7685 -64.5725C92.5189 -65.0668 86.1789 -62.1245 86.1789 -62.1245C86.1789 -62.1245 74.1716 -61.9826 70.6987 -57.7029C62.9942 -48.195 62.1354 -38.1333 62.1354 -38.1333L59.4388 -27.7988L62.936 -28.4708C62.936 -28.4708 70.1879 -21.6571 70.6987 -16.3194C71.374 -9.13391 71.343 -7.31708 73.9559 -6.77025C76.5687 -6.22341 74.1477 0.624753 74.3609 0.384479C74.5741 0.144202 104.718 -21.6777 104.718 -21.6777L106.658 -28.391Z" fill="black"/>
<path d="M73.0083 -32.5666L67.3644 -29.4001C67.3644 -29.4001 66.5406 -23.963 68.9562 -13.729C71.4108 -3.33589 75.0788 0.230809 75.5022 0.335991C75.9255 0.441174 84.4887 7.40899 84.4887 7.40899L84.0051 16.6951C85.0618 19.3013 84.9294 21.1513 87.4936 23.2011C96.0777 14.3241 101.654 10.4089 113.105 5.50498C113.105 5.50498 110.786 0.180623 110.212 -7.04819C109.639 -14.277 110.33 -15.599 110.33 -15.599C111.707 -16.8021 112.766 -18.325 113.415 -20.0334C114.538 -23.2612 112.851 -26.1527 110.613 -27.1881C108.375 -28.2235 104.475 -26.2584 104.475 -26.2584C103.006 -27.9283 101.807 -29.8169 100.92 -31.856C99.2173 -35.683 93.9007 -40.3004 93.9007 -40.3004L82.9665 -33.7364L84.2974 -40.465L77.5341 -36.7259L73.0083 -32.5666Z" fill="#E9B68E"/>
<path d="M84.1599 7.49902L83.6836 11.3097" stroke="black" stroke-width="1.71479" stroke-linecap="round"/>
<path d="M98.276 -47.511C97.0754 -44.4803 95.2037 -41.7605 92.8012 -39.5557C89.2819 -36.2345 82.2699 -34.0097 82.2699 -34.0097C83.0366 -35.3727 83.66 -36.8113 84.1301 -38.3027C85.1607 -41.6854 85.0752 -43.5465 85.0752 -43.5465C85.0752 -43.5465 81.1286 -37.454 72.991 -32.5625C65.7007 -28.1773 59.7548 -28.2797 59.7548 -28.2797C59.7548 -28.2797 60.6638 -32.4436 61.9123 -39.0506C63.2962 -46.4611 64.8866 -51.7069 69.3595 -56.4236C76.1058 -63.535 86.1938 -62.1267 86.1938 -62.1267C86.1938 -62.1267 89.9147 -61.2772 96.5501 -59.5371C124.001 -52.3446 120.69 -17.9536 120.69 -17.9536C120.69 -17.9536 121.12 -4.34914 110.632 -4.06483" stroke="black" stroke-width="1.71479" stroke-linecap="round" stroke-linejoin="round"/>
<path d="M110.535 -15.5225C110.396 -13.0791 110.039 -9.23608 110.674 -4.06707C111.132 -0.340717 111.92 2.93556 112.692 5.50646" stroke="black" stroke-width="1.71479" stroke-linecap="round" stroke-linejoin="round"/>
<path d="M67.0795 -28.8767C67.0824 -25.0373 67.3687 -19.6695 68.5806 -14.3451C68.9353 -12.7872 69.3692 -11.2329 69.8984 -9.72177C73.9505 1.85438 82.0779 6.9117 84.8285 7.59558C87.5791 8.27946 94.1781 6.1631 98.5673 0.433108C102.898 -5.2175 104.161 -10.2318 104.161 -10.2318" stroke="black" stroke-width="1.71479" stroke-linecap="round" stroke-linejoin="round"/>
<path d="M121.481 12.9312C132.329 18.07 140.468 23.2007 146.098 28.5766C142.34 73.8858 131.94 94.7325 142.418 150.084C142.751 159.923 140.426 165.966 132.644 167.723L48.7328 123.318C50.9837 116.272 45.8942 112.952 52.2463 105.623C58.0258 98.9542 56.5562 90.8644 56.3561 84.2651C43.1964 67.0213 53.3253 58.8532 55.3799 56.8667" stroke="black" stroke-width="1.71479" stroke-linecap="round" stroke-linejoin="round"/>
<path d="M77.4916 62.7526C65.7532 75.6193 63.5214 79.8328 66.0597 84.9335C68.675 86.6372 77.9386 94.1745 80.826 96.0957C82.7103 97.3496 82.7719 96.0195 82.731 96.5719C97.9149 106.632 113.336 113.192 124.172 115.625C138.546 118.853 139.96 101.92 147.374 77.2985C153.821 43.7153 157.168 31.4157 140.747 27.1371C123.064 25.625 124.57 41.1316 115.001 84.9336L77.4916 62.7526Z" fill="#E0CEB2"/>
<path d="M133.775 114.43C139.918 110.887 144.163 101.387 146.845 87.1952C151.8 60.9698 151.549 53.0651 151.647 39.505C151.709 30.9846 147.478 24.4282 142.358 20.7159M118.971 81.0071C118.971 81.0071 119.849 74.082 120.375 63.4465C120.675 57.3893 121.113 48.8266 124.087 37.7451" stroke="black" stroke-width="1.71479" stroke-linecap="round" stroke-linejoin="round"/>
<path d="M68.6009 74.999C66.0574 80.3193 68.6009 82.2232 69.3918 82.699C72.2498 83.1749 75.138 77.3476 76.0603 74.999C78.4537 68.9039 78.442 65.5636 77.9657 63.6596" stroke="black" stroke-width="1.71479" stroke-linecap="round" stroke-linejoin="round"/>
<path d="M129.411 80.7947C129.411 80.7947 113.874 70.4608 99.4023 66.0392C90.0432 62.4792 86.5414 63.6595 86.5414 63.6595C83.0578 61.9616 77.0147 58.4237 74.1568 61.7553" stroke="black" stroke-width="1.71479" stroke-linecap="round" stroke-linejoin="round"/>
<path d="M69.3945 82.7588L75.0431 86.5548C75.0431 86.5548 74.2238 89.4128 76.9484 93.2234C81.0352 98.9394 107.583 110.928 107.91 110.371" stroke="black" stroke-width="1.71479" stroke-linecap="round" stroke-linejoin="round"/>
<path d="M56.6093 50.6143C54.9811 51.6927 53.3226 52.8531 51.6338 54.0956C51.1493 54.4469 50.6567 54.8086 50.1728 55.1866C46.672 57.8205 43.5199 60.4465 40.7041 62.9686L38.4186 63.3524C38.1837 63.3847 37.9648 63.4895 37.7924 63.6521C37.6199 63.8148 37.5027 64.0272 37.4568 64.2596C37.411 64.4921 37.439 64.733 37.5368 64.9489C37.6346 65.1647 37.7974 65.3446 38.0025 65.4635C35.8047 65.8248 33.5059 66.2539 31.1491 66.752C28.7923 67.2502 26.2605 67.8096 23.7115 68.5192L22.7709 68.7578C18.0657 70.0368 13.6202 71.4514 9.61095 72.9239L5.03978 67.142L1.74792 63.0352L9.32406 61.0394L18.4294 58.5169L29.927 55.3418L37.6097 52.8883L37.9292 52.7684L52.8591 43.1141L56.6093 50.6143Z" fill="#8FC1A7"/>
<path d="M38.074 66.1717C33.3576 66.9506 28.2987 68.01 22.8875 69.4649C17.3492 70.9557 11.897 72.7496 6.55578 74.8386C6.3642 74.8977 6.18835 74.999 6.04126 75.1352C5.89266 75.2704 5.77711 75.4378 5.70348 75.6247C5.63165 75.8133 5.60734 76.0166 5.63272 76.2168C5.65836 76.4175 5.73317 76.6088 5.8505 76.7738L17.7341 94.1402L36.5484 87.6607L49.5696 84.5291L74.6886 70.0949L64.8161 46.2813C55.1332 51.8114 46.1542 58.4899 38.074 66.1717Z" fill="#917F76"/>
<path d="M13.4581 87.9639L17.6875 94.1493L36.5468 87.6606L49.5679 84.5289L74.687 70.0947L64.8145 46.2812C55.1294 51.8109 46.1483 58.4895 38.0662 66.1717C33.3498 66.9506 28.2909 68.01 22.8797 69.4649C17.3414 70.9557 11.8892 72.7496 6.54797 74.8386C6.35639 74.8976 6.18056 74.999 6.03348 75.1352C5.88488 75.2704 5.7693 75.4378 5.69567 75.6247C5.62383 75.8133 5.59953 76.0166 5.62491 76.2168C5.65055 76.4175 5.72536 76.6088 5.84269 76.7737L8.78726 81.0401" stroke="black" stroke-width="1.71479" stroke-linecap="round" stroke-linejoin="round"/>
<path d="M2.85259 88.9658L4.91644 92.7599C5.07504 93.0527 5.30509 93.3007 5.58526 93.4809C5.86448 93.6675 6.18719 93.7789 6.52213 93.8043C6.85438 93.8298 7.18768 93.7708 7.49092 93.6327C7.79381 93.4938 8.05762 93.2822 8.25883 93.0167C9.94259 90.6944 12.0861 88.7427 14.5562 87.2829C16.3724 86.2079 18.3439 85.4199 20.401 84.9467C20.6887 84.8768 20.9571 84.7432 21.1863 84.5558C21.5334 84.2746 21.7758 83.8849 21.8743 83.4493C21.9727 83.0137 21.9217 82.5577 21.7292 82.1547L20.2205 78.953C20.0402 78.5764 19.746 78.2659 19.3795 78.0656C19.013 77.8652 18.5927 77.785 18.1781 77.8364C15.168 78.2304 12.27 79.2342 9.66162 80.7862C7.0532 82.3382 4.78922 84.4058 3.00824 86.8625C2.7858 87.1648 2.65436 87.5242 2.62937 87.8986C2.60438 88.2729 2.68688 88.6466 2.86717 88.9757L2.85259 88.9658Z" fill="#917F76"/>
<path d="M20.401 84.9467C20.6887 84.8768 20.9571 84.7432 21.1863 84.5558C21.5334 84.2746 21.7758 83.8849 21.8743 83.4493C21.9727 83.0137 21.9217 82.5577 21.7292 82.1547L20.2205 78.953C20.0402 78.5764 19.746 78.2659 19.3795 78.0656C19.013 77.8652 18.5927 77.785 18.1781 77.8364C15.168 78.2304 12.27 79.2342 9.66163 80.7862C7.0532 82.3382 4.78922 84.4058 3.00824 86.8625C2.7858 87.1648 2.65436 87.5242 2.62937 87.8986C2.60438 88.2729 2.68688 88.6466 2.86717 88.9757L2.85259 88.9658L4.91644 92.7599C5.07504 93.0527 5.30509 93.3007 5.58526 93.4809C5.86448 93.6675 6.18719 93.7789 6.52213 93.8043C6.85438 93.8298 7.18768 93.7708 7.49092 93.6327C7.79381 93.4938 8.05762 93.2822 8.25883 93.0167C9.94259 90.6944 12.0861 88.7427 14.5562 87.2829C15.0265 87.0045 15.5071 86.7455 15.997 86.5061" stroke="black" stroke-width="1.71479" stroke-linecap="round" stroke-linejoin="round"/>
<path d="M7.41665 89.1873C7.72169 89.1804 8.01784 89.0833 8.26765 88.9082C8.51746 88.7331 8.7097 88.488 8.82008 88.2037C8.93045 87.9195 8.95401 87.6089 8.88774 87.3113C8.82148 87.0136 8.66837 86.7424 8.44781 86.5317C8.22724 86.321 7.94911 86.1804 7.64858 86.1277C7.34806 86.075 7.03863 86.1125 6.75944 86.2355C6.48025 86.3585 6.24384 86.5615 6.08009 86.8187C5.91634 87.076 5.83261 87.376 5.8395 87.6809C5.84873 88.0896 6.02007 88.478 6.31584 88.7605C6.61162 89.043 7.0076 89.1965 7.41665 89.1873Z" stroke="black" stroke-width="1.71479" stroke-linecap="round" stroke-linejoin="round"/>
<path d="M45.4844 72.8301L48.7302 79.0766" stroke="black" stroke-width="1.71479" stroke-linecap="round" stroke-linejoin="round"/>
<path d="M54.547 67.5119L45.9312 68.7192C44.5087 68.863 43.0719 68.711 41.7111 68.2727C40.3504 67.8344 39.0952 67.1193 38.0246 66.1724C37.8736 66.0835 37.7453 65.9609 37.6496 65.8141C37.554 65.6673 37.4937 65.5004 37.4735 65.3264C37.4533 65.1525 37.4737 64.9762 37.533 64.8114C37.5924 64.6466 37.6892 64.4978 37.8158 64.3767C37.9822 64.2148 38.195 64.109 38.4246 64.0739L42.5126 63.3665C43.7965 63.1818 45.0585 62.8682 46.2795 62.4306L60.5071 57.3812C61.3465 57.0775 62.2397 56.9506 63.1306 57.0085C64.0215 57.0664 64.8907 57.3078 65.6837 57.7176L74.6385 62.3405C75.5704 64.7794 77.6194 61.0514 77.4943 63.659C77.416 65.2901 77.4943 71.2748 73.6836 77.9385C68.4723 79.6688 73.2071 77.5639 72.2409 77.5639C68.0076 78.3791 64.8101 79.4564 64.8101 79.4564L54.9367 86.1301C53.6955 86.9735 52.2365 87.4401 50.7358 87.4736L48.9658 87.5135C48.0988 88.1368 47.1136 88.577 46.0706 88.8071C45.0276 89.0372 43.9486 89.0525 42.8995 88.8519L36.5462 87.6603L46.0528 84.3701L54.547 67.5119Z" fill="#E9B68E"/>
<path d="M77.494 63.3665L65.6837 57.7176C64.8907 57.3078 64.0214 57.0664 63.1306 57.0085C62.2397 56.9506 61.3465 57.0775 60.5071 57.3812L46.2795 62.4306C45.0585 62.8682 43.7965 63.1818 42.5126 63.3665L38.4246 64.0739C38.195 64.109 37.9822 64.2148 37.8158 64.3767C37.6892 64.4978 37.5924 64.6466 37.533 64.8114C37.4737 64.9762 37.4533 65.1525 37.4735 65.3264C37.4937 65.5004 37.554 65.6673 37.6496 65.8141C37.7453 65.9609 37.8736 66.0835 38.0246 66.1724C39.0952 67.1193 40.3504 67.8344 41.7111 68.2727C43.0719 68.711 44.5087 68.863 45.9312 68.7192L54.547 67.5119L46.0528 84.3701L36.5462 87.6603L42.8995 88.8519C43.9486 89.0525 45.0276 89.0372 46.0706 88.8071C47.1136 88.577 48.0988 88.1368 48.9658 87.5135L50.7358 87.4736C52.2365 87.4401 53.6955 86.9735 54.9367 86.1301L64.8101 79.4564C64.8101 79.4564 69.45 78.754 73.6834 77.9387" stroke="black" stroke-width="1.71479" stroke-linecap="round" stroke-linejoin="round"/>
<path d="M59.6566 78.3715L48.9197 87.517" stroke="black" stroke-width="1.71479" stroke-linecap="round" stroke-linejoin="round"/>
<path d="M37.851 53.4349L52.8179 43.7798L56.632 51.2991" stroke="black" stroke-width="1.71479" stroke-linecap="round" stroke-linejoin="round"/>
<path d="M9.68289 73.6377L1.7224 63.704L9.30878 61.708L33.8431 54.9108L38.2471 53.2879L49.2922 50.7033L51.6576 54.7653" stroke="black" stroke-width="1.71479" stroke-linecap="round" stroke-linejoin="round"/>
<path d="M9.96804 61.1868C9.96804 61.1868 8.16764 55.7886 10.9327 52.2761C11.9081 51.0371 15.7307 49.4657 15.7307 49.4657C15.9802 48.9628 16.3476 48.5275 16.8016 48.1969C17.2556 47.8663 17.7828 47.6502 18.3383 47.5669C20.2526 47.2896 21.215 47.4413 21.215 47.4413C21.215 47.4413 22.8334 45.6157 24.3951 45.6178C25.3767 45.6282 26.3498 45.8013 27.2747 46.13C27.2747 46.13 28.1259 45.0338 30.1937 45.2139C32.8802 45.2881 35.4909 51.2172 36.0579 55.7979C36.1995 56.9113 36.1877 61.5423 33.9617 61.9129C32.2711 62.1943 31.887 59.4603 31.5958 58.4125C31.7264 59.4764 32.4962 62.174 30.4602 63.2949C27.356 64.2281 27.053 60.0097 26.4848 58.739C27.0904 61.0341 27.3839 63.4872 25.5613 63.8655C23.107 64.376 22.5136 61.929 22.2201 61.1149C22.808 63.8259 20.5899 63.7359 18.8389 62.6396C17.4407 61.7705 15.6486 59.4856 15.6486 59.4856L9.96804 61.1868Z" fill="#E9B68E" stroke="black" stroke-width="1.71479" stroke-linecap="round" stroke-linejoin="round"/>
<path d="M31.6037 58.4121C31.6037 58.4121 31.0385 53.247 28.2148 49.8242" stroke="black" stroke-width="1.71479" stroke-linecap="round" stroke-linejoin="round"/>
<path d="M26.6988 59.713C26.2608 57.5927 25.3634 54.1964 22.7344 50.7852" stroke="black" stroke-width="1.71479" stroke-linecap="round" stroke-linejoin="round"/>
<path d="M22.2117 61.1125C22.2117 61.1125 19.9501 55.5798 17.4297 53.2852" stroke="black" stroke-width="1.71479" stroke-linecap="round" stroke-linejoin="round"/>
<path d="M12.0781 55.8594L13.8672 56.5445C13.8672 56.5445 15.2875 59.2887 16.4081 60.3984" stroke="black" stroke-width="1.71479" stroke-linecap="round" stroke-linejoin="round"/>
<path d="M35.1841 50.9971C36.6828 50.0131 39.8691 48.563 40.2882 51.9583" stroke="black" stroke-width="1.71479" stroke-linecap="round" stroke-linejoin="round"/>
<path d="M34.6268 50.3322C36.1255 49.3482 39.8696 48.5636 40.2888 51.959L34.6268 50.3322Z" fill="#E9B68E"/>
<path d="M34.6268 50.3322C36.1255 49.3482 39.8696 48.5636 40.2888 51.959L36.1324 53.9624L34.6268 50.3322Z" fill="#E9B68E"/>
<path d="M34.6268 50.3322C36.1255 49.3482 39.8696 48.5636 40.2888 51.959L34.6268 50.3322Z" stroke="black" stroke-width="1.71479" stroke-linecap="round" stroke-linejoin="round"/>
<path d="M34.6268 50.3322C36.1255 49.3482 39.8696 48.5636 40.2888 51.959L36.1324 53.9624L34.6268 50.3322Z" stroke="black" stroke-width="1.71479" stroke-linecap="round" stroke-linejoin="round"/>
<path d="M94.0473 52.373C94.7401 43.288 96.5244 34.3193 99.3619 25.6604" stroke="black" stroke-width="1.71479" stroke-linecap="round" stroke-linejoin="round"/>
<path d="M73.8127 47.6763C74.5054 38.5913 75.5405 30.6359 78.378 21.977" stroke="black" stroke-width="1.71479" stroke-linecap="round" stroke-linejoin="round"/>
<path d="M92.5388 56.3192C92.5187 56.64 92.627 56.9557 92.8398 57.1968C93.0526 57.4378 93.3526 57.5845 93.6737 57.6046C93.9948 57.6247 94.3107 57.5165 94.5519 57.3038C94.7932 57.0911 94.94 56.7914 94.9601 56.4706L95.1932 52.7479C95.2133 52.427 95.105 52.1114 94.8922 51.8703C94.6794 51.6292 94.3794 51.4825 94.0583 51.4624C93.7372 51.4423 93.4213 51.5505 93.1801 51.7632C92.9388 51.9759 92.792 52.2756 92.7719 52.5965L92.5388 56.3192Z" fill="black" stroke="black" stroke-width="1.71479" stroke-linecap="round" stroke-linejoin="round"/>
<path d="M72.3083 51.6238C72.2882 51.9447 72.3965 52.2604 72.6093 52.5015C72.8222 52.7425 73.1221 52.8892 73.4432 52.9093C73.7643 52.9294 74.0802 52.8212 74.3215 52.6085C74.5627 52.3958 74.7095 52.0961 74.7296 51.7753L74.9627 48.0526C74.9828 47.7317 74.8746 47.416 74.6617 47.175C74.4489 46.9339 74.1489 46.7872 73.8278 46.7671C73.5068 46.747 73.1908 46.8552 72.9496 47.0679C72.7084 47.2806 72.5615 47.5803 72.5414 47.9012L72.3083 51.6238Z" fill="black" stroke="black" stroke-width="1.71479" stroke-linecap="round" stroke-linejoin="round"/>
<path d="M128.914 19.251C129.392 24.106 102.504 31.6524 93.1992 27.6654" stroke="black" stroke-width="1.71479" stroke-linecap="round" stroke-linejoin="round"/>
<path d="M82.2569 26.076C77.522 25.5445 73.408 23.0903 71.7777 21.3128C68.8065 18.0733 70.825 7.97553 79.073 4.64113" stroke="black" stroke-width="1.71479" stroke-linecap="round" stroke-linejoin="round"/>
<path d="M108.93 7.49805C103.69 8.9271 94.7831 15.0924 87.0185 23.2172C85.5895 21.3119 82.7314 18.4535 83.6841 10.8323" stroke="black" stroke-width="1.71479" stroke-linecap="round" stroke-linejoin="round"/>
</g>
<defs>
<clipPath id="clip0_2128_22812">
<rect width="111.461" height="111.461" fill="white" transform="translate(0.328125 0.830078)"/>
</clipPath>
</defs>
</svg>
