<svg width="351" height="57" viewBox="0 0 351 57" fill="none" xmlns="http://www.w3.org/2000/svg">
<rect y="0.5" width="351" height="56" rx="16" fill="#F5F4F2"/>
<rect x="16" y="8.5" width="40" height="40" rx="12" fill="#029154"/>
<path d="M30.4039 34.0142C32.5009 36.0998 35.6806 39.7935 38.8736 39.7935C45.0335 39.7935 45.9964 34.39 45.7508 30.4602C45.4744 26.0392 47.4701 24.3199 47.2245 23.0918C45.5052 21.8637 42.4088 23.6144 43.049 28.0041C43.049 28.0041 40.8385 28.9865 39.6104 31.9339C38.8736 29.2321 41.5753 27.5128 41.5753 27.5128C39.6969 24.5314 37.006 19.2623 36.1718 17.4427C35.3376 15.623 32.9788 16.7058 33.7157 18.4251C34.3173 19.8289 37.6455 26.5304 37.6455 26.5304L36.9087 27.0216C36.9087 27.0216 31.9964 20.1444 31.0139 18.6707C30.0315 17.1971 27.6981 18.9163 28.8034 20.39C29.9087 21.8637 34.6981 28.7409 34.6981 28.7409L34.2069 29.2321C34.2069 29.2321 29.5402 24.0742 28.3122 22.8462C27.0841 21.6181 25.6104 23.3374 26.5929 24.5655C27.4022 25.5772 32.4876 30.9514 32.4876 30.9514L31.9964 31.6883C31.9964 31.6883 28.5578 28.9865 27.0841 27.7585C25.6104 26.5304 24.1367 28.0041 25.6104 29.4777C27.0841 30.9514 28.3122 31.9339 30.4039 34.0142Z" fill="white"/>
<path d="M73.136 14.528H77.072C78.5227 14.528 79.6267 14.7413 80.384 15.168C81.1413 15.5947 81.52 16.3147 81.52 17.328C81.52 18.1493 81.2747 18.7733 80.784 19.2C80.304 19.616 79.664 19.8987 78.864 20.048C79.8667 20.1653 80.6293 20.4267 81.152 20.832C81.6747 21.2373 81.936 21.856 81.936 22.688C81.936 23.2853 81.8133 23.7973 81.568 24.224C81.3227 24.64 80.9813 24.9813 80.544 25.248C80.1067 25.504 79.5893 25.696 78.992 25.824C78.3947 25.9413 77.744 26 77.04 26H73.136V14.528ZM75.424 16.448V19.152H77.312C77.888 19.152 78.352 19.0347 78.704 18.8C79.056 18.5653 79.232 18.1973 79.232 17.696C79.232 17.1947 79.072 16.864 78.752 16.704C78.432 16.5333 77.984 16.448 77.408 16.448H75.424ZM75.424 21.04V24.096H77.376C78.0373 24.096 78.5707 23.984 78.976 23.76C79.3813 23.536 79.584 23.1307 79.584 22.544C79.584 21.9893 79.392 21.6 79.008 21.376C78.6347 21.152 78.0427 21.04 77.232 21.04H75.424ZM88.3381 26C88.3061 25.84 88.2741 25.632 88.2421 25.376C88.2208 25.1093 88.1995 24.88 88.1781 24.688C88.0928 24.8693 87.9808 25.0453 87.8421 25.216C87.7141 25.3867 87.5488 25.5467 87.3461 25.696C87.1435 25.8347 86.9035 25.9467 86.6261 26.032C86.3595 26.1173 86.0448 26.16 85.6821 26.16C85.3301 26.16 84.9941 26.112 84.6741 26.016C84.3648 25.92 84.0875 25.7707 83.8421 25.568C83.6075 25.3653 83.4208 25.1147 83.2821 24.816C83.1435 24.5173 83.0741 24.1653 83.0741 23.76C83.0741 22.8747 83.4208 22.192 84.1141 21.712C84.8075 21.232 85.7941 20.992 87.0741 20.992H88.0981V20.624C88.0981 20.112 87.9648 19.7653 87.6981 19.584C87.4421 19.392 87.0261 19.296 86.4501 19.296C85.8741 19.296 85.3461 19.3707 84.8661 19.52C84.3861 19.6693 83.9648 19.8347 83.6021 20.016V18.256C83.9648 18.0747 84.4288 17.9093 84.9941 17.76C85.5595 17.6107 86.1781 17.536 86.8501 17.536C87.9381 17.536 88.7861 17.7653 89.3941 18.224C90.0128 18.6827 90.3221 19.4133 90.3221 20.416V24.656C90.3221 24.752 90.3221 24.864 90.3221 24.992C90.3328 25.1093 90.3381 25.232 90.3381 25.36C90.3488 25.488 90.3595 25.6107 90.3701 25.728C90.3808 25.8347 90.3915 25.9253 90.4021 26H88.3381ZM86.3541 24.576C86.7168 24.576 87.0101 24.5013 87.2341 24.352C87.4581 24.192 87.6341 24.0107 87.7621 23.808C87.8901 23.6053 87.9755 23.408 88.0181 23.216C88.0715 23.0133 88.0981 22.8693 88.0981 22.784V22.288H87.1541C86.4928 22.288 86.0075 22.4 85.6981 22.624C85.3995 22.8373 85.2501 23.1307 85.2501 23.504C85.2501 23.8453 85.3461 24.112 85.5381 24.304C85.7408 24.4853 86.0128 24.576 86.3541 24.576ZM98.6089 17.696V21.008H99.2329L101.409 17.696H103.617L100.977 21.664L103.793 26H101.249L99.1849 22.768H98.6089V26H96.4009V22.768H95.8089L93.6969 26H91.2169L94.0489 21.744L91.3769 17.696H93.6329L95.7929 21.008H96.4009V17.696H98.6089ZM110.047 22.64H106.959V26H104.751V17.696H106.959V20.896H110.047V17.696H112.255V26H110.047V22.64ZM117.821 26.16C117.224 26.16 116.669 26.0693 116.157 25.888C115.656 25.696 115.213 25.4187 114.829 25.056C114.456 24.6827 114.162 24.2293 113.949 23.696C113.736 23.152 113.629 22.5333 113.629 21.84C113.629 21.1467 113.736 20.5333 113.949 20C114.162 19.456 114.456 19.0027 114.829 18.64C115.213 18.2773 115.656 18.0053 116.157 17.824C116.669 17.632 117.224 17.536 117.821 17.536C118.418 17.536 118.973 17.632 119.485 17.824C120.008 18.0053 120.456 18.2773 120.829 18.64C121.213 19.0027 121.512 19.456 121.725 20C121.949 20.5333 122.061 21.1467 122.061 21.84C122.061 22.5333 121.949 23.152 121.725 23.696C121.512 24.2293 121.213 24.6827 120.829 25.056C120.456 25.4187 120.008 25.696 119.485 25.888C118.973 26.0693 118.418 26.16 117.821 26.16ZM117.821 24.384C118.397 24.384 118.866 24.176 119.229 23.76C119.592 23.344 119.773 22.704 119.773 21.84C119.773 20.9867 119.592 20.352 119.229 19.936C118.866 19.52 118.397 19.312 117.821 19.312C117.277 19.312 116.818 19.52 116.445 19.936C116.082 20.352 115.901 20.9867 115.901 21.84C115.901 22.704 116.082 23.344 116.445 23.76C116.818 24.176 117.277 24.384 117.821 24.384ZM133.159 23.632C133.159 24.0587 133.063 24.432 132.871 24.752C132.679 25.072 132.417 25.3387 132.087 25.552C131.756 25.7547 131.367 25.904 130.919 26C130.471 26.1067 129.985 26.16 129.463 26.16C128.705 26.16 128.103 26.0853 127.655 25.936C127.207 25.7867 126.876 25.6373 126.663 25.488V23.776C126.94 23.9787 127.313 24.144 127.783 24.272C128.252 24.4 128.769 24.464 129.335 24.464C129.847 24.464 130.236 24.3893 130.503 24.24C130.78 24.08 130.919 23.8293 130.919 23.488C130.919 23.168 130.791 22.9387 130.535 22.8C130.279 22.6507 129.873 22.576 129.319 22.576H128.071V20.976H129.319C129.756 20.976 130.092 20.9067 130.327 20.768C130.572 20.6293 130.695 20.4107 130.695 20.112C130.695 19.7813 130.567 19.552 130.311 19.424C130.055 19.296 129.708 19.232 129.271 19.232C128.716 19.232 128.236 19.3013 127.831 19.44C127.425 19.568 127.068 19.728 126.759 19.92V18.192C127.025 18.0213 127.393 17.872 127.863 17.744C128.343 17.6053 128.951 17.536 129.687 17.536C130.7 17.536 131.479 17.7173 132.023 18.08C132.577 18.4427 132.855 18.9813 132.855 19.696C132.855 20.2293 132.7 20.6507 132.391 20.96C132.081 21.2587 131.623 21.488 131.015 21.648C131.74 21.7653 132.279 21.9787 132.631 22.288C132.983 22.5867 133.159 23.0347 133.159 23.632ZM139.977 22.64H136.889V26H134.681V17.696H136.889V20.896H139.977V17.696H142.185V26H139.977V22.64ZM148.903 26C148.871 25.84 148.839 25.632 148.807 25.376C148.786 25.1093 148.764 24.88 148.743 24.688C148.658 24.8693 148.546 25.0453 148.407 25.216C148.279 25.3867 148.114 25.5467 147.911 25.696C147.708 25.8347 147.468 25.9467 147.191 26.032C146.924 26.1173 146.61 26.16 146.247 26.16C145.895 26.16 145.559 26.112 145.239 26.016C144.93 25.92 144.652 25.7707 144.407 25.568C144.172 25.3653 143.986 25.1147 143.847 24.816C143.708 24.5173 143.639 24.1653 143.639 23.76C143.639 22.8747 143.986 22.192 144.679 21.712C145.372 21.232 146.359 20.992 147.639 20.992H148.663V20.624C148.663 20.112 148.53 19.7653 148.263 19.584C148.007 19.392 147.591 19.296 147.015 19.296C146.439 19.296 145.911 19.3707 145.431 19.52C144.951 19.6693 144.53 19.8347 144.167 20.016V18.256C144.53 18.0747 144.994 17.9093 145.559 17.76C146.124 17.6107 146.743 17.536 147.415 17.536C148.503 17.536 149.351 17.7653 149.959 18.224C150.578 18.6827 150.887 19.4133 150.887 20.416V24.656C150.887 24.752 150.887 24.864 150.887 24.992C150.898 25.1093 150.903 25.232 150.903 25.36C150.914 25.488 150.924 25.6107 150.935 25.728C150.946 25.8347 150.956 25.9253 150.967 26H148.903ZM146.919 24.576C147.282 24.576 147.575 24.5013 147.799 24.352C148.023 24.192 148.199 24.0107 148.327 23.808C148.455 23.6053 148.54 23.408 148.583 23.216C148.636 23.0133 148.663 22.8693 148.663 22.784V22.288H147.719C147.058 22.288 146.572 22.4 146.263 22.624C145.964 22.8373 145.815 23.1307 145.815 23.504C145.815 23.8453 145.911 24.112 146.103 24.304C146.306 24.4853 146.578 24.576 146.919 24.576ZM156.521 19.44V26H154.297V19.44H151.865V17.696H158.985V19.44H156.521ZM167.248 23.056C167.248 23.536 167.157 23.9627 166.976 24.336C166.805 24.6987 166.565 25.008 166.256 25.264C165.946 25.5093 165.573 25.696 165.136 25.824C164.709 25.9413 164.24 26 163.728 26H160.16V17.696H162.384V20.224H163.76C164.858 20.224 165.712 20.464 166.32 20.944C166.938 21.4133 167.248 22.1173 167.248 23.056ZM162.384 21.904V24.336H163.472C163.92 24.336 164.277 24.2453 164.544 24.064C164.821 23.872 164.96 23.5573 164.96 23.12C164.96 22.6933 164.832 22.384 164.576 22.192C164.33 22 163.968 21.904 163.488 21.904H162.384Z" fill="#21201F"/>
<path d="M74.392 33.797V42H73.157V32.692H78.331V33.797H74.392ZM81.8638 42.13C81.4044 42.13 80.9754 42.052 80.5768 41.896C80.1781 41.74 79.8314 41.5147 79.5368 41.22C79.2508 40.9167 79.0254 40.5483 78.8608 40.115C78.6961 39.6817 78.6138 39.1833 78.6138 38.62C78.6138 38.0653 78.6961 37.5713 78.8608 37.138C79.0254 36.696 79.2508 36.3277 79.5368 36.033C79.8314 35.7383 80.1781 35.513 80.5768 35.357C80.9754 35.201 81.4044 35.123 81.8638 35.123C82.3318 35.123 82.7651 35.201 83.1638 35.357C83.5624 35.513 83.9048 35.7383 84.1908 36.033C84.4854 36.3277 84.7151 36.696 84.8798 37.138C85.0531 37.5713 85.1398 38.0653 85.1398 38.62C85.1398 39.1833 85.0531 39.6817 84.8798 40.115C84.7151 40.5483 84.4854 40.9167 84.1908 41.22C83.9048 41.5147 83.5624 41.74 83.1638 41.896C82.7651 42.052 82.3318 42.13 81.8638 42.13ZM81.8638 41.103C82.1671 41.103 82.4488 41.0553 82.7088 40.96C82.9688 40.856 83.1898 40.7043 83.3718 40.505C83.5624 40.297 83.7098 40.037 83.8138 39.725C83.9264 39.413 83.9828 39.0447 83.9828 38.62C83.9828 38.1953 83.9264 37.827 83.8138 37.515C83.7098 37.203 83.5624 36.9473 83.3718 36.748C83.1898 36.54 82.9688 36.3883 82.7088 36.293C82.4488 36.189 82.1671 36.137 81.8638 36.137C81.5604 36.137 81.2831 36.189 81.0318 36.293C80.7804 36.3883 80.5594 36.54 80.3688 36.748C80.1868 36.9473 80.0438 37.203 79.9398 37.515C79.8358 37.827 79.7838 38.1953 79.7838 38.62C79.7838 39.0447 79.8358 39.413 79.9398 39.725C80.0438 40.037 80.1868 40.297 80.3688 40.505C80.5594 40.7043 80.7804 40.856 81.0318 40.96C81.2831 41.0553 81.5604 41.103 81.8638 41.103ZM88.0437 40.258C87.8964 40.8733 87.6581 41.3283 87.3287 41.623C87.0081 41.909 86.5574 42.0433 85.9767 42.026L85.8077 40.986C86.4057 41.012 86.7914 40.6913 86.9647 40.024C87.0947 39.5213 87.1771 38.8887 87.2117 38.126C87.2551 37.3547 87.2767 36.397 87.2767 35.253H91.6707V42H90.5267V36.228H88.3557C88.3471 37.086 88.3211 37.8487 88.2777 38.516C88.2431 39.1833 88.1651 39.764 88.0437 40.258ZM96.438 42.13C95.9786 42.13 95.5496 42.052 95.151 41.896C94.7523 41.74 94.4056 41.5147 94.111 41.22C93.825 40.9167 93.5996 40.5483 93.435 40.115C93.2703 39.6817 93.188 39.1833 93.188 38.62C93.188 38.0653 93.2703 37.5713 93.435 37.138C93.5996 36.696 93.825 36.3277 94.111 36.033C94.4056 35.7383 94.7523 35.513 95.151 35.357C95.5496 35.201 95.9786 35.123 96.438 35.123C96.906 35.123 97.3393 35.201 97.738 35.357C98.1366 35.513 98.479 35.7383 98.765 36.033C99.0596 36.3277 99.2893 36.696 99.454 37.138C99.6273 37.5713 99.714 38.0653 99.714 38.62C99.714 39.1833 99.6273 39.6817 99.454 40.115C99.2893 40.5483 99.0596 40.9167 98.765 41.22C98.479 41.5147 98.1366 41.74 97.738 41.896C97.3393 42.052 96.906 42.13 96.438 42.13ZM96.438 41.103C96.7413 41.103 97.023 41.0553 97.283 40.96C97.543 40.856 97.764 40.7043 97.946 40.505C98.1366 40.297 98.284 40.037 98.388 39.725C98.5006 39.413 98.557 39.0447 98.557 38.62C98.557 38.1953 98.5006 37.827 98.388 37.515C98.284 37.203 98.1366 36.9473 97.946 36.748C97.764 36.54 97.543 36.3883 97.283 36.293C97.023 36.189 96.7413 36.137 96.438 36.137C96.1346 36.137 95.8573 36.189 95.606 36.293C95.3546 36.3883 95.1336 36.54 94.943 36.748C94.761 36.9473 94.618 37.203 94.514 37.515C94.41 37.827 94.358 38.1953 94.358 38.62C94.358 39.0447 94.41 39.413 94.514 39.725C94.618 40.037 94.761 40.297 94.943 40.505C95.1336 40.7043 95.3546 40.856 95.606 40.96C95.8573 41.0553 96.1346 41.103 96.438 41.103ZM104.134 42.13C103.64 42.13 103.185 42.052 102.769 41.896C102.353 41.74 101.994 41.5147 101.69 41.22C101.396 40.9167 101.166 40.5527 101.001 40.128C100.837 39.6947 100.754 39.2007 100.754 38.646C100.754 38.1 100.837 37.6103 101.001 37.177C101.175 36.735 101.413 36.3623 101.716 36.059C102.02 35.7557 102.375 35.526 102.782 35.37C103.198 35.2053 103.649 35.123 104.134 35.123C104.542 35.123 104.919 35.1663 105.265 35.253C105.621 35.3397 105.915 35.4697 106.149 35.643L105.863 36.631C105.647 36.5097 105.4 36.397 105.122 36.293C104.845 36.189 104.52 36.137 104.147 36.137C103.471 36.137 102.93 36.345 102.522 36.761C102.124 37.177 101.924 37.8053 101.924 38.646C101.924 39.4347 102.124 40.0413 102.522 40.466C102.921 40.8907 103.458 41.103 104.134 41.103C104.464 41.103 104.763 41.0597 105.031 40.973C105.3 40.8863 105.556 40.7737 105.798 40.635L106.071 41.584C105.829 41.7573 105.551 41.8917 105.239 41.987C104.927 42.0823 104.559 42.13 104.134 42.13ZM110.416 42.13C109.956 42.13 109.527 42.052 109.129 41.896C108.73 41.74 108.383 41.5147 108.089 41.22C107.803 40.9167 107.577 40.5483 107.413 40.115C107.248 39.6817 107.166 39.1833 107.166 38.62C107.166 38.0653 107.248 37.5713 107.413 37.138C107.577 36.696 107.803 36.3277 108.089 36.033C108.383 35.7383 108.73 35.513 109.129 35.357C109.527 35.201 109.956 35.123 110.416 35.123C110.884 35.123 111.317 35.201 111.716 35.357C112.114 35.513 112.457 35.7383 112.743 36.033C113.037 36.3277 113.267 36.696 113.432 37.138C113.605 37.5713 113.692 38.0653 113.692 38.62C113.692 39.1833 113.605 39.6817 113.432 40.115C113.267 40.5483 113.037 40.9167 112.743 41.22C112.457 41.5147 112.114 41.74 111.716 41.896C111.317 42.052 110.884 42.13 110.416 42.13ZM110.416 41.103C110.719 41.103 111.001 41.0553 111.261 40.96C111.521 40.856 111.742 40.7043 111.924 40.505C112.114 40.297 112.262 40.037 112.366 39.725C112.478 39.413 112.535 39.0447 112.535 38.62C112.535 38.1953 112.478 37.827 112.366 37.515C112.262 37.203 112.114 36.9473 111.924 36.748C111.742 36.54 111.521 36.3883 111.261 36.293C111.001 36.189 110.719 36.137 110.416 36.137C110.112 36.137 109.835 36.189 109.584 36.293C109.332 36.3883 109.111 36.54 108.921 36.748C108.739 36.9473 108.596 37.203 108.492 37.515C108.388 37.827 108.336 38.1953 108.336 38.62C108.336 39.0447 108.388 39.413 108.492 39.725C108.596 40.037 108.739 40.297 108.921 40.505C109.111 40.7043 109.332 40.856 109.584 40.96C109.835 41.0553 110.112 41.103 110.416 41.103ZM116.357 36.228V38.061H117.631C118.064 38.061 118.411 37.983 118.671 37.827C118.94 37.671 119.074 37.4457 119.074 37.151C119.074 36.7957 118.957 36.553 118.723 36.423C118.489 36.293 118.155 36.228 117.722 36.228H116.357ZM116.357 38.971V41.025H117.696C117.939 41.025 118.155 41.012 118.346 40.986C118.545 40.9513 118.714 40.895 118.853 40.817C119 40.739 119.113 40.635 119.191 40.505C119.269 40.375 119.308 40.2147 119.308 40.024C119.308 39.634 119.174 39.361 118.905 39.205C118.645 39.049 118.242 38.971 117.696 38.971H116.357ZM115.213 35.253H117.735C118.55 35.253 119.165 35.396 119.581 35.682C119.997 35.9593 120.205 36.397 120.205 36.995C120.205 37.3937 120.105 37.7143 119.906 37.957C119.707 38.191 119.416 38.36 119.035 38.464C119.997 38.62 120.478 39.153 120.478 40.063C120.478 40.4097 120.409 40.7087 120.27 40.96C120.131 41.2027 119.941 41.402 119.698 41.558C119.455 41.714 119.161 41.8267 118.814 41.896C118.476 41.9653 118.108 42 117.709 42H115.213V35.253ZM124.888 42.13C124.429 42.13 124 42.052 123.601 41.896C123.202 41.74 122.856 41.5147 122.561 41.22C122.275 40.9167 122.05 40.5483 121.885 40.115C121.72 39.6817 121.638 39.1833 121.638 38.62C121.638 38.0653 121.72 37.5713 121.885 37.138C122.05 36.696 122.275 36.3277 122.561 36.033C122.856 35.7383 123.202 35.513 123.601 35.357C124 35.201 124.429 35.123 124.888 35.123C125.356 35.123 125.789 35.201 126.188 35.357C126.587 35.513 126.929 35.7383 127.215 36.033C127.51 36.3277 127.739 36.696 127.904 37.138C128.077 37.5713 128.164 38.0653 128.164 38.62C128.164 39.1833 128.077 39.6817 127.904 40.115C127.739 40.5483 127.51 40.9167 127.215 41.22C126.929 41.5147 126.587 41.74 126.188 41.896C125.789 42.052 125.356 42.13 124.888 42.13ZM124.888 41.103C125.191 41.103 125.473 41.0553 125.733 40.96C125.993 40.856 126.214 40.7043 126.396 40.505C126.587 40.297 126.734 40.037 126.838 39.725C126.951 39.413 127.007 39.0447 127.007 38.62C127.007 38.1953 126.951 37.827 126.838 37.515C126.734 37.203 126.587 36.9473 126.396 36.748C126.214 36.54 125.993 36.3883 125.733 36.293C125.473 36.189 125.191 36.137 124.888 36.137C124.585 36.137 124.307 36.189 124.056 36.293C123.805 36.3883 123.584 36.54 123.393 36.748C123.211 36.9473 123.068 37.203 122.964 37.515C122.86 37.827 122.808 38.1953 122.808 38.62C122.808 39.0447 122.86 39.413 122.964 39.725C123.068 40.037 123.211 40.297 123.393 40.505C123.584 40.7043 123.805 40.856 124.056 40.96C124.307 41.0553 124.585 41.103 124.888 41.103ZM132.663 34.356C132.316 34.356 132.013 34.3127 131.753 34.226C131.501 34.1307 131.289 34.005 131.116 33.849C130.951 33.6843 130.825 33.498 130.739 33.29C130.661 33.0733 130.622 32.8393 130.622 32.588H131.766C131.766 32.9173 131.844 33.1557 132 33.303C132.164 33.4503 132.385 33.524 132.663 33.524C132.94 33.524 133.157 33.4503 133.313 33.303C133.469 33.1557 133.547 32.9173 133.547 32.588H134.691C134.691 33.082 134.522 33.5023 134.184 33.849C133.854 34.187 133.347 34.356 132.663 34.356ZM129.686 35.253H130.83V40.44L134.431 35.253H135.588V42H134.444V36.826L130.856 42H129.686V35.253ZM142.17 41.103C142.413 41.103 142.634 41.0683 142.833 40.999C143.041 40.9297 143.223 40.8387 143.379 40.726C143.544 40.6133 143.687 40.492 143.808 40.362C143.938 40.232 144.047 40.102 144.133 39.972V38.854H143.249C142.435 38.854 141.863 38.9623 141.533 39.179C141.204 39.387 141.039 39.686 141.039 40.076C141.039 40.3793 141.13 40.6263 141.312 40.817C141.494 41.0077 141.78 41.103 142.17 41.103ZM144.198 40.882C144.103 41.0293 143.986 41.181 143.847 41.337C143.717 41.4843 143.557 41.6187 143.366 41.74C143.184 41.8527 142.972 41.9437 142.729 42.013C142.487 42.091 142.218 42.13 141.923 42.13C141.317 42.13 140.827 41.961 140.454 41.623C140.082 41.2763 139.895 40.7823 139.895 40.141C139.895 38.6763 140.979 37.944 143.145 37.944H144.133V37.437C144.133 36.969 144.008 36.6353 143.756 36.436C143.514 36.2367 143.106 36.137 142.534 36.137C142.092 36.137 141.698 36.1933 141.351 36.306C141.013 36.4187 140.719 36.5487 140.467 36.696L140.194 35.747C140.428 35.5997 140.753 35.461 141.169 35.331C141.585 35.1923 142.066 35.123 142.612 35.123C143.479 35.123 144.138 35.3007 144.588 35.656C145.048 36.0113 145.277 36.5573 145.277 37.294V40.908C145.277 40.986 145.277 41.077 145.277 41.181C145.286 41.2763 145.29 41.376 145.29 41.48C145.299 41.584 145.308 41.6837 145.316 41.779C145.325 41.8657 145.334 41.9393 145.342 42H144.289C144.272 41.8787 144.25 41.7097 144.224 41.493C144.207 41.2677 144.198 41.0727 144.198 40.908V40.882ZM150.104 42.13C149.61 42.13 149.155 42.052 148.739 41.896C148.323 41.74 147.963 41.5147 147.66 41.22C147.365 40.9167 147.136 40.5527 146.971 40.128C146.806 39.6947 146.724 39.2007 146.724 38.646C146.724 38.1 146.806 37.6103 146.971 37.177C147.144 36.735 147.383 36.3623 147.686 36.059C147.989 35.7557 148.345 35.526 148.752 35.37C149.168 35.2053 149.619 35.123 150.104 35.123C150.511 35.123 150.888 35.1663 151.235 35.253C151.59 35.3397 151.885 35.4697 152.119 35.643L151.833 36.631C151.616 36.5097 151.369 36.397 151.092 36.293C150.815 36.189 150.49 36.137 150.117 36.137C149.441 36.137 148.899 36.345 148.492 36.761C148.093 37.177 147.894 37.8053 147.894 38.646C147.894 39.4347 148.093 40.0413 148.492 40.466C148.891 40.8907 149.428 41.103 150.104 41.103C150.433 41.103 150.732 41.0597 151.001 40.973C151.27 40.8863 151.525 40.7737 151.768 40.635L152.041 41.584C151.798 41.7573 151.521 41.8917 151.209 41.987C150.897 42.0823 150.529 42.13 150.104 42.13ZM156.515 42.13C156.021 42.13 155.566 42.052 155.15 41.896C154.734 41.74 154.375 41.5147 154.071 41.22C153.777 40.9167 153.547 40.5527 153.382 40.128C153.218 39.6947 153.135 39.2007 153.135 38.646C153.135 38.1 153.218 37.6103 153.382 37.177C153.556 36.735 153.794 36.3623 154.097 36.059C154.401 35.7557 154.756 35.526 155.163 35.37C155.579 35.2053 156.03 35.123 156.515 35.123C156.923 35.123 157.3 35.1663 157.646 35.253C158.002 35.3397 158.296 35.4697 158.53 35.643L158.244 36.631C158.028 36.5097 157.781 36.397 157.503 36.293C157.226 36.189 156.901 36.137 156.528 36.137C155.852 36.137 155.311 36.345 154.903 36.761C154.505 37.177 154.305 37.8053 154.305 38.646C154.305 39.4347 154.505 40.0413 154.903 40.466C155.302 40.8907 155.839 41.103 156.515 41.103C156.845 41.103 157.144 41.0597 157.412 40.973C157.681 40.8863 157.937 40.7737 158.179 40.635L158.452 41.584C158.21 41.7573 157.932 41.8917 157.62 41.987C157.308 42.0823 156.94 42.13 156.515 42.13ZM160.027 35.253H161.171V40.44L164.772 35.253H165.929V42H164.785V36.826L161.197 42H160.027V35.253ZM170.836 42.13C170.342 42.13 169.887 42.052 169.471 41.896C169.055 41.74 168.695 41.5147 168.392 41.22C168.097 40.9167 167.867 40.5527 167.703 40.128C167.538 39.6947 167.456 39.2007 167.456 38.646C167.456 38.1 167.538 37.6103 167.703 37.177C167.876 36.735 168.114 36.3623 168.418 36.059C168.721 35.7557 169.076 35.526 169.484 35.37C169.9 35.2053 170.35 35.123 170.836 35.123C171.243 35.123 171.62 35.1663 171.967 35.253C172.322 35.3397 172.617 35.4697 172.851 35.643L172.565 36.631C172.348 36.5097 172.101 36.397 171.824 36.293C171.546 36.189 171.221 36.137 170.849 36.137C170.173 36.137 169.631 36.345 169.224 36.761C168.825 37.177 168.626 37.8053 168.626 38.646C168.626 39.4347 168.825 40.0413 169.224 40.466C169.622 40.8907 170.16 41.103 170.836 41.103C171.165 41.103 171.464 41.0597 171.733 40.973C172.001 40.8863 172.257 40.7737 172.5 40.635L172.773 41.584C172.53 41.7573 172.253 41.8917 171.941 41.987C171.629 42.0823 171.26 42.13 170.836 42.13ZM177 36.228V42H175.856V36.228H173.802V35.253H179.093V36.228H177ZM183.057 36.137C182.554 36.137 182.125 36.2887 181.77 36.592C181.414 36.8953 181.189 37.3547 181.094 37.97H184.721C184.738 37.658 184.708 37.3893 184.63 37.164C184.552 36.93 184.439 36.7393 184.292 36.592C184.144 36.436 183.962 36.3233 183.746 36.254C183.538 36.176 183.308 36.137 183.057 36.137ZM185.748 41.428C185.652 41.4973 185.531 41.571 185.384 41.649C185.245 41.727 185.076 41.805 184.877 41.883C184.677 41.9523 184.448 42.0087 184.188 42.052C183.936 42.104 183.655 42.13 183.343 42.13C182.207 42.13 181.345 41.8223 180.756 41.207C180.166 40.5917 179.872 39.7293 179.872 38.62C179.872 38.074 179.95 37.5843 180.106 37.151C180.27 36.7177 180.496 36.3537 180.782 36.059C181.068 35.7557 181.406 35.526 181.796 35.37C182.194 35.2053 182.623 35.123 183.083 35.123C183.559 35.123 183.988 35.2053 184.37 35.37C184.751 35.5347 185.063 35.7773 185.306 36.098C185.557 36.4187 185.726 36.8173 185.813 37.294C185.908 37.762 185.908 38.308 185.813 38.932H181.055C181.098 39.66 181.319 40.206 181.718 40.57C182.116 40.9253 182.68 41.103 183.408 41.103C183.884 41.103 184.287 41.0293 184.617 40.882C184.946 40.726 185.223 40.57 185.449 40.414L185.748 41.428ZM191.818 39.01H188.555V42H187.411V35.253H188.555V38.035H191.818V35.253H192.962V42H191.818V39.01ZM197.617 36.228V42H196.473V36.228H194.419V35.253H199.71V36.228H197.617ZM207.101 33.667L205.593 38.256H208.622L207.101 33.667ZM208.973 39.335H205.242L204.358 42H203.214L206.269 32.692H208.089L211.157 42H209.857L208.973 39.335ZM214.057 40.258C213.91 40.8733 213.672 41.3283 213.342 41.623C213.022 41.909 212.571 42.0433 211.99 42.026L211.821 40.986C212.419 41.012 212.805 40.6913 212.978 40.024C213.108 39.5213 213.191 38.8887 213.225 38.126C213.269 37.3547 213.29 36.397 213.29 35.253H217.684V42H216.54V36.228H214.369C214.361 37.086 214.335 37.8487 214.291 38.516C214.257 39.1833 214.179 39.764 214.057 40.258ZM219.683 35.253H220.827V40.44L224.428 35.253H225.585V42H224.441V36.826L220.853 42H219.683V35.253ZM230.491 42.13C229.997 42.13 229.542 42.052 229.126 41.896C228.71 41.74 228.35 41.5147 228.047 41.22C227.752 40.9167 227.522 40.5527 227.358 40.128C227.193 39.6947 227.111 39.2007 227.111 38.646C227.111 38.1 227.193 37.6103 227.358 37.177C227.531 36.735 227.769 36.3623 228.073 36.059C228.376 35.7557 228.731 35.526 229.139 35.37C229.555 35.2053 230.005 35.123 230.491 35.123C230.898 35.123 231.275 35.1663 231.622 35.253C231.977 35.3397 232.272 35.4697 232.506 35.643L232.22 36.631C232.003 36.5097 231.756 36.397 231.479 36.293C231.201 36.189 230.876 36.137 230.504 36.137C229.828 36.137 229.286 36.345 228.879 36.761C228.48 37.177 228.281 37.8053 228.281 38.646C228.281 39.4347 228.48 40.0413 228.879 40.466C229.277 40.8907 229.815 41.103 230.491 41.103C230.82 41.103 231.119 41.0597 231.388 40.973C231.656 40.8863 231.912 40.7737 232.155 40.635L232.428 41.584C232.185 41.7573 231.908 41.8917 231.596 41.987C231.284 42.0823 230.915 42.13 230.491 42.13ZM235.849 41.103C236.092 41.103 236.313 41.0683 236.512 40.999C236.72 40.9297 236.902 40.8387 237.058 40.726C237.223 40.6133 237.366 40.492 237.487 40.362C237.617 40.232 237.725 40.102 237.812 39.972V38.854H236.928C236.113 38.854 235.541 38.9623 235.212 39.179C234.883 39.387 234.718 39.686 234.718 40.076C234.718 40.3793 234.809 40.6263 234.991 40.817C235.173 41.0077 235.459 41.103 235.849 41.103ZM237.877 40.882C237.782 41.0293 237.665 41.181 237.526 41.337C237.396 41.4843 237.236 41.6187 237.045 41.74C236.863 41.8527 236.651 41.9437 236.408 42.013C236.165 42.091 235.897 42.13 235.602 42.13C234.995 42.13 234.506 41.961 234.133 41.623C233.76 41.2763 233.574 40.7823 233.574 40.141C233.574 38.6763 234.657 37.944 236.824 37.944H237.812V37.437C237.812 36.969 237.686 36.6353 237.435 36.436C237.192 36.2367 236.785 36.137 236.213 36.137C235.771 36.137 235.377 36.1933 235.03 36.306C234.692 36.4187 234.397 36.5487 234.146 36.696L233.873 35.747C234.107 35.5997 234.432 35.461 234.848 35.331C235.264 35.1923 235.745 35.123 236.291 35.123C237.158 35.123 237.816 35.3007 238.267 35.656C238.726 36.0113 238.956 36.5573 238.956 37.294V40.908C238.956 40.986 238.956 41.077 238.956 41.181C238.965 41.2763 238.969 41.376 238.969 41.48C238.978 41.584 238.986 41.6837 238.995 41.779C239.004 41.8657 239.012 41.9393 239.021 42H237.968C237.951 41.8787 237.929 41.7097 237.903 41.493C237.886 41.2677 237.877 41.0727 237.877 40.908V40.882Z" fill="#21201F"/>
</svg>
