<svg width="345" height="57" viewBox="0 0 345 57" fill="none" xmlns="http://www.w3.org/2000/svg">
<path d="M28.249 13.832C36.3492 13.832 42.916 20.3988 42.916 28.499C42.9159 36.5991 36.3491 43.165 28.249 43.165C20.1489 43.165 13.5822 36.5991 13.582 28.499C13.582 20.3988 20.1488 13.832 28.249 13.832ZM34.4756 20.249C34.4623 20.263 31.9086 22.9395 28.249 22.9395C24.5894 22.9395 22.0357 20.2629 22.0225 20.249L19.999 22.2725C20.0121 22.2846 22.6895 24.7723 22.6895 28.499C22.6893 32.2347 19.999 34.7256 19.999 34.7256L22.0225 36.749C22.0225 36.749 24.5576 34.0576 28.249 34.0576C31.9404 34.0576 34.4756 36.749 34.4756 36.749L36.499 34.7256C36.499 34.7256 33.8087 32.2347 33.8086 28.499C33.8086 24.7723 36.4859 22.2846 36.499 22.2725L34.4756 20.249Z" fill="#21201F"/>
<path d="M63.179 14.797H58.642V23H57.407V13.692H64.414V23H63.179V14.797ZM69.7807 22.103C70.3787 22.103 70.8597 21.8993 71.2237 21.492C71.5963 21.076 71.7827 20.452 71.7827 19.62C71.7827 18.8053 71.5963 18.19 71.2237 17.774C70.8597 17.3493 70.3787 17.137 69.7807 17.137C69.486 17.137 69.2087 17.189 68.9487 17.293C68.6973 17.397 68.4763 17.553 68.2857 17.761C68.1037 17.9603 67.9563 18.216 67.8437 18.528C67.7397 18.84 67.6877 19.204 67.6877 19.62C67.6877 20.036 67.7397 20.4 67.8437 20.712C67.9563 21.024 68.1037 21.284 68.2857 21.492C68.4763 21.7 68.6973 21.856 68.9487 21.96C69.2087 22.0553 69.486 22.103 69.7807 22.103ZM69.9497 23.13C69.4297 23.13 68.979 23.0087 68.5977 22.766C68.225 22.5233 67.926 22.1897 67.7007 21.765V25.301H66.5567V16.253H67.5707L67.6747 17.579C67.9 17.137 68.2033 16.786 68.5847 16.526C68.966 16.2573 69.4383 16.123 70.0017 16.123C70.3917 16.123 70.7643 16.1967 71.1197 16.344C71.4837 16.4827 71.8 16.6993 72.0687 16.994C72.346 17.28 72.5627 17.644 72.7187 18.086C72.8833 18.5193 72.9657 19.0307 72.9657 19.62C72.9657 20.218 72.8833 20.738 72.7187 21.18C72.554 21.6133 72.333 21.9773 72.0557 22.272C71.7783 22.558 71.4577 22.7747 71.0937 22.922C70.7297 23.0607 70.3483 23.13 69.9497 23.13ZM74.5166 16.253H75.6606V21.44L79.2616 16.253H80.4186V23H79.2746V17.826L75.6866 23H74.5166V16.253ZM85.1948 23.13C84.7355 23.13 84.3065 23.052 83.9078 22.896C83.5091 22.74 83.1625 22.5147 82.8678 22.22C82.5818 21.9167 82.3565 21.5483 82.1918 21.115C82.0271 20.6817 81.9448 20.1833 81.9448 19.62C81.9448 19.0653 82.0271 18.5713 82.1918 18.138C82.3565 17.696 82.5818 17.3277 82.8678 17.033C83.1625 16.7383 83.5091 16.513 83.9078 16.357C84.3065 16.201 84.7355 16.123 85.1948 16.123C85.6628 16.123 86.0961 16.201 86.4948 16.357C86.8935 16.513 87.2358 16.7383 87.5218 17.033C87.8165 17.3277 88.0461 17.696 88.2108 18.138C88.3841 18.5713 88.4708 19.0653 88.4708 19.62C88.4708 20.1833 88.3841 20.6817 88.2108 21.115C88.0461 21.5483 87.8165 21.9167 87.5218 22.22C87.2358 22.5147 86.8935 22.74 86.4948 22.896C86.0961 23.052 85.6628 23.13 85.1948 23.13ZM85.1948 22.103C85.4981 22.103 85.7798 22.0553 86.0398 21.96C86.2998 21.856 86.5208 21.7043 86.7028 21.505C86.8935 21.297 87.0408 21.037 87.1448 20.725C87.2575 20.413 87.3138 20.0447 87.3138 19.62C87.3138 19.1953 87.2575 18.827 87.1448 18.515C87.0408 18.203 86.8935 17.9473 86.7028 17.748C86.5208 17.54 86.2998 17.3883 86.0398 17.293C85.7798 17.189 85.4981 17.137 85.1948 17.137C84.8915 17.137 84.6141 17.189 84.3628 17.293C84.1115 17.3883 83.8905 17.54 83.6998 17.748C83.5178 17.9473 83.3748 18.203 83.2708 18.515C83.1668 18.827 83.1148 19.1953 83.1148 19.62C83.1148 20.0447 83.1668 20.413 83.2708 20.725C83.3748 21.037 83.5178 21.297 83.6998 21.505C83.8905 21.7043 84.1115 21.856 84.3628 21.96C84.6141 22.0553 84.8915 22.103 85.1948 22.103ZM93.2162 22.103C93.8142 22.103 94.2952 21.8993 94.6592 21.492C95.0319 21.076 95.2182 20.452 95.2182 19.62C95.2182 18.8053 95.0319 18.19 94.6592 17.774C94.2952 17.3493 93.8142 17.137 93.2162 17.137C92.9215 17.137 92.6442 17.189 92.3842 17.293C92.1329 17.397 91.9119 17.553 91.7212 17.761C91.5392 17.9603 91.3919 18.216 91.2792 18.528C91.1752 18.84 91.1232 19.204 91.1232 19.62C91.1232 20.036 91.1752 20.4 91.2792 20.712C91.3919 21.024 91.5392 21.284 91.7212 21.492C91.9119 21.7 92.1329 21.856 92.3842 21.96C92.6442 22.0553 92.9215 22.103 93.2162 22.103ZM93.3852 23.13C92.8652 23.13 92.4145 23.0087 92.0332 22.766C91.6605 22.5233 91.3615 22.1897 91.1362 21.765V25.301H89.9922V16.253H91.0062L91.1102 17.579C91.3355 17.137 91.6389 16.786 92.0202 16.526C92.4015 16.2573 92.8739 16.123 93.4372 16.123C93.8272 16.123 94.1999 16.1967 94.5552 16.344C94.9192 16.4827 95.2355 16.6993 95.5042 16.994C95.7815 17.28 95.9982 17.644 96.1542 18.086C96.3189 18.5193 96.4012 19.0307 96.4012 19.62C96.4012 20.218 96.3189 20.738 96.1542 21.18C95.9895 21.6133 95.7685 21.9773 95.4912 22.272C95.2139 22.558 94.8932 22.7747 94.5292 22.922C94.1652 23.0607 93.7839 23.13 93.3852 23.13ZM97.9522 16.253H99.0962V21.44L102.697 16.253H103.854V23H102.71V17.826L99.1222 23H97.9522V16.253ZM108.513 17.228V23H107.369V17.228H105.315V16.253H110.606V17.228H108.513ZM114.57 17.137C114.068 17.137 113.639 17.2887 113.283 17.592C112.928 17.8953 112.703 18.3547 112.607 18.97H116.234C116.252 18.658 116.221 18.3893 116.143 18.164C116.065 17.93 115.953 17.7393 115.805 17.592C115.658 17.436 115.476 17.3233 115.259 17.254C115.051 17.176 114.822 17.137 114.57 17.137ZM117.261 22.428C117.166 22.4973 117.045 22.571 116.897 22.649C116.759 22.727 116.59 22.805 116.39 22.883C116.191 22.9523 115.961 23.0087 115.701 23.052C115.45 23.104 115.168 23.13 114.856 23.13C113.721 23.13 112.859 22.8223 112.269 22.207C111.68 21.5917 111.385 20.7293 111.385 19.62C111.385 19.074 111.463 18.5843 111.619 18.151C111.784 17.7177 112.009 17.3537 112.295 17.059C112.581 16.7557 112.919 16.526 113.309 16.37C113.708 16.2053 114.137 16.123 114.596 16.123C115.073 16.123 115.502 16.2053 115.883 16.37C116.265 16.5347 116.577 16.7773 116.819 17.098C117.071 17.4187 117.24 17.8173 117.326 18.294C117.422 18.762 117.422 19.308 117.326 19.932H112.568C112.612 20.66 112.833 21.206 113.231 21.57C113.63 21.9253 114.193 22.103 114.921 22.103C115.398 22.103 115.801 22.0293 116.13 21.882C116.46 21.726 116.737 21.57 116.962 21.414L117.261 22.428ZM121.513 17.228V23H120.369V17.228H118.315V16.253H123.606V17.228H121.513Z" fill="black"/>
<path d="M128.25 16L131.75 19.5L128.25 23" stroke="black" stroke-width="1.25" stroke-linecap="round"/>
<path d="M60.79 43.2C59.8167 43.2 59.0233 43.1133 58.41 42.94C57.81 42.7667 57.3033 42.56 56.89 42.32L57.51 39.9C57.67 39.9933 57.8633 40.0933 58.09 40.2C58.3167 40.3067 58.5633 40.4067 58.83 40.5C59.11 40.58 59.4033 40.6467 59.71 40.7C60.03 40.7533 60.35 40.78 60.67 40.78C61.5633 40.78 62.25 40.5533 62.73 40.1C63.2233 39.6467 63.47 39.06 63.47 38.34C63.47 38.0333 63.43 37.7467 63.35 37.48C63.2833 37.2133 63.1633 36.98 62.99 36.78C62.83 36.58 62.61 36.42 62.33 36.3C62.0633 36.18 61.73 36.12 61.33 36.12C60.89 36.12 60.5167 36.1933 60.21 36.34C59.9033 36.4733 59.6767 36.64 59.53 36.84H57.23V28.68H66.03V31.18H59.97V34.38C60.21 34.1933 60.5167 34.04 60.89 33.92C61.2633 33.7867 61.7233 33.72 62.27 33.72C63.6833 33.72 64.77 34.1267 65.53 34.94C66.29 35.74 66.67 36.8267 66.67 38.2C66.67 38.9333 66.53 39.6067 66.25 40.22C65.97 40.8333 65.57 41.36 65.05 41.8C64.53 42.24 63.91 42.5867 63.19 42.84C62.47 43.08 61.67 43.2 60.79 43.2ZM67.5908 43V40.14C68.8441 39.2467 69.8841 38.46 70.7108 37.78C71.5508 37.0867 72.2174 36.4667 72.7108 35.92C73.2041 35.36 73.5508 34.8533 73.7508 34.4C73.9641 33.9333 74.0708 33.4867 74.0708 33.06C74.0708 32.38 73.8641 31.8533 73.4508 31.48C73.0374 31.0933 72.3974 30.9 71.5308 30.9C70.8241 30.9 70.1974 31 69.6508 31.2C69.1041 31.3867 68.6574 31.6133 68.3108 31.88L67.9108 29.46C68.3108 29.22 68.8241 29 69.4508 28.8C70.0774 28.5867 70.8841 28.48 71.8708 28.48C73.5908 28.48 74.9174 28.8733 75.8508 29.66C76.7974 30.4467 77.2708 31.56 77.2708 33C77.2708 33.64 77.1374 34.2467 76.8708 34.82C76.6174 35.38 76.2241 35.9533 75.6908 36.54C75.1708 37.1267 74.4974 37.74 73.6708 38.38C72.8574 39.02 71.8908 39.7267 70.7708 40.5H77.1508V43H67.5908ZM81.3141 45.4L87.4541 27.88H89.9941L83.8341 45.4H81.3141ZM96.9188 43V31.94L93.9988 34.88V31.94L97.2388 28.68H100.019V43H96.9188ZM108.393 43.2C107.54 43.2 106.747 43.04 106.013 42.72C105.28 42.4 104.64 41.9333 104.093 41.32C103.56 40.6933 103.133 39.92 102.813 39C102.507 38.08 102.353 37.02 102.353 35.82C102.353 34.62 102.507 33.56 102.813 32.64C103.133 31.72 103.56 30.9533 104.093 30.34C104.64 29.7267 105.28 29.2667 106.013 28.96C106.747 28.64 107.54 28.48 108.393 28.48C109.247 28.48 110.04 28.64 110.773 28.96C111.507 29.2667 112.14 29.7267 112.673 30.34C113.22 30.94 113.647 31.7 113.953 32.62C114.26 33.5267 114.413 34.58 114.413 35.78C114.413 36.98 114.26 38.04 113.953 38.96C113.647 39.88 113.22 40.6533 112.673 41.28C112.14 41.9067 111.507 42.3867 110.773 42.72C110.04 43.04 109.247 43.2 108.393 43.2ZM108.373 40.78C108.787 40.78 109.167 40.6933 109.513 40.52C109.873 40.3333 110.18 40.0467 110.433 39.66C110.687 39.26 110.88 38.7467 111.013 38.12C111.16 37.4933 111.233 36.7333 111.233 35.84C111.233 34.9467 111.16 34.1867 111.013 33.56C110.88 32.9333 110.687 32.4267 110.433 32.04C110.18 31.64 109.88 31.3533 109.533 31.18C109.187 30.9933 108.807 30.9 108.393 30.9C107.98 30.9 107.6 30.9933 107.253 31.18C106.907 31.3533 106.607 31.64 106.353 32.04C106.1 32.4267 105.9 32.9333 105.753 33.56C105.607 34.1867 105.533 34.9467 105.533 35.84C105.533 36.7333 105.607 37.4933 105.753 38.12C105.9 38.7467 106.1 39.26 106.353 39.66C106.607 40.0467 106.907 40.3333 107.253 40.52C107.6 40.6933 107.973 40.78 108.373 40.78ZM121.807 43.2C120.953 43.2 120.16 43.04 119.427 42.72C118.693 42.4 118.053 41.9333 117.507 41.32C116.973 40.6933 116.547 39.92 116.227 39C115.92 38.08 115.767 37.02 115.767 35.82C115.767 34.62 115.92 33.56 116.227 32.64C116.547 31.72 116.973 30.9533 117.507 30.34C118.053 29.7267 118.693 29.2667 119.427 28.96C120.16 28.64 120.953 28.48 121.807 28.48C122.66 28.48 123.453 28.64 124.187 28.96C124.92 29.2667 125.553 29.7267 126.087 30.34C126.633 30.94 127.06 31.7 127.367 32.62C127.673 33.5267 127.827 34.58 127.827 35.78C127.827 36.98 127.673 38.04 127.367 38.96C127.06 39.88 126.633 40.6533 126.087 41.28C125.553 41.9067 124.92 42.3867 124.187 42.72C123.453 43.04 122.66 43.2 121.807 43.2ZM121.787 40.78C122.2 40.78 122.58 40.6933 122.927 40.52C123.287 40.3333 123.593 40.0467 123.847 39.66C124.1 39.26 124.293 38.7467 124.427 38.12C124.573 37.4933 124.647 36.7333 124.647 35.84C124.647 34.9467 124.573 34.1867 124.427 33.56C124.293 32.9333 124.1 32.4267 123.847 32.04C123.593 31.64 123.293 31.3533 122.947 31.18C122.6 30.9933 122.22 30.9 121.807 30.9C121.393 30.9 121.013 30.9933 120.667 31.18C120.32 31.3533 120.02 31.64 119.767 32.04C119.513 32.4267 119.313 32.9333 119.167 33.56C119.02 34.1867 118.947 34.9467 118.947 35.84C118.947 36.7333 119.02 37.4933 119.167 38.12C119.313 38.7467 119.513 39.26 119.767 39.66C120.02 40.0467 120.32 40.3333 120.667 40.52C121.013 40.6933 121.387 40.78 121.787 40.78Z" fill="black"/>
<rect width="0.5" height="40" transform="translate(172.25 8.5)" fill="#8A8784" fill-opacity="0.4"/>
<path d="M199.824 21.1254C199.418 22.1055 199.418 23.348 199.418 25.833V31.1663C199.418 33.6514 199.418 34.8939 199.824 35.874C200.365 37.1808 201.404 38.2191 202.71 38.7604C203.69 39.1663 204.933 39.1663 207.418 39.1663H218.085C220.57 39.1663 221.812 39.1663 222.792 38.7604C224.099 38.2191 225.137 37.1808 225.679 35.874C225.904 35.3302 226.004 34.7057 226.049 33.833H218.085C215.875 33.833 214.085 32.0421 214.085 29.833V27.1663C214.085 24.9572 215.875 23.1663 218.085 23.1663H226.049C226.004 22.2937 225.904 21.6691 225.679 21.1254C225.137 19.8185 224.099 18.7803 222.792 18.239C221.812 17.833 220.57 17.833 218.085 17.833H207.418C204.933 17.833 203.69 17.833 202.71 18.239C201.404 18.7803 200.365 19.8185 199.824 21.1254Z" fill="#21201F"/>
<path d="M226.085 25.833H218.085C217.348 25.833 216.751 26.43 216.751 27.1663V29.833C216.751 30.5694 217.348 31.1663 218.085 31.1663H226.085V25.833Z" fill="#21201F"/>
<path d="M242.141 23L246.119 14.797H241.348V13.692H247.367V14.732L243.415 23H242.141ZM253.355 23.13C252.861 23.13 252.428 23.078 252.055 22.974C251.691 22.8613 251.401 22.727 251.184 22.571L251.535 21.583C251.761 21.7217 252.021 21.843 252.315 21.947C252.61 22.051 252.948 22.103 253.329 22.103C253.563 22.103 253.78 22.0857 253.979 22.051C254.179 22.0077 254.352 21.947 254.499 21.869C254.655 21.7823 254.777 21.674 254.863 21.544C254.95 21.4053 254.993 21.2363 254.993 21.037C254.993 20.6557 254.863 20.387 254.603 20.231C254.352 20.0663 253.953 19.984 253.407 19.984H252.51V19.061H253.446C254.339 19.061 254.785 18.7273 254.785 18.06C254.785 17.8867 254.746 17.7437 254.668 17.631C254.599 17.5097 254.499 17.4143 254.369 17.345C254.248 17.267 254.105 17.215 253.94 17.189C253.776 17.1543 253.602 17.137 253.42 17.137C253.039 17.137 252.701 17.189 252.406 17.293C252.12 17.397 251.852 17.5227 251.6 17.67L251.327 16.721C251.544 16.5737 251.83 16.4393 252.185 16.318C252.549 16.188 252.974 16.123 253.459 16.123C254.248 16.123 254.842 16.279 255.24 16.591C255.639 16.903 255.838 17.3537 255.838 17.943C255.838 18.3937 255.717 18.7447 255.474 18.996C255.232 19.2473 254.902 19.412 254.486 19.49C255.561 19.62 256.098 20.1357 256.098 21.037C256.098 21.4183 256.02 21.7433 255.864 22.012C255.717 22.272 255.513 22.4887 255.253 22.662C255.002 22.8267 254.712 22.9437 254.382 23.013C254.053 23.091 253.711 23.13 253.355 23.13ZM259.58 22.103C259.823 22.103 260.044 22.0683 260.243 21.999C260.451 21.9297 260.633 21.8387 260.789 21.726C260.954 21.6133 261.097 21.492 261.218 21.362C261.348 21.232 261.457 21.102 261.543 20.972V19.854H260.659C259.845 19.854 259.273 19.9623 258.943 20.179C258.614 20.387 258.449 20.686 258.449 21.076C258.449 21.3793 258.54 21.6263 258.722 21.817C258.904 22.0077 259.19 22.103 259.58 22.103ZM261.608 21.882C261.513 22.0293 261.396 22.181 261.257 22.337C261.127 22.4843 260.967 22.6187 260.776 22.74C260.594 22.8527 260.382 22.9437 260.139 23.013C259.897 23.091 259.628 23.13 259.333 23.13C258.727 23.13 258.237 22.961 257.864 22.623C257.492 22.2763 257.305 21.7823 257.305 21.141C257.305 19.6763 258.389 18.944 260.555 18.944H261.543V18.437C261.543 17.969 261.418 17.6353 261.166 17.436C260.924 17.2367 260.516 17.137 259.944 17.137C259.502 17.137 259.108 17.1933 258.761 17.306C258.423 17.4187 258.129 17.5487 257.877 17.696L257.604 16.747C257.838 16.5997 258.163 16.461 258.579 16.331C258.995 16.1923 259.476 16.123 260.022 16.123C260.889 16.123 261.548 16.3007 261.998 16.656C262.458 17.0113 262.687 17.5573 262.687 18.294V21.908C262.687 21.986 262.687 22.077 262.687 22.181C262.696 22.2763 262.7 22.376 262.7 22.48C262.709 22.584 262.718 22.6837 262.726 22.779C262.735 22.8657 262.744 22.9393 262.752 23H261.699C261.682 22.8787 261.66 22.7097 261.634 22.493C261.617 22.2677 261.608 22.0727 261.608 21.908V21.882ZM266.357 20.127H265.759V23H264.615V16.253H265.759V19.152H266.409L268.775 16.253H270.075L267.306 19.581L270.127 23H268.736L266.357 20.127ZM273.076 22.103C273.318 22.103 273.539 22.0683 273.739 21.999C273.947 21.9297 274.129 21.8387 274.285 21.726C274.449 21.6133 274.592 21.492 274.714 21.362C274.844 21.232 274.952 21.102 275.039 20.972V19.854H274.155C273.34 19.854 272.768 19.9623 272.439 20.179C272.109 20.387 271.945 20.686 271.945 21.076C271.945 21.3793 272.036 21.6263 272.218 21.817C272.4 22.0077 272.686 22.103 273.076 22.103ZM275.104 21.882C275.008 22.0293 274.891 22.181 274.753 22.337C274.623 22.4843 274.462 22.6187 274.272 22.74C274.09 22.8527 273.877 22.9437 273.635 23.013C273.392 23.091 273.123 23.13 272.829 23.13C272.222 23.13 271.732 22.961 271.36 22.623C270.987 22.2763 270.801 21.7823 270.801 21.141C270.801 19.6763 271.884 18.944 274.051 18.944H275.039V18.437C275.039 17.969 274.913 17.6353 274.662 17.436C274.419 17.2367 274.012 17.137 273.44 17.137C272.998 17.137 272.603 17.1933 272.257 17.306C271.919 17.4187 271.624 17.5487 271.373 17.696L271.1 16.747C271.334 16.5997 271.659 16.461 272.075 16.331C272.491 16.1923 272.972 16.123 273.518 16.123C274.384 16.123 275.043 16.3007 275.494 16.656C275.953 17.0113 276.183 17.5573 276.183 18.294V21.908C276.183 21.986 276.183 22.077 276.183 22.181C276.191 22.2763 276.196 22.376 276.196 22.48C276.204 22.584 276.213 22.6837 276.222 22.779C276.23 22.8657 276.239 22.9393 276.248 23H275.195C275.177 22.8787 275.156 22.7097 275.13 22.493C275.112 22.2677 275.104 22.0727 275.104 21.908V21.882ZM279.774 23.13C279.28 23.13 278.847 23.078 278.474 22.974C278.11 22.8613 277.82 22.727 277.603 22.571L277.954 21.583C278.18 21.7217 278.44 21.843 278.734 21.947C279.029 22.051 279.367 22.103 279.748 22.103C279.982 22.103 280.199 22.0857 280.398 22.051C280.598 22.0077 280.771 21.947 280.918 21.869C281.074 21.7823 281.196 21.674 281.282 21.544C281.369 21.4053 281.412 21.2363 281.412 21.037C281.412 20.6557 281.282 20.387 281.022 20.231C280.771 20.0663 280.372 19.984 279.826 19.984H278.929V19.061H279.865C280.758 19.061 281.204 18.7273 281.204 18.06C281.204 17.8867 281.165 17.7437 281.087 17.631C281.018 17.5097 280.918 17.4143 280.788 17.345C280.667 17.267 280.524 17.215 280.359 17.189C280.195 17.1543 280.021 17.137 279.839 17.137C279.458 17.137 279.12 17.189 278.825 17.293C278.539 17.397 278.271 17.5227 278.019 17.67L277.746 16.721C277.963 16.5737 278.249 16.4393 278.604 16.318C278.968 16.188 279.393 16.123 279.878 16.123C280.667 16.123 281.261 16.279 281.659 16.591C282.058 16.903 282.257 17.3537 282.257 17.943C282.257 18.3937 282.136 18.7447 281.893 18.996C281.651 19.2473 281.321 19.412 280.905 19.49C281.98 19.62 282.517 20.1357 282.517 21.037C282.517 21.4183 282.439 21.7433 282.283 22.012C282.136 22.272 281.932 22.4887 281.672 22.662C281.421 22.8267 281.131 22.9437 280.801 23.013C280.472 23.091 280.13 23.13 279.774 23.13ZM286.922 23.13C286.463 23.13 286.034 23.052 285.635 22.896C285.237 22.74 284.89 22.5147 284.595 22.22C284.309 21.9167 284.084 21.5483 283.919 21.115C283.755 20.6817 283.672 20.1833 283.672 19.62C283.672 19.0653 283.755 18.5713 283.919 18.138C284.084 17.696 284.309 17.3277 284.595 17.033C284.89 16.7383 285.237 16.513 285.635 16.357C286.034 16.201 286.463 16.123 286.922 16.123C287.39 16.123 287.824 16.201 288.222 16.357C288.621 16.513 288.963 16.7383 289.249 17.033C289.544 17.3277 289.774 17.696 289.938 18.138C290.112 18.5713 290.198 19.0653 290.198 19.62C290.198 20.1833 290.112 20.6817 289.938 21.115C289.774 21.5483 289.544 21.9167 289.249 22.22C288.963 22.5147 288.621 22.74 288.222 22.896C287.824 23.052 287.39 23.13 286.922 23.13ZM286.922 22.103C287.226 22.103 287.507 22.0553 287.767 21.96C288.027 21.856 288.248 21.7043 288.43 21.505C288.621 21.297 288.768 21.037 288.872 20.725C288.985 20.413 289.041 20.0447 289.041 19.62C289.041 19.1953 288.985 18.827 288.872 18.515C288.768 18.203 288.621 17.9473 288.43 17.748C288.248 17.54 288.027 17.3883 287.767 17.293C287.507 17.189 287.226 17.137 286.922 17.137C286.619 17.137 286.342 17.189 286.09 17.293C285.839 17.3883 285.618 17.54 285.427 17.748C285.245 17.9473 285.102 18.203 284.998 18.515C284.894 18.827 284.842 19.1953 284.842 19.62C284.842 20.0447 284.894 20.413 284.998 20.725C285.102 21.037 285.245 21.297 285.427 21.505C285.618 21.7043 285.839 21.856 286.09 21.96C286.342 22.0553 286.619 22.103 286.922 22.103ZM292.864 17.228V19.061H294.138C294.571 19.061 294.918 18.983 295.178 18.827C295.446 18.671 295.581 18.4457 295.581 18.151C295.581 17.7957 295.464 17.553 295.23 17.423C294.996 17.293 294.662 17.228 294.229 17.228H292.864ZM292.864 19.971V22.025H294.203C294.445 22.025 294.662 22.012 294.853 21.986C295.052 21.9513 295.221 21.895 295.36 21.817C295.507 21.739 295.62 21.635 295.698 21.505C295.776 21.375 295.815 21.2147 295.815 21.024C295.815 20.634 295.68 20.361 295.412 20.205C295.152 20.049 294.749 19.971 294.203 19.971H292.864ZM291.72 16.253H294.242C295.056 16.253 295.672 16.396 296.088 16.682C296.504 16.9593 296.712 17.397 296.712 17.995C296.712 18.3937 296.612 18.7143 296.413 18.957C296.213 19.191 295.923 19.36 295.542 19.464C296.504 19.62 296.985 20.153 296.985 21.063C296.985 21.4097 296.915 21.7087 296.777 21.96C296.638 22.2027 296.447 22.402 296.205 22.558C295.962 22.714 295.667 22.8267 295.321 22.896C294.983 22.9653 294.614 23 294.216 23H291.72V16.253Z" fill="black"/>
<path d="M301.75 16L305.25 19.5L301.75 23" stroke="black" stroke-width="1.25" stroke-linecap="round"/>
<path d="M244.45 43V31.94L241.53 34.88V31.94L244.77 28.68H247.55V43H244.45ZM252.609 43V31.94L249.689 34.88V31.94L252.929 28.68H255.709V43H252.609ZM261.804 43.2C260.831 43.2 260.037 43.1133 259.424 42.94C258.824 42.7667 258.317 42.56 257.904 42.32L258.524 39.9C258.684 39.9933 258.877 40.0933 259.104 40.2C259.331 40.3067 259.577 40.4067 259.844 40.5C260.124 40.58 260.417 40.6467 260.724 40.7C261.044 40.7533 261.364 40.78 261.684 40.78C262.577 40.78 263.264 40.5533 263.744 40.1C264.237 39.6467 264.484 39.06 264.484 38.34C264.484 38.0333 264.444 37.7467 264.364 37.48C264.297 37.2133 264.177 36.98 264.004 36.78C263.844 36.58 263.624 36.42 263.344 36.3C263.077 36.18 262.744 36.12 262.344 36.12C261.904 36.12 261.531 36.1933 261.224 36.34C260.917 36.4733 260.691 36.64 260.544 36.84H258.244V28.68H267.044V31.18H260.984V34.38C261.224 34.1933 261.531 34.04 261.904 33.92C262.277 33.7867 262.737 33.72 263.284 33.72C264.697 33.72 265.784 34.1267 266.544 34.94C267.304 35.74 267.684 36.8267 267.684 38.2C267.684 38.9333 267.544 39.6067 267.264 40.22C266.984 40.8333 266.584 41.36 266.064 41.8C265.544 42.24 264.924 42.5867 264.204 42.84C263.484 43.08 262.684 43.2 261.804 43.2ZM274.978 43.2C274.124 43.2 273.331 43.04 272.598 42.72C271.864 42.4 271.224 41.9333 270.678 41.32C270.144 40.6933 269.718 39.92 269.398 39C269.091 38.08 268.938 37.02 268.938 35.82C268.938 34.62 269.091 33.56 269.398 32.64C269.718 31.72 270.144 30.9533 270.678 30.34C271.224 29.7267 271.864 29.2667 272.598 28.96C273.331 28.64 274.124 28.48 274.978 28.48C275.831 28.48 276.624 28.64 277.358 28.96C278.091 29.2667 278.724 29.7267 279.258 30.34C279.804 30.94 280.231 31.7 280.538 32.62C280.844 33.5267 280.998 34.58 280.998 35.78C280.998 36.98 280.844 38.04 280.538 38.96C280.231 39.88 279.804 40.6533 279.258 41.28C278.724 41.9067 278.091 42.3867 277.358 42.72C276.624 43.04 275.831 43.2 274.978 43.2ZM274.958 40.78C275.371 40.78 275.751 40.6933 276.098 40.52C276.458 40.3333 276.764 40.0467 277.018 39.66C277.271 39.26 277.464 38.7467 277.598 38.12C277.744 37.4933 277.818 36.7333 277.818 35.84C277.818 34.9467 277.744 34.1867 277.598 33.56C277.464 32.9333 277.271 32.4267 277.018 32.04C276.764 31.64 276.464 31.3533 276.118 31.18C275.771 30.9933 275.391 30.9 274.978 30.9C274.564 30.9 274.184 30.9933 273.838 31.18C273.491 31.3533 273.191 31.64 272.938 32.04C272.684 32.4267 272.484 32.9333 272.338 33.56C272.191 34.1867 272.118 34.9467 272.118 35.84C272.118 36.7333 272.191 37.4933 272.338 38.12C272.484 38.7467 272.684 39.26 272.938 39.66C273.191 40.0467 273.491 40.3333 273.838 40.52C274.184 40.6933 274.558 40.78 274.958 40.78ZM290.104 31.08V35.18H290.904C291.504 35.18 291.984 35.0067 292.344 34.66C292.704 34.3133 292.884 33.7733 292.884 33.04C292.884 32.3067 292.711 31.8 292.364 31.52C292.017 31.2267 291.531 31.08 290.904 31.08H290.104ZM290.104 40.2V43H287.024V40.2H285.504V38.2H287.024V37.18H285.504V35.18H287.024V28.68H290.904C291.624 28.68 292.291 28.7667 292.904 28.94C293.517 29.1 294.044 29.3533 294.484 29.7C294.937 30.0467 295.291 30.4933 295.544 31.04C295.811 31.5867 295.944 32.24 295.944 33C295.944 33.76 295.811 34.4067 295.544 34.94C295.291 35.4733 294.937 35.9067 294.484 36.24C294.031 36.56 293.491 36.8 292.864 36.96C292.251 37.1067 291.584 37.18 290.864 37.18H290.104V38.2H293.804V40.2H290.104Z" fill="black"/>
</svg>
