<svg width="24" height="24" viewBox="0 0 24 24" fill="none" xmlns="http://www.w3.org/2000/svg">
<path fill-rule="evenodd" clip-rule="evenodd" d="M12 3C7.02944 3 3 7.02944 3 12C3 16.9706 7.02944 21 12 21C16.9706 21 21 16.9706 21 12C21 7.02944 16.9706 3 12 3ZM1 12C1 5.92487 5.92487 1 12 1C18.0751 1 23 5.92487 23 12C23 18.0751 18.0751 23 12 23C5.92487 23 1 18.0751 1 12ZM13.6 6.4C13.6 7.28366 12.8837 8 12 8C11.1163 8 10.4 7.28366 10.4 6.4C10.4 5.51634 11.1163 4.8 12 4.8C12.8837 4.8 13.6 5.51634 13.6 6.4ZM7.31224 8.04459C8.42748 8.2228 10.357 8.49013 11.9926 8.49013C13.658 8.49013 15.5725 8.2228 16.6878 8.0446C16.7224 8.03965 16.757 8.03305 16.7917 8.02646C16.8611 8.01325 16.9306 8.00004 17 8.00004C17.2825 8.00004 17.5948 8.23764 17.5948 8.65349C17.5948 8.96538 17.4015 9.2327 17.1041 9.30694C16.876 9.37986 15.9494 9.51987 15.1919 9.63434C14.7149 9.70642 14.3049 9.76837 14.1785 9.79707C13.8513 9.87132 13.7447 10.1386 13.7447 10.5396C13.7447 11.1337 13.847 12.3463 14 13.5C14.2178 15.1426 14.6206 17.4427 14.7346 18.0937C14.7502 18.1828 14.7604 18.241 14.764 18.2624C14.8829 18.708 14.6152 19.109 14.1692 19.109C13.8421 19.109 13.619 18.9308 13.5 18.5C13.4331 18.2068 13.3244 17.6826 13.2023 17.0935C12.9719 15.9819 12.6937 14.6395 12.5576 14.1832C12.3941 13.6783 12.2751 13.5 11.9926 13.5C11.7101 13.5 11.5762 13.6783 11.4424 14.1832C11.2821 14.6535 10.9978 16.0652 10.7702 17.1952C10.66 17.7426 10.5631 18.2238 10.5 18.5C10.3811 18.9308 10.158 19.109 9.8309 19.109C9.3848 19.109 9.10227 18.708 9.23608 18.2624C9.28069 18.0842 9.74666 15.3665 10 13.5C10.1566 12.3461 10.2888 11.1337 10.2888 10.5396C10.2739 10.1386 10.1487 9.85647 9.82161 9.79707C9.72846 9.78016 9.48133 9.74278 9.16687 9.69521C8.37684 9.57572 7.16181 9.39194 6.89591 9.30694C6.59851 9.23269 6.40518 8.96537 6.40518 8.65348C6.40518 8.23764 6.7026 8.00003 7 8.00003C7.06945 8.00003 7.1389 8.01325 7.20835 8.02646C7.24298 8.03305 7.27761 8.03964 7.31224 8.04459Z" fill="black"/>
</svg>
