<svg width="16" height="16" viewBox="0 0 16 16" fill="none" xmlns="http://www.w3.org/2000/svg">
<path fill-rule="evenodd" clip-rule="evenodd" d="M5.33203 11.9997H10.6654C11.3049 11.9997 11.7177 11.999 12.0337 11.9774C12.3377 11.9567 12.4535 11.9212 12.5089 11.8982C12.8356 11.7629 13.0952 11.5033 13.2305 11.1766C13.2535 11.1211 13.289 11.0053 13.3098 10.7013C13.3227 10.5117 13.3281 10.2872 13.3304 9.99967H2.667C2.66927 10.2872 2.67471 10.5117 2.68765 10.7013C2.70839 11.0053 2.74388 11.1211 2.76686 11.1766C2.90218 11.5033 3.16175 11.7629 3.48845 11.8982C3.54394 11.9212 3.65971 11.9567 3.96371 11.9774C4.27968 11.999 4.69253 11.9997 5.33203 11.9997ZM2.66536 8.66634V6.66634C2.66536 6.02684 2.66609 5.61399 2.68765 5.29802C2.70839 4.99402 2.74388 4.87825 2.76686 4.82276C2.90218 4.49606 3.16175 4.23649 3.48845 4.10117C3.54394 4.07819 3.65971 4.0427 3.96371 4.02196C4.27968 4.0004 4.69253 3.99967 5.33203 3.99967H10.6654C11.3049 3.99967 11.7177 4.0004 12.0337 4.02196C12.3377 4.0427 12.4535 4.07819 12.5089 4.10117C12.8356 4.23649 13.0952 4.49606 13.2305 4.82276C13.2535 4.87825 13.289 4.99402 13.3098 5.29802C13.3313 5.61399 13.332 6.02684 13.332 6.66634V8.66634H2.66536ZM1.33203 9.33301C1.33203 10.5755 1.33203 11.1968 1.53502 11.6868C1.80567 12.3402 2.3248 12.8594 2.97821 13.13C3.46826 13.333 4.08952 13.333 5.33203 13.333H10.6654C11.9079 13.333 12.5291 13.333 13.0192 13.13C13.6726 12.8594 14.1917 12.3402 14.4624 11.6868C14.6654 11.1968 14.6654 10.5755 14.6654 9.33301V6.66634C14.6654 5.42383 14.6654 4.80257 14.4624 4.31252C14.1917 3.65911 13.6726 3.13998 13.0192 2.86933C12.5291 2.66634 11.9079 2.66634 10.6654 2.66634H5.33203C4.08952 2.66634 3.46826 2.66634 2.97821 2.86933C2.3248 3.13998 1.80567 3.65911 1.53502 4.31252C1.33203 4.80257 1.33203 5.42383 1.33203 6.66634V9.33301ZM6.66536 5.99967V7.33301H3.9987V5.99967H6.66536Z" fill="#4060E3"/>
</svg>
