<svg width="24" height="24" viewBox="0 0 24 24" fill="none" xmlns="http://www.w3.org/2000/svg">
<path fill-rule="evenodd" clip-rule="evenodd" d="M11 2H13L13.3476 4.08535C12.8411 4.62688 12.4536 5.28113 12.2269 6.00639C12.1517 6.00215 12.0761 6 12 6C10.0712 6 8.41835 7.37941 8.07331 9.27712L7.32551 13.39C7.05094 14.9001 6.21156 16.2336 5 17.1334V17.163C5.25416 17.2553 5.60409 17.3587 6.06045 17.4605C7.50406 17.7825 9.60099 18 12 18C14.399 18 16.4959 17.7825 17.9395 17.4605C18.3959 17.3587 18.7458 17.2553 19 17.163V17.1334C17.7884 16.2336 16.9491 14.9001 16.6745 13.39L16.5083 12.4761C16.6701 12.4919 16.8341 12.5 17 12.5C17.5239 12.5 18.0291 12.4194 18.5036 12.27L18.6422 13.0323C18.8675 14.271 19.6627 15.3314 20.7889 15.8944L21 16V18C21 18.7903 18.9355 19.4773 15.9189 19.8015C15.763 20.5637 15.3868 21.2701 14.8284 21.8284C14.0783 22.5786 13.0609 23 12 23C10.9391 23 9.92172 22.5786 9.17157 21.8284C8.61325 21.2701 8.23702 20.5637 8.08112 19.8015C5.0645 19.4773 3 18.7903 3 18V16L3.21115 15.8944C4.33726 15.3314 5.13255 14.271 5.35777 13.0323L6.10557 8.91935C6.54016 6.5291 8.35687 4.68662 10.6408 4.1555L11 2ZM12 20C12.6006 20 13.1868 19.987 13.7533 19.9623C13.663 20.1268 13.5493 20.2791 13.4142 20.4142C13.0391 20.7893 12.5304 21 12 21C11.4696 21 10.9609 20.7893 10.5858 20.4142C10.4507 20.2791 10.337 20.1268 10.2467 19.9623C10.8132 19.987 11.3994 20 12 20Z" fill="#21201F"/>
<path d="M20 7.5C20 9.15685 18.6569 10.5 17 10.5C15.3431 10.5 14 9.15685 14 7.5C14 5.84315 15.3431 4.5 17 4.5C18.6569 4.5 20 5.84315 20 7.5Z" fill="#F5523A"/>
</svg>
