<svg width="24" height="24" viewBox="0 0 24 24" fill="none" xmlns="http://www.w3.org/2000/svg">
<path d="M8.00193 13.9999C9.65857 14 11.0018 15.3432 11.0019 16.9999L10.9951 17.2567C10.8614 19.8987 8.67716 21.9998 6.00193 21.9999H4.10056C3.89047 21.9996 3.86572 21.6941 4.07322 21.66C4.5411 21.5831 4.88841 21.1848 4.90134 20.7108L5.00193 16.9999C5.00208 15.3431 6.34517 13.9999 8.00193 13.9999ZM18.2998 1.03209C18.683 0.608378 19.322 0.536446 19.79 0.864124C20.2578 1.19177 20.4085 1.81625 20.1416 2.32116L13.4804 14.9149C13.3396 15.1803 12.9444 15.1272 12.8789 14.8339C12.5577 13.3927 11.3018 12.3515 9.82615 12.3036L9.06443 12.2792C8.70582 12.2673 8.5251 11.8414 8.7656 11.5751L18.2998 1.03209Z" fill="#21201F"/>
</svg>
