<svg width="32" height="32" viewBox="0 0 32 32" fill="none" xmlns="http://www.w3.org/2000/svg">
<path fill-rule="evenodd" clip-rule="evenodd" d="M24.0082 2.12305L23.3553 2.56392C22.2467 3.31242 21.2318 4.53918 20.4346 5.85765C19.628 7.1917 18.9738 8.73605 18.6553 10.2171L18.5355 10.7742L20.1455 13.1484C19.8424 13.7548 19.4081 14.3914 18.9345 14.9907C18.3172 15.772 17.698 16.4094 17.3813 16.7261C17.0612 17.0462 16.4279 17.6658 15.6496 18.2828C15.0538 18.755 14.4205 19.1873 13.8148 19.4884L11.4283 17.8319L10.8534 17.9643C9.38045 18.3035 7.84143 18.9657 6.50938 19.7765C5.19366 20.5774 3.96737 21.5918 3.21904 22.7001L2.77698 23.3549L3.13889 24.0571C3.87067 25.4769 5.07749 27.0308 6.23944 28.2351C7.05221 29.0775 8.2242 29.4732 9.38431 29.2891C14.4224 28.4896 19.0289 25.5568 22.5967 21.9248C26.1456 18.312 29.0664 13.7745 29.9249 8.76008C30.1254 7.589 29.7345 6.39663 28.8799 5.5715C27.678 4.41105 26.1281 3.20928 24.7094 2.48233L24.0082 2.12305ZM24.2338 5.27897C25.1704 5.86482 26.1802 6.67168 27.0277 7.48991C27.248 7.70261 27.3482 8.00843 27.2965 8.31007C26.5596 12.6144 24.0084 16.6824 20.6944 20.056C17.3914 23.4184 13.2758 25.9715 8.96635 26.6554C8.67023 26.7024 8.3695 26.6022 8.1585 26.3835C7.33758 25.5327 6.52575 24.5179 5.93534 23.5773C6.41982 23.0733 7.09136 22.5441 7.89591 22.0544C8.84336 21.4777 9.89729 21.0033 10.8966 20.709L13.4559 22.4855L14.0979 22.2608C15.2889 21.8439 16.4265 21.0698 17.3061 20.3725C18.2031 19.6615 18.9203 18.9584 19.2669 18.6118C19.6168 18.2619 20.3176 17.5416 21.0268 16.644C21.7224 15.7638 22.4944 14.6286 22.9138 13.4488L23.1398 12.8127L21.3957 10.2407C21.6752 9.24326 22.142 8.18775 22.7166 7.23739C23.2022 6.43426 23.7302 5.76317 24.2338 5.27897Z" fill="#21201F"/>
</svg>
