<svg width="24" height="24" viewBox="0 0 24 24" fill="none" xmlns="http://www.w3.org/2000/svg">
<path d="M4 17.001C4 18.6578 5.34315 20.001 7 20.001H9V22.001H7C4.23858 22.001 2 19.7624 2 17.001V15.001H4V17.001ZM22 17.001C22 19.7624 19.7614 22.001 17 22.001H15V20.001H17C18.6569 20.001 20 18.6578 20 17.001V15.001H22V17.001ZM12 7.00098C14.7614 7.00098 17 9.23955 17 12.001C17 14.7624 14.7614 17.001 12 17.001C9.23858 17.001 7 14.7624 7 12.001C7 9.23955 9.23858 7.00098 12 7.00098ZM12 9.00098C10.3431 9.00098 9 10.3441 9 12.001C9 13.6578 10.3431 15.001 12 15.001C13.6569 15.001 15 13.6578 15 12.001C15 10.3441 13.6569 9.00098 12 9.00098ZM9 4.00098H7C5.34315 4.00098 4 5.34412 4 7.00098V9.00098H2V7.00098C2 4.23955 4.23858 2.00098 7 2.00098H9V4.00098ZM17 2.00098C19.7614 2.00098 22 4.23955 22 7.00098V9.00098H20V7.00098C20 5.34412 18.6569 4.00098 17 4.00098H15V2.00098H17Z" fill="#21201F"/>
</svg>
