<svg width="32" height="32" viewBox="0 0 32 32" fill="none" xmlns="http://www.w3.org/2000/svg">
<path d="M18.6654 17.333C17.5543 17.333 16.6098 16.9441 15.832 16.1663C15.0543 15.3886 14.6654 14.4441 14.6654 13.333C14.6654 12.2219 15.0543 11.2775 15.832 10.4997C16.6098 9.7219 17.5543 9.33301 18.6654 9.33301C19.7765 9.33301 20.7209 9.7219 21.4987 10.4997C22.2765 11.2775 22.6654 12.2219 22.6654 13.333C22.6654 14.4441 22.2765 15.3886 21.4987 16.1663C20.7209 16.9441 19.7765 17.333 18.6654 17.333ZM9.33203 21.333C8.5987 21.333 7.97092 21.0719 7.4487 20.5497C6.92648 20.0275 6.66536 19.3997 6.66536 18.6663V7.99967C6.66536 7.26634 6.92648 6.63856 7.4487 6.11634C7.97092 5.59412 8.5987 5.33301 9.33203 5.33301H27.9987C28.732 5.33301 29.3598 5.59412 29.882 6.11634C30.4043 6.63856 30.6654 7.26634 30.6654 7.99967V18.6663C30.6654 19.3997 30.4043 20.0275 29.882 20.5497C29.3598 21.0719 28.732 21.333 27.9987 21.333H9.33203ZM11.9987 18.6663H25.332C25.332 17.933 25.5931 17.3052 26.1154 16.783C26.6376 16.2608 27.2654 15.9997 27.9987 15.9997V10.6663C27.2654 10.6663 26.6376 10.4052 26.1154 9.88301C25.5931 9.36079 25.332 8.73301 25.332 7.99967H11.9987C11.9987 8.73301 11.7376 9.36079 11.2154 9.88301C10.6931 10.4052 10.0654 10.6663 9.33203 10.6663V15.9997C10.0654 15.9997 10.6931 16.2608 11.2154 16.783C11.7376 17.3052 11.9987 17.933 11.9987 18.6663ZM26.6654 26.6663H3.9987C3.26536 26.6663 2.63759 26.4052 2.11536 25.883C1.59314 25.3608 1.33203 24.733 1.33203 23.9997V9.33301H3.9987V23.9997H26.6654V26.6663Z" fill="black"/>
</svg>
