<svg width="35" height="34" viewBox="0 0 35 34" fill="none" xmlns="http://www.w3.org/2000/svg">
<path fill-rule="evenodd" clip-rule="evenodd" d="M15.0786 23.504L16.318 23.5771C16.7048 23.5999 17.099 23.6114 17.4996 23.6114C20.9206 23.6114 23.745 22.7766 25.6376 21.3754C27.4328 20.0462 28.5602 18.0978 28.5602 15.2781C28.5602 12.4584 27.4328 10.51 25.6376 9.18085C23.745 7.77957 20.9206 6.94477 17.4996 6.94477C14.0786 6.94477 11.2542 7.77957 9.36154 9.18085C7.56633 10.51 6.43898 12.4584 6.43898 15.2781C6.43898 18.5633 7.97608 20.7469 10.499 22.0901L11.9693 22.8729V27.0837L15.0786 23.504ZM16.1559 26.3501C16.598 26.3762 17.0462 26.3892 17.4996 26.3892C25.1415 26.3892 31.3253 22.6855 31.3253 15.2781C31.3253 7.8707 25.1415 4.16699 17.4996 4.16699C9.85771 4.16699 3.67383 7.8707 3.67383 15.2781C3.67383 19.6673 5.84499 22.7561 9.20413 24.5445V30.5559H11.9693L16.1559 26.3501Z" fill="#21201F"/>
</svg>
