<svg width="16" height="16" viewBox="0 0 16 16" fill="none" xmlns="http://www.w3.org/2000/svg">
<path d="M8 0C12.4183 0 16 3.58172 16 8C16 12.4183 12.4183 16 8 16C3.58172 16 0 12.4183 0 8C0 3.58172 3.58172 0 8 0ZM7.38867 3.68848C7.04701 3.34682 6.49211 3.34692 6.15039 3.68848C5.80868 4.03019 5.80868 4.58505 6.15039 4.92676L9.22363 7.99902L6.15039 11.0732C5.80889 11.4148 5.80912 11.9688 6.15039 12.3105C6.49211 12.6522 7.04699 12.6522 7.38867 12.3105L11.0801 8.61816L11.6992 8L11.0801 7.38086L7.38867 3.68848Z" fill="black"/>
</svg>
