<svg width="24" height="24" viewBox="0 0 24 24" fill="none" xmlns="http://www.w3.org/2000/svg">
<path d="M12.5 8L12 6H7L7.5 8H12.5Z" fill="#21201F"/>
<path fill-rule="evenodd" clip-rule="evenodd" d="M6.88357 2C5.0011 2 3.4855 2.51861 2.64462 3.74999C1.82358 4.9523 1.87104 6.51495 2.31818 8.06818C2.73965 9.53222 3.27335 11.1058 3.69896 12.3068C3.9123 12.9088 4.09958 13.4203 4.23367 13.7817C4.30073 13.9624 4.35453 14.1057 4.3917 14.2042L4.41853 14.275C3.88231 15.142 3.89067 16.2447 4.27681 17.1347C4.42471 17.4749 4.58957 17.8458 4.75509 18.2181L4.77236 18.257C4.94444 18.6441 5.11692 19.0324 5.27571 19.3982C5.6331 20.2215 6.08408 20.9267 6.80284 21.3948C7.51915 21.8613 8.35997 22 9.29789 22H19.046C20.2591 22 21.351 21.7199 22.093 20.8522C22.8004 20.0249 22.9998 18.8742 22.9998 17.618C22.9998 15.6478 22.1187 13.865 20.5289 12.6234C19.955 12.1752 19.3013 11.9972 18.6617 12C18.0669 12.0026 17.4844 12.1613 16.9894 12.3623C16.9613 10.3213 16.8694 8.27921 16.6285 6.21208C16.4657 4.81478 16.0159 3.67923 15.0695 2.93238C14.1494 2.20641 12.9464 2 11.6399 2H6.88357ZM6.04922 12.9251C6.23905 12.8076 6.43346 12.6885 6.62152 12.5738C7.69341 11.9204 9.23409 11.6988 10.4402 12.6237C11.6286 13.5349 12.3735 14.7016 12.7357 16H18V18H10.9998C10.9998 16.4479 10.4381 15.1423 9.22321 14.2107C8.87001 13.9399 8.2685 13.9122 7.66251 14.2816C7.19475 14.5667 6.70415 14.87 6.34953 15.0997C6.0402 15.3 5.86443 15.7689 6.11118 16.3378C6.25569 16.6702 6.41759 17.0344 6.58428 17.4094L6.59994 17.4446C6.77148 17.8305 6.94748 18.2267 7.11031 18.6018C7.39752 19.2634 7.64748 19.5581 7.89426 19.7189C8.14349 19.8812 8.53281 20 9.29789 20H19.046C19.9933 20 20.3782 19.7801 20.573 19.5523C20.8024 19.2841 20.9998 18.7439 20.9998 17.618C20.9998 16.2652 20.4037 15.0633 19.2979 14.1996C18.9821 13.953 18.434 13.9073 17.8322 14.219L16.4597 14.888C16.1497 15.0485 15.7784 15.0358 15.4801 14.8544C15.1819 14.673 14.9998 14.3491 14.9998 14C14.9998 11.4408 14.9341 8.95031 14.642 6.4436C14.5107 5.31687 14.1931 4.7885 13.8305 4.50244C13.4416 4.1955 12.794 4 11.6399 4H6.88357C5.30075 4 4.59888 4.4347 4.29626 4.87786C3.97378 5.35009 3.85676 6.1832 4.24013 7.51489C4.64549 8.92298 5.1641 10.4536 5.58409 11.6388C5.76359 12.1453 5.92427 12.5865 6.04922 12.9251Z" fill="#21201F"/>
</svg>
