<svg width="24" height="24" viewBox="0 0 24 24" fill="none" xmlns="http://www.w3.org/2000/svg">
<path fill-rule="evenodd" clip-rule="evenodd" d="M22 6C22 5.12966 21.5083 4.56247 21.2167 4.30338C20.9169 4.037 20.5905 3.87343 20.3576 3.77333C19.8764 3.56648 19.3032 3.42632 18.7469 3.32515C17.6013 3.11688 16.1009 3 14.5 3C12.8991 3 11.3987 3.11688 10.2531 3.32515C9.69675 3.42632 9.12356 3.56648 8.64237 3.77333C8.4095 3.87343 8.08312 4.037 7.78332 4.30338C7.49172 4.56247 7 5.12966 7 6V7.15003C3.57664 7.84493 1 10.8716 1 14.5C1 18.6421 4.35786 22 8.5 22C11.3806 22 13.8818 20.3761 15.1383 17.9938C16.4971 17.967 17.755 17.8552 18.7469 17.6748C19.3032 17.5737 19.8764 17.4335 20.3576 17.2267C20.5905 17.1266 20.9169 16.963 21.2167 16.6966C21.5083 16.4375 22 15.8703 22 15V6ZM15.8561 15.9694C18.2379 15.8596 20 15.4672 20 15V13.3634C19.6046 13.498 19.1709 13.5978 18.7469 13.6748C17.9638 13.8172 17.0148 13.9169 15.9813 13.9657C15.9937 14.1422 16 14.3204 16 14.5C16 15.0029 15.9505 15.4942 15.8561 15.9694ZM15.5666 11.9812C18.0937 11.8909 20 11.4859 20 11V9.36337C19.6046 9.49801 19.1709 9.59775 18.7469 9.67485C17.6015 9.8831 16.1013 9.99997 14.5005 10C14.9493 10.5975 15.311 11.2642 15.5666 11.9812ZM12.0585 7.89632C12.7942 7.96269 13.6231 8 14.5 8C17.5376 8 20 7.55228 20 7V6C20 5.44772 17.5376 5 14.5 5C11.4624 5 9 5.44772 9 6V7C9 7.00549 9.00024 7.01098 9.00073 7.01645C10.1019 7.08903 11.1381 7.39926 12.0585 7.89632ZM14 14.5C14 17.5376 11.5376 20 8.5 20C5.46243 20 3 17.5376 3 14.5C3 11.4624 5.46243 9 8.5 9C11.5376 9 14 11.4624 14 14.5Z" fill="#21201F"/>
</svg>
