<svg width="89" height="96" viewBox="0 0 89 96" fill="none" xmlns="http://www.w3.org/2000/svg">
<g filter="url(#filter0_d_2243_80361)">
<rect x="12.4102" y="12" width="56" height="56" rx="28" fill="#E0DEDA"/>
<rect x="13.9102" y="13.5" width="53" height="53" rx="26.5" stroke="white" stroke-width="3"/>
<path d="M44.4102 31.1738C47.9416 32.7171 50.4102 36.2393 50.4102 40.3398C50.4102 45.8628 45.9332 50.3398 40.4102 50.3398C34.8872 50.3398 30.4102 45.8628 30.4102 40.3398C30.4102 36.2393 32.8787 32.7171 36.4102 31.1738V33.4131C35.81 33.7596 35.2515 34.1841 34.7529 34.6826C33.2526 36.1829 32.4102 38.2181 32.4102 40.3398C32.4102 42.4616 33.2526 44.4968 34.7529 45.9971C36.2532 47.4974 38.2884 48.3398 40.4102 48.3398C42.5319 48.3398 44.5671 47.4974 46.0674 45.9971C47.5677 44.4968 48.4102 42.4616 48.4102 40.3398C48.4102 38.2181 47.5677 36.1829 46.0674 34.6826C45.5689 34.1841 45.0103 33.7596 44.4102 33.4131V31.1738Z" fill="#8A8784"/>
<rect x="39.4102" y="28.3398" width="2" height="12" fill="#8A8784"/>
<circle opacity="0.32" cx="40.4102" cy="40" r="17.5" stroke="#8A8784"/>
<circle opacity="0.16" cx="40.4102" cy="40" r="24.5" stroke="#8A8784"/>
</g>
<defs>
<filter id="filter0_d_2243_80361" x="-7.58984" y="0" width="96" height="96" filterUnits="userSpaceOnUse" color-interpolation-filters="sRGB">
<feFlood flood-opacity="0" result="BackgroundImageFix"/>
<feColorMatrix in="SourceAlpha" type="matrix" values="0 0 0 0 0 0 0 0 0 0 0 0 0 0 0 0 0 0 127 0" result="hardAlpha"/>
<feOffset dy="8"/>
<feGaussianBlur stdDeviation="10"/>
<feColorMatrix type="matrix" values="0 0 0 0 0 0 0 0 0 0 0 0 0 0 0 0 0 0 0.12 0"/>
<feBlend mode="normal" in2="BackgroundImageFix" result="effect1_dropShadow_2243_80361"/>
<feBlend mode="normal" in="SourceGraphic" in2="effect1_dropShadow_2243_80361" result="shape"/>
</filter>
</defs>
</svg>
