<svg width="24" height="25" viewBox="0 0 24 25" fill="none" xmlns="http://www.w3.org/2000/svg">
<path d="M7.99805 22.502C6.13454 22.502 5.20281 22.5017 4.46777 22.1973C3.48767 21.7913 2.70871 21.0123 2.30273 20.0322C1.99844 19.2972 1.99805 18.3653 1.99805 16.502V14.502C1.99805 12.6386 1.99844 11.7067 2.30273 10.9717C2.70871 9.99157 3.48767 9.21262 4.46777 8.80664C4.9841 8.59277 6.74427 8.53164 7.99609 8.5127V8.50195C7.99609 6.63846 7.99643 5.70671 8.30078 4.97168C8.70676 3.99157 9.48571 3.21262 10.4658 2.80664C11.2009 2.50229 12.1326 2.50195 13.9961 2.50195H15.9961C17.8596 2.50195 18.7913 2.50229 19.5264 2.80664C20.5065 3.21262 21.2854 3.99157 21.6914 4.97168C21.9958 5.70671 21.9961 6.63846 21.9961 8.50195V10.502C21.9961 12.3654 21.9958 13.2972 21.6914 14.0322C21.2854 15.0123 20.5065 15.7913 19.5264 16.1973C18.7913 16.5016 17.8596 16.502 15.9961 16.502V17.502C15.9866 18.7254 15.9386 19.4423 15.6943 20.0322C15.2884 21.0123 14.5093 21.7913 13.5293 22.1973C12.7942 22.5017 11.8618 22.502 9.99805 22.502H7.99805ZM15.9961 14.502C16.9553 14.502 17.5749 14.5011 18.0488 14.4688C18.5046 14.4376 18.6785 14.3841 18.7617 14.3496C19.2516 14.1466 19.6408 13.7574 19.8438 13.2676C19.8782 13.1844 19.9318 13.0105 19.9629 12.5547C19.9952 12.0807 19.9961 11.4612 19.9961 10.502V8.50195C19.9961 7.54271 19.9952 6.92318 19.9629 6.44922C19.9318 5.9934 19.8782 5.81954 19.8438 5.73633C19.6408 5.24648 19.2516 4.85728 18.7617 4.6543C18.6785 4.61983 18.5046 4.56627 18.0488 4.53516C17.5749 4.50282 16.9553 4.50195 15.9961 4.50195H13.9961C13.0368 4.50195 12.4173 4.50282 11.9434 4.53516C11.4875 4.56627 11.3137 4.61983 11.2305 4.6543C10.7406 4.85728 10.3514 5.24648 10.1484 5.73633C10.114 5.81954 10.0604 5.9934 10.0293 6.44922C9.99696 6.92318 9.99609 7.54271 9.99609 8.50195V10.502C9.99609 11.4612 9.99696 12.0807 10.0293 12.5547C10.0604 13.0105 10.114 13.1844 10.1484 13.2676C10.3514 13.7574 10.7406 14.1466 11.2305 14.3496C11.3137 14.3841 11.4875 14.4376 11.9434 14.4688C12.4173 14.5011 13.0368 14.502 13.9961 14.502H15.9961ZM9.99805 20.502C10.9572 20.502 11.5768 20.5011 12.0508 20.4688C12.5066 20.4376 12.6804 20.3841 12.7637 20.3496C13.2536 20.1467 13.6427 19.7574 13.8457 19.2676C13.8802 19.1844 13.9337 19.0105 13.9648 18.5547C13.9784 18.3558 13.9885 17.187 13.9932 16.502C12.1316 16.502 11.2005 16.5015 10.4658 16.1973C9.48571 15.7913 8.70676 15.0123 8.30078 14.0322C7.99681 13.2981 7.99707 12.3677 7.99707 10.5088C7.28775 10.5134 6.16466 10.5203 5.94629 10.5352C5.49074 10.5662 5.31672 10.6198 5.2334 10.6543C4.74338 10.8573 4.35339 11.2463 4.15039 11.7363C4.11592 11.8195 4.06334 11.9934 4.03223 12.4492C3.99989 12.9232 3.99805 13.5427 3.99805 14.502V16.502C3.99805 17.4612 3.99989 18.0807 4.03223 18.5547C4.06334 19.0105 4.11592 19.1844 4.15039 19.2676C4.35339 19.7576 4.74338 20.1466 5.2334 20.3496C5.31672 20.3841 5.49074 20.4377 5.94629 20.4688C6.42014 20.5011 7.03926 20.502 7.99805 20.502H9.99805Z" fill="#21201F" fill-opacity="0.5"/>
</svg>
