<svg width="32" height="32" viewBox="0 0 32 32" fill="none" xmlns="http://www.w3.org/2000/svg">
<path d="M20.8018 2.66699C21.4682 2.6672 22.2681 2.93376 22.668 3.4668L28.5342 9.33398C29.0672 9.73399 29.3349 10.4004 29.335 11.2002V20.8008C29.3348 21.4672 29.0673 22.1339 28.5342 22.667L22.668 28.5332C22.1348 29.0663 21.4682 29.3338 20.8018 29.334H11.2012C10.4014 29.334 9.73497 29.0663 9.33496 28.5332L3.46777 22.667C2.93471 22.1339 2.66818 21.4671 2.66797 20.8008V11.2002C2.668 10.4004 2.93466 9.73399 3.46777 9.33398L9.33496 3.4668C9.73496 2.93368 10.4014 2.66702 11.2012 2.66699H20.8018ZM5.33496 11.2002V20.8008L11.2012 26.667H20.8018L26.668 20.8008V11.2002L20.8018 5.33398H11.2012L5.33496 11.2002ZM21.3223 12.5527L17.8809 15.9941L21.3223 19.4355L19.4365 21.3213L15.9951 17.8799L12.5537 21.3213L10.668 19.4355L14.1094 15.9941L10.668 12.5527L12.5537 10.667L15.9951 14.1084L19.4365 10.667L21.3223 12.5527Z" fill="#21201F"/>
</svg>
