<svg width="40" height="40" viewBox="0 0 40 40" fill="none" xmlns="http://www.w3.org/2000/svg">
<rect x="0.25" y="0.25" width="39.5" height="39.5" rx="19.75" stroke="#8A8784" stroke-opacity="0.4" stroke-width="0.5"/>
<path fill-rule="evenodd" clip-rule="evenodd" d="M22.9658 26.6162L24.168 28.3337H26.2513L14.5846 11.667H12.5013L14.0148 13.8291C13.6494 14.0154 13.3093 14.2573 13.0058 14.5608C12.1333 15.4333 11.668 16.7101 11.668 18.3271C11.668 20.639 13.0666 22.789 14.6602 24.4632C16.2745 26.159 18.2254 27.6047 19.6174 28.3271H20.3852C21.1309 27.9401 22.037 27.3456 22.9658 26.6162ZM22.0165 25.2601L14.9863 15.217C14.6756 15.3415 14.4068 15.5169 14.1843 15.7393C13.7026 16.221 13.3346 17.0276 13.3346 18.3271C13.3346 19.9903 14.3694 21.7403 15.8674 23.314C17.1987 24.7126 18.7911 25.9757 20.0013 26.6605C20.6046 26.3191 21.3029 25.834 22.0165 25.2601Z" fill="#21201F"/>
<path d="M25.3424 24.4632C25.2371 24.5738 25.1304 24.6833 25.0225 24.7916L24.0505 23.4025C24.0789 23.3731 24.1071 23.3436 24.1352 23.314C25.6332 21.7403 26.668 19.9903 26.668 18.3271C26.668 17.0276 26.3 16.221 25.8183 15.7393C25.3337 15.2548 24.6291 14.9938 23.7513 14.9938C22.2323 14.9938 21.2513 16.2438 20.8346 17.9105L20.2069 17.9093L17.0489 13.3959C18.3846 13.6339 19.3585 14.4675 20.0012 15.5493C20.7609 14.2643 21.9858 13.3271 23.7513 13.3271C24.9568 13.3271 26.1272 13.6912 26.9968 14.5608C27.8693 15.4333 28.3346 16.7101 28.3346 18.3271C28.3346 20.639 26.936 22.789 25.3424 24.4632Z" fill="#21201F"/>
</svg>
