<svg width="24" height="24" viewBox="0 0 24 24" fill="none" xmlns="http://www.w3.org/2000/svg">
<path d="M14 2C15.8635 2 16.7952 2.00034 17.5303 2.30469C18.5104 2.71066 19.2893 3.48961 19.6953 4.46973C19.9997 5.20476 20 6.1365 20 8V16C20 17.8635 19.9997 18.7952 19.6953 19.5303C19.2893 20.5104 18.5104 21.2893 17.5303 21.6953C16.7952 21.9997 15.8635 22 14 22H10C8.1365 22 7.20476 21.9997 6.46973 21.6953C5.48961 21.2893 4.71066 20.5104 4.30469 19.5303C4.00034 18.7952 4 17.8635 4 16V8C4 6.1365 4.00034 5.20476 4.30469 4.46973C4.71066 3.48961 5.48961 2.71066 6.46973 2.30469C7.20476 2.00034 8.1365 2 10 2H14ZM10 4C9.04075 4 8.42123 4.00086 7.94727 4.0332C7.49145 4.06432 7.31759 4.11788 7.23438 4.15234C6.74453 4.35533 6.35533 4.74453 6.15234 5.23438C6.11788 5.31759 6.06432 5.49145 6.0332 5.94727C6.00086 6.42123 6 7.04075 6 8V16C6 16.9592 6.00086 17.5788 6.0332 18.0527C6.06432 18.5086 6.11788 18.6824 6.15234 18.7656C6.35533 19.2555 6.74453 19.6447 7.23438 19.8477C7.31759 19.8821 7.49145 19.9357 7.94727 19.9668C8.42123 19.9991 9.04075 20 10 20H14C14.9592 20 15.5788 19.9991 16.0527 19.9668C16.5086 19.9357 16.6824 19.8821 16.7656 19.8477C17.2555 19.6447 17.6447 19.2555 17.8477 18.7656C17.8821 18.6824 17.9357 18.5086 17.9668 18.0527C17.9991 17.5788 18 16.9592 18 16V8C18 7.04075 17.9991 6.42123 17.9668 5.94727C17.9357 5.49145 17.8821 5.31759 17.8477 5.23438C17.6447 4.74453 17.2555 4.35533 16.7656 4.15234C16.6824 4.11788 16.5086 4.06432 16.0527 4.0332C15.5788 4.00086 14.9592 4 14 4H10ZM12 17H8V15H12V17ZM16 13H8V11H16V13ZM16 9H8V7H16V9Z" fill="#21201F"/>
</svg>
