<svg width="24" height="24" viewBox="0 0 24 24" fill="none" xmlns="http://www.w3.org/2000/svg">
<path d="M13.25 8.0127C13.7909 8.31777 14.3631 8.70594 14.8281 9.1709C15.327 9.66978 15.7376 10.2924 16.0518 10.8672L6.86133 20.0586L3.41406 20.6777L4.0332 17.2305L13.25 8.0127ZM17.6611 3.61621C18.1994 3.92054 18.7671 4.30813 19.2295 4.77051C19.7268 5.26784 20.1364 5.88769 20.4502 6.46094C20.4295 6.48621 20.4084 6.51156 20.3848 6.53516L17.5156 9.40332C17.1786 8.85354 16.7563 8.27002 16.2432 7.75684C15.7647 7.2784 15.2243 6.8798 14.708 6.55469L17.5566 3.70703C17.5898 3.67389 17.6248 3.64373 17.6611 3.61621Z" fill="#21201F"/>
</svg>
