<svg width="24" height="24" viewBox="0 0 24 24" fill="none" xmlns="http://www.w3.org/2000/svg">
<path fill-rule="evenodd" clip-rule="evenodd" d="M12 2.39751L2.39751 12L12 21.6025L21.6025 12L12 2.39751ZM23.4919 11.061L12.939 0.508102C12.6125 0.181584 12.4601 0.0971781 12.2769 0.0416477C12.0937 -0.0138826 11.9063 -0.0138826 11.7231 0.0416477C11.5399 0.0971781 11.3875 0.181584 11.061 0.508102L0.508102 11.061C0.181584 11.3875 0.0971781 11.5399 0.0416477 11.7231C-0.0138826 11.9063 -0.0138826 12.0937 0.0416477 12.2769C0.0971781 12.4601 0.181584 12.6125 0.508102 12.939L11.061 23.4919C11.3875 23.8184 11.5399 23.9028 11.7231 23.9584C11.9063 24.0139 12.0937 24.0139 12.2769 23.9584C12.4601 23.9028 12.6125 23.8184 12.939 23.4919L23.4919 12.939C23.8184 12.6125 23.9028 12.4601 23.9584 12.2769C24.0139 12.0937 24.0139 11.9063 23.9584 11.7231C23.9028 11.5399 23.8184 11.3875 23.4919 11.061Z" fill="black"/>
<path d="M12 1.00586C12.0294 1.02668 12.0976 1.08098 12.2314 1.21484L22.7852 11.7686C22.9183 11.9017 22.9721 11.9704 22.9932 12C22.9721 12.0296 22.9183 12.0983 22.7852 12.2314L12.2314 22.7852C12.0983 22.9183 12.0296 22.9721 12 22.9932C11.9704 22.9721 11.9017 22.9183 11.7686 22.7852L1.21484 12.2314C1.08098 12.0976 1.02668 12.0294 1.00586 12C1.02667 11.9706 1.08098 11.9024 1.21484 11.7686L11.7686 1.21484C11.9024 1.08098 11.9706 1.02667 12 1.00586Z" stroke="black" stroke-width="2"/>
<path fill-rule="evenodd" clip-rule="evenodd" d="M17.2144 10.95L14.3144 12.89C14.2294 12.96 14.1194 13 13.9994 13C13.7294 13 13.5094 12.785 13.4994 12.515C13.4994 12.51 13.4994 12.505 13.4994 12.5V11.5H11.0044H10.9994C10.7094 11.505 10.4644 11.65 10.2794 11.93C10.0894 12.21 9.99945 12.57 10.0044 13V15C10.0044 15.55 9.55445 16 9.00445 16C8.44945 16 8.00445 15.55 8.00445 15V13C8.00445 12.99 8.00445 12.975 8.00445 12.965C7.96445 11.785 8.19445 10.91 8.68945 10.33C9.17945 9.755 9.93445 9.48 10.9544 9.5C10.9694 9.5 10.9844 9.5 11.0044 9.5H13.4994V8.5V8.495C13.5044 8.22 13.7244 8 13.9994 8C14.1194 8 14.2294 8.045 14.3194 8.115L17.2094 10.045C17.3794 10.125 17.4994 10.3 17.4994 10.5C17.4994 10.7 17.3844 10.87 17.2144 10.95Z" fill="black"/>
</svg>
