<svg width="32" height="32" viewBox="0 0 32 32" fill="none" xmlns="http://www.w3.org/2000/svg">
<path fill-rule="evenodd" clip-rule="evenodd" d="M16.0007 8C20.725 8 22.3323 9.38058 22.8623 10.155C23.0776 10.4697 23.1399 10.8553 23.1961 11.2325L24.9014 22.6667L26.6673 24V26.6667C26.6673 28.2933 21.9266 29.3333 16.0007 29.3333C10.0747 29.3333 5.33442 28.2933 5.33442 26.6667V24L7.10034 22.6667L8.80583 11.2308C8.86192 10.8548 8.92393 10.4704 9.1384 10.1564C9.66725 9.38226 11.2734 8 16.0007 8ZM17.3337 12.0013L19.3337 12.3347L20.5223 23.8377L18.0004 24L17.3337 12.0013Z" fill="#21201F"/>
<path d="M17.334 5.33333L17.0007 0H14.9967L14.6634 5.33333H17.334Z" fill="#21201F"/>
<path d="M29.0793 5.00294L25.5438 9.00988L23.6554 7.1215L27.6624 3.58596L29.0793 5.00294Z" fill="#21201F"/>
<path d="M8.33993 7.12244L4.33299 3.58691L2.91602 5.00388L6.45155 9.01082L8.33993 7.12244Z" fill="#21201F"/>
</svg>
