<svg width="21" height="22" viewBox="0 0 21 22" fill="none" xmlns="http://www.w3.org/2000/svg">
<path fill-rule="evenodd" clip-rule="evenodd" d="M10.376 6C13.9192 6 15.1247 7.03544 15.5222 7.61626C15.6837 7.85228 15.7304 8.14151 15.7726 8.42437L17.0515 17L18.376 18V20C18.376 21.22 14.8204 22 10.376 22C5.93153 22 2.3763 21.22 2.3763 20V18L3.70075 17L4.97986 8.42314C5.02193 8.1411 5.06843 7.85278 5.22929 7.61732C5.62593 7.0367 6.83055 6 10.376 6ZM11.3758 9.00101L12.8758 9.25101L13.7672 17.8783L11.8758 18L11.3758 9.00101Z" fill="#FA3E2C"/>
<path d="M11.376 4L11.126 0H9.62305L9.37305 4H11.376Z" fill="#FA3E2C"/>
<path d="M20.185 3.7522L17.5333 6.75741L16.1171 5.34112L19.1223 2.68947L20.185 3.7522Z" fill="#FA3E2C"/>
<path d="M4.63044 5.34183L1.62523 2.69018L0.5625 3.75291L3.21415 6.75811L4.63044 5.34183Z" fill="#FA3E2C"/>
</svg>
