<svg width="24" height="24" viewBox="0 0 24 24" fill="none" xmlns="http://www.w3.org/2000/svg">
<path opacity="0.45" d="M3.06204 1.73881C2.33655 1.56354 1.66808 2.18689 1.79232 2.92284L2.60007 7.70763C2.73796 8.52451 3.72898 8.86011 4.33483 8.29515L5.41827 7.28483L5.60407 7.49523L5.64831 7.54307L5.74951 7.65291C5.83735 7.74843 5.96431 7.88659 6.11991 8.05675C6.43119 8.39731 6.85671 8.86531 7.31383 9.37555C7.77127 9.88611 8.24919 10.4267 8.67359 10.92C9.19479 11.5259 10.1926 11.4512 10.6141 10.7724C10.886 10.3346 10.8493 9.76955 10.5134 9.37859C10.0584 8.84899 9.55823 8.28403 9.10135 7.77411C8.63743 7.25619 8.20631 6.78203 7.89127 6.43739C7.73367 6.26507 7.60495 6.12491 7.51551 6.02771L7.41199 5.91539L7.38479 5.88595L7.17415 5.64739L8.24391 4.64988C8.84975 4.08491 8.58407 3.0729 7.77887 2.87836L3.06204 1.73881Z" fill="#21201F"/>
<path d="M22.2075 2.92284C22.3317 2.18689 21.6632 1.56354 20.9377 1.73881L16.2209 2.87836C15.4156 3.0729 15.15 4.08491 15.7559 4.64988L16.7627 5.58875L16.4604 5.91547L16.3569 6.02771C16.2675 6.12491 16.1388 6.26507 15.9812 6.43747C15.6662 6.78211 15.235 7.25627 14.7711 7.77411C13.8576 8.79379 12.7708 10.0335 12.2181 10.7705C11.6784 11.4902 11.255 12.1473 10.976 12.8501C10.6885 13.5745 10.5781 14.2859 10.5781 15.0905V21.0905C10.5781 21.7532 11.1154 22.2905 11.7781 22.2905C12.4408 22.2905 12.9781 21.7532 12.9781 21.0905V15.0905C12.9781 14.5264 13.052 14.1252 13.2068 13.7355C13.37 13.3243 13.6466 12.8659 14.1381 12.2105C14.6167 11.5724 15.6299 10.4123 16.5586 9.37563C17.0157 8.86539 17.4412 8.39739 17.7525 8.05683C17.9081 7.88659 18.0351 7.74843 18.1229 7.65299L18.2241 7.54315L18.5179 7.22555L19.6649 8.29515C20.2708 8.86011 21.2618 8.52451 21.3997 7.70763L22.2075 2.92284Z" fill="#21201F"/>
</svg>
