<svg width="24" height="24" viewBox="0 0 24 24" fill="none" xmlns="http://www.w3.org/2000/svg">
<path d="M13.5 2.52539C14.8669 1.15888 17.1333 1.1587 18.5 2.52539C19.8667 3.89212 19.8665 6.15852 18.5 7.52539C18.3251 7.70028 18.1252 7.86602 17.9072 8.02441C18.6104 8.05549 19.1036 8.12805 19.5303 8.30469C20.5103 8.71063 21.2893 9.48971 21.6953 10.4697C21.9998 11.2048 22 12.1372 22 14.001L20 15.001V16.001C20 17.8645 19.9998 18.7962 19.6953 19.5312C19.2893 20.5114 18.5104 21.2903 17.5303 21.6963C16.7953 22.0006 15.8634 22.001 14 22.001H10C8.13661 22.001 7.20474 22.0006 6.46973 21.6963C5.48961 21.2903 4.71066 20.5114 4.30469 19.5312C4.00023 18.7962 4 17.8645 4 16.001V15.001L2 14.001C2 12.1372 2.00021 11.2048 2.30469 10.4697C2.71069 9.48971 3.48968 8.71063 4.46973 8.30469C4.89623 8.12813 5.38917 8.05552 6.0918 8.02441C5.87393 7.86608 5.67481 7.7002 5.5 7.52539C4.13321 6.15855 4.13318 3.89221 5.5 2.52539C6.86685 1.15888 9.13326 1.1587 10.5 2.52539C11.097 3.12241 11.5929 4.10618 12 5.18066C12.4069 4.10622 12.903 3.12239 13.5 2.52539ZM8 10.001C7.04075 10.001 6.42123 10.0018 5.94727 10.0342C5.49147 10.0653 5.31759 10.1189 5.23438 10.1533C4.7445 10.3564 4.35528 10.7454 4.15234 11.2354C4.11787 11.3186 4.06431 11.4923 4.0332 11.9482C4.01746 12.1791 4.00929 12.4444 4.00488 12.7666L6 13.7646V16.001C6 16.9598 6.00089 17.5789 6.0332 18.0527C6.06428 18.5082 6.11787 18.6823 6.15234 18.7656C6.35531 19.2556 6.74438 19.6456 7.23438 19.8486C7.31759 19.8831 7.49148 19.9357 7.94727 19.9668C8.42123 19.9991 9.04075 20.001 10 20.001H11V10.001H8ZM13 20.001H14C14.9592 20.001 15.5788 19.9991 16.0527 19.9668C16.5085 19.9357 16.6824 19.8831 16.7656 19.8486C17.2556 19.6456 17.6447 19.2556 17.8477 18.7656C17.8821 18.6823 17.9357 18.5082 17.9668 18.0527C17.9991 17.5789 18 16.9598 18 16.001V13.7646L19.9951 12.7666C19.9907 12.4444 19.9825 12.1791 19.9668 11.9482C19.9357 11.4923 19.8821 11.3186 19.8477 11.2354C19.6447 10.7454 19.2555 10.3564 18.7656 10.1533C18.6824 10.1189 18.5085 10.0653 18.0527 10.0342C17.5788 10.0018 16.9592 10.001 16 10.001H13V20.001ZM9.08594 3.94043C8.50015 3.35464 7.49985 3.35464 6.91406 3.94043C6.32847 4.52623 6.32838 5.5256 6.91406 6.11133C7.1492 6.34646 7.63171 6.66102 8.39355 6.99902C9.20723 7.35999 10.1665 7.76329 11 8.00098C10.7762 7.21424 10.3347 6.21976 9.98438 5.43164C9.64662 4.67177 9.32914 4.18384 9.08594 3.94043ZM17.0859 3.94043C16.5002 3.35464 15.4998 3.35464 14.9141 3.94043C14.6708 4.18377 14.3526 4.6714 14.0146 5.43164C13.6643 6.21998 13.2239 7.21367 13 8.00098C13.8331 7.76341 14.7921 7.35987 15.6055 6.99902C16.3675 6.66095 16.8508 6.3465 17.0859 6.11133C17.6713 5.52565 17.6712 4.52617 17.0859 3.94043Z" fill="#21201F"/>
</svg>
