<svg width="40" height="39" viewBox="0 0 40 39" fill="none" xmlns="http://www.w3.org/2000/svg">
<path d="M42.701 29.1707C40.3821 31.4992 37.7856 33.9048 34.9953 36.3272L33.04 37.9388L32.8583 38.0953L31.7779 38.9452L30.4644 39.9736C29.1832 40.9641 27.9195 41.953 26.9166 42.6732C26.6067 42.9081 26.2643 43.0978 25.9 43.2364C25.3567 43.441 24.7766 43.5322 24.1963 43.5044C23.6161 43.4765 23.0481 43.3302 22.5283 43.0747C21.2653 42.4473 19.9787 41.7518 18.6583 41.0768L17.2215 40.289L16.1395 39.6985L15.4107 39.288L13.5409 38.2218C12.8857 37.84 12.3011 37.4519 11.6635 37.0685C9.1838 35.5287 6.82751 33.9781 4.69345 32.5311C4.05473 32.081 3.55433 31.4651 3.24738 30.7511C2.94043 30.0372 2.83882 29.2529 2.95376 28.4847C3.37423 25.7776 4.15852 21.9496 4.85516 18.7441C4.846 18.6395 4.83838 18.5523 4.83075 18.4651L5.06268 17.461C5.84594 14.2304 6.70039 11.2043 7.59688 8.45562C7.83097 7.72535 8.2623 7.07187 8.84424 6.56581C9.42618 6.05975 10.1366 5.72036 10.8987 5.58433C14.2562 4.97438 17.7524 4.52796 21.4724 4.2025C25.1923 3.87705 28.5366 3.725 31.7843 3.68681C32.5593 3.68454 33.3194 3.89379 33.9811 4.29153C34.6428 4.68927 35.1803 5.26008 35.5346 5.94112C35.8348 6.52971 36.1395 7.17061 36.4413 7.77664C37.515 9.8962 38.5948 12.0855 39.5901 14.5281C39.741 14.8311 39.8742 15.1357 40.009 15.4577L40.1407 15.7448C41.5059 18.9632 42.665 22.059 43.6679 24.9929C43.9023 25.7101 43.9362 26.477 43.766 27.2124C43.5958 27.9478 43.2278 28.6245 42.701 29.1707Z" fill="#EFBF6A"/>
<path d="M5.13608 17.4553C4.33434 20.8808 3.41713 25.4232 2.95664 28.4851C2.83244 29.2496 2.92789 30.0328 3.23209 30.7455C3.5363 31.4581 4.03703 32.0715 4.67718 32.5156C6.82191 34.0847 9.17821 35.6353 11.6296 37.0546C12.2672 37.438 12.8518 37.8261 13.507 38.2079C15.2327 39.2515 16.9316 40.1921 18.6083 41.0819L25.6446 32.7717L5.13608 17.4553Z" fill="#D3923C"/>
<path d="M42.7193 29.1514C40.4004 31.4799 37.804 33.8855 35.0136 36.3079C33.8105 37.3794 32.1497 38.7017 30.4843 39.9718C29.203 40.9622 27.9394 41.9511 26.9365 42.6713C26.3138 43.1355 25.5721 43.4177 24.796 43.4856C24.0198 43.5535 23.2404 43.4044 22.5466 43.0554C21.2837 42.428 19.9618 41.7356 18.6384 41.0257L15.3394 39.2589L39.6537 14.417L40.1706 15.6542C41.5358 18.8726 42.6949 21.9685 43.6977 24.9023C43.9448 25.6304 43.9842 26.4121 43.8116 27.1616C43.639 27.9112 43.2611 28.5996 42.7193 29.1514Z" fill="#C67C12"/>
</svg>
