<svg width="34" height="35" viewBox="0 0 34 35" fill="none" xmlns="http://www.w3.org/2000/svg">
<path d="M15.2847 1.68652L19.0721 1.68652C19.5442 1.68653 19.8842 2.13969 19.7522 2.59298L19.0809 4.89702C18.9929 5.19935 18.7158 5.40723 18.4009 5.40723H15.956C15.6411 5.40723 15.364 5.19935 15.2759 4.89702L14.6047 2.59298C14.4726 2.1397 14.8126 1.68653 15.2847 1.68652Z" fill="white"/>
<path d="M9.6459 9.86209C9.15839 9.50569 8.59306 8.82625 8.59308 7.84002C8.59313 5.56518 11.4861 5.22857 13.7178 6.4468C14.8965 7.06227 15.8287 8.14271 16.2314 9.42153L16.2327 9.41968L16.2424 9.45148C16.3148 9.68939 16.4355 10.0861 16.9951 10.0861C17.5171 10.0861 17.6239 9.79547 17.7255 9.51922C17.7379 9.48564 17.7501 9.45228 17.7631 9.41968L17.772 9.42358C18.1736 8.14639 19.1032 7.06688 20.2792 6.45046C22.5118 5.2279 25.4106 5.56291 25.4107 7.84002C25.4107 8.82625 24.8454 9.50569 24.3578 9.86209C24.2154 9.9662 24.0183 9.8848 23.9045 9.75005C23.3304 9.07059 21.6303 8.67698 20.7754 9.6768C20.5361 10.0125 20.3898 10.409 20.3898 10.8175C20.3898 11.7979 20.8827 12.3576 21.4472 12.5777C22.03 12.8048 22.9165 12.7503 23.795 11.9645C24.8865 10.9882 25.6687 10.3201 26.3459 9.74704L26.6637 9.47846C27.205 9.02135 27.6846 8.61621 28.2396 8.12432C29.1517 7.31575 30.7712 7.37531 31.4559 8.68145C32.9997 11.6265 32.7565 15.1716 31.5164 17.9749C30.289 20.7498 27.8885 23.193 24.7344 23.411C24.1051 23.4545 23.5794 23.1432 23.2754 22.7522C22.6339 21.9272 22.0907 21.8482 21.7849 21.8848C21.4042 21.9302 20.9888 22.2019 20.7348 22.647C20.4904 23.0752 20.4723 23.5234 20.6677 23.8937C20.8648 24.2674 21.4415 24.8622 23.001 25.1939C23.6908 25.3407 24.5823 26.093 24.2945 27.2292C23.7032 29.5632 21.0448 31.6567 17.0186 31.6567C13.0027 31.6567 10.3029 29.5713 9.70958 27.2292C9.42173 26.093 10.3133 25.3407 11.0031 25.1939C12.5626 24.8622 13.1392 24.2674 13.3364 23.8937C13.5317 23.5234 13.5136 23.0752 13.2692 22.647C13.0153 22.2019 12.5998 21.9302 12.2191 21.8848C11.9134 21.8482 11.3702 21.9272 10.7287 22.7522C10.4247 23.1432 9.89898 23.4545 9.26963 23.411C6.11558 23.193 3.71509 20.7498 2.48761 17.9749C1.24756 15.1716 1.0043 11.6265 2.54815 8.68145C3.23284 7.37531 4.85232 7.31575 5.7645 8.12432C6.31945 8.61623 6.7991 9.02136 7.34035 9.4785L7.6581 9.74704C8.33537 10.3201 9.11759 10.9882 10.209 11.9645C11.0875 12.7503 11.974 12.8048 12.5568 12.5777C13.1214 12.3576 13.6143 11.7979 13.6143 10.8175C13.6143 10.4098 13.4685 10.0142 13.2302 9.67892C12.3759 8.67643 10.6737 9.07011 10.0993 9.75005C9.98545 9.8848 9.78831 9.9662 9.6459 9.86209Z" fill="white"/>
</svg>
