<svg width="28" height="29" viewBox="0 0 28 29" fill="none" xmlns="http://www.w3.org/2000/svg">
<path d="M8.40388 20.0142C10.5009 22.0998 13.6806 25.7935 16.8736 25.7935C23.0335 25.7935 23.9964 20.39 23.7508 16.4602C23.4744 12.0392 25.4701 10.3199 25.2245 9.09179C23.5052 7.86372 20.4088 9.61436 21.049 14.0041C21.049 14.0041 18.8385 14.9865 17.6104 17.9339C16.8736 15.2321 19.5753 13.5128 19.5753 13.5128C17.6969 10.5314 15.006 5.2623 14.1718 3.44266C13.3376 1.62302 10.9788 2.70582 11.7157 4.42512C12.3173 5.82887 15.6455 12.5304 15.6455 12.5304L14.9087 13.0216C14.9087 13.0216 9.99639 6.14442 9.01393 4.67073C8.03147 3.19705 5.69814 4.91635 6.8034 6.39003C7.90867 7.86372 12.6981 14.7409 12.6981 14.7409L12.2069 15.2321C12.2069 15.2321 7.54024 10.0742 6.31217 8.84617C5.0841 7.61811 3.61042 9.3374 4.59288 10.5655C5.40223 11.5772 10.4876 16.9514 10.4876 16.9514L9.99639 17.6883C9.99639 17.6883 6.55779 14.9865 5.0841 13.7585C3.61042 12.5304 2.13674 14.0041 3.61042 15.4777C5.0841 16.9514 6.31217 17.9339 8.40388 20.0142Z" fill="white"/>
</svg>
