<svg width="24" height="25" viewBox="0 0 24 25" fill="none" xmlns="http://www.w3.org/2000/svg">
<path d="M6.65143 17.3364C8.44888 19.1241 11.1743 22.2901 13.9112 22.2901C19.1911 22.2901 20.0164 17.6585 19.8059 14.2901C19.5691 10.5006 21.2796 9.02696 21.0691 7.97433C19.5954 6.92169 16.9414 8.42224 17.4901 12.1849C17.4901 12.1849 15.5954 13.027 14.5428 15.5533C13.9112 13.2375 16.227 11.7638 16.227 11.7638C14.6169 9.20831 12.3104 4.6919 11.5954 3.13221C10.8803 1.57252 8.85854 2.50064 9.49012 3.97432C10.0058 5.17754 12.8585 10.9217 12.8585 10.9217L12.227 11.3427C12.227 11.3427 8.01643 5.44801 7.17433 4.18485C6.33222 2.92169 4.33222 4.39537 5.27959 5.65853C6.22696 6.92169 10.3322 12.8164 10.3322 12.8164L9.91117 13.2375C9.91117 13.2375 5.91117 8.81642 4.85854 7.76379C3.80591 6.71117 2.54275 8.18485 3.38485 9.23748C4.07859 10.1046 8.43749 14.7112 8.43749 14.7112L8.01643 15.3427C8.01643 15.3427 5.06906 13.0269 3.80591 11.9743C2.54275 10.9217 1.27959 12.1849 2.54275 13.448C3.80591 14.7112 4.85854 15.5533 6.65143 17.3364Z" fill="#21201F"/>
</svg>
