<svg width="24" height="24" viewBox="0 0 24 24" fill="none" xmlns="http://www.w3.org/2000/svg">
<path d="M8.30469 9.18457C8.92147 10.0461 9.78467 10.662 10.7715 11.0312L14.4727 12.3848C14.6586 12.4819 15.5822 12.6313 15.9521 13.123L19.7764 19.0312C20.1463 19.5235 20.0233 20.1386 19.6533 20.6309L19.0361 21L15.3359 16.0771L16.5693 21H10.4014L9.41504 17.5537C9.04496 15.4614 8.18051 13.4926 7.07031 11.7695L5.38281 8.96289C6.37035 8.6537 6.70578 8.26522 6.9834 7.24609L8.30469 9.18457ZM12.46 6C13.8186 6 14.9199 7.10244 14.9199 8.46191C14.9197 9.82121 13.8185 10.9229 12.46 10.9229C11.1015 10.9228 10.0002 9.82118 10 8.46191C10 7.10247 11.1014 6.00004 12.46 6ZM5 3C5.55228 3 6 3.44772 6 4V7C6 7.55228 5.55228 8 5 8H4C3.44772 8 3 7.55228 3 7V4C3 3.44772 3.44772 3 4 3H5Z" fill="black"/>
</svg>
