<svg width="24" height="24" viewBox="0 0 24 24" fill="none" xmlns="http://www.w3.org/2000/svg">
<path d="M6.66309 8.07526C7.69764 7.68861 8.84953 8.21456 9.23633 9.24909L11.0127 14.0001H16.8086C17.1192 14.0002 17.4124 14.1444 17.6016 14.3907L21.9092 20.0001L21.1162 20.587C20.6678 20.9189 20.0344 20.8194 19.709 20.3663L16.501 15.8995L9.78809 16.7286C9.0152 16.8239 8.26389 16.4618 7.85352 15.8126C7.75771 15.6979 7.67163 15.5721 7.60156 15.4337L4.32129 8.95124L6.66309 8.07526ZM6.95117 16.0245C7.53074 17.1569 8.76177 17.8007 10.0225 17.6309L15.332 16.9161L16.6006 18.7628L10.2891 19.6133C8.18804 19.8962 6.13679 18.8228 5.1709 16.9356L1.10938 9.00007H3.35645L6.95117 16.0245ZM3.0127 4.83991C3.50986 3.90025 4.67454 3.54106 5.61426 4.03815C6.55395 4.53535 7.35452 5.93438 6.85742 6.87409C6.3602 7.81371 4.75319 7.93857 3.81348 7.44147C2.87387 6.94429 2.51561 5.7796 3.0127 4.83991Z" fill="black"/>
</svg>
