<svg width="32" height="32" viewBox="0 0 32 32" fill="none" xmlns="http://www.w3.org/2000/svg">
<rect width="32" height="32" rx="12" fill="#21201F"/>
<path fill-rule="evenodd" clip-rule="evenodd" d="M25.1667 13.4833L24.5268 19.0603L22.783 17.5724L19.818 21.1655C18.4556 22.8165 16.1736 23.1584 14.7315 21.9279C13.2893 20.6974 13.2241 18.3528 14.5865 16.7017L16.5632 14.3063C17.3805 13.3158 17.3941 11.9538 16.5925 11.2699C15.7909 10.5859 14.4742 10.836 13.6568 11.8265L11.0951 14.9309C11.567 15.7551 11.5105 16.8283 10.8661 17.6092C10.0472 18.6015 8.60294 18.7397 7.63977 17.9179C6.6766 17.0961 6.55962 15.6257 7.37844 14.6334C8.02283 13.8525 9.05244 13.6095 9.93255 13.939L12.4943 10.8346C13.8567 9.18353 16.1387 8.84167 17.5808 10.0722C19.023 11.3027 19.0881 13.6472 17.7257 15.2983L15.7491 17.6937C14.9317 18.6842 14.9182 20.0462 15.7198 20.7302C16.5214 21.4141 17.8381 21.164 18.6554 20.1735L21.6204 16.5804L19.8766 15.0925L25.1667 13.4833Z" fill="white"/>
</svg>
