<svg width="56" height="56" viewBox="0 0 56 56" fill="none" xmlns="http://www.w3.org/2000/svg">
<g clip-path="url(#clip0_1055_25016)">
<rect x="8" y="8.00098" width="40" height="40" rx="16" fill="#FCE000"/>
<mask id="mask0_1055_25016" style="mask-type:alpha" maskUnits="userSpaceOnUse" x="8" y="8" width="40" height="41">
<path d="M8 27.201C8 20.4803 8 17.12 9.30792 14.5531C10.4584 12.2951 12.2942 10.4594 14.5521 9.3089C17.1191 8.00098 20.4794 8.00098 27.2 8.00098H28.8C35.5206 8.00098 38.8809 8.00098 41.4479 9.3089C43.7058 10.4594 45.5416 12.2951 46.6921 14.5531C48 17.12 48 20.4803 48 27.201V28.801C48 35.5216 48 38.8819 46.6921 41.4489C45.5416 43.7068 43.7058 45.5426 41.4479 46.6931C38.8809 48.001 35.5206 48.001 28.8 48.001H27.2C20.4794 48.001 17.1191 48.001 14.5521 46.6931C12.2942 45.5426 10.4584 43.7068 9.30792 41.4489C8 38.8819 8 35.5216 8 28.801V27.201Z" fill="white"/>
</mask>
<g mask="url(#mask0_1055_25016)">
<rect x="28" y="28.001" width="20" height="20" fill="#2B2A28"/>
<rect x="8" y="28.001" width="20" height="20" fill="url(#paint0_linear_1055_25016)"/>
<rect x="8" y="8.00098" width="40" height="20" fill="url(#paint1_linear_1055_25016)"/>
</g>
</g>
<defs>
<linearGradient id="paint0_linear_1055_25016" x1="18" y1="28.001" x2="18" y2="48.001" gradientUnits="userSpaceOnUse">
<stop stop-color="#F2F1EF"/>
<stop offset="1" stop-color="#FCF8E8"/>
</linearGradient>
<linearGradient id="paint1_linear_1055_25016" x1="28" y1="8.00098" x2="28" y2="28.001" gradientUnits="userSpaceOnUse">
<stop stop-color="#FDD927"/>
<stop offset="1" stop-color="#FBB806"/>
</linearGradient>
<clipPath id="clip0_1055_25016">
<rect x="8" y="8.00098" width="40" height="40" rx="16" fill="white"/>
</clipPath>
</defs>
</svg>
