<svg width="24" height="25" viewBox="0 0 24 25" fill="none" xmlns="http://www.w3.org/2000/svg">
<path d="M5 16.501L5 8.50098C5 7.54173 5.00108 6.92246 5.03342 6.4485C5.06453 5.9925 5.11777 5.81884 5.15224 5.73561C5.35523 5.24555 5.74458 4.85621 6.23463 4.65322C6.31786 4.61874 6.49152 4.56551 6.94752 4.5344C7.42148 4.50206 8.04075 4.50098 9 4.50098L14 4.50098V2.50098H9C7.13623 2.50098 6.20435 2.50098 5.46927 2.80546C4.48915 3.21143 3.71046 3.99013 3.30448 4.97024C3 5.70533 3 6.63721 3 8.50098V16.501C3 18.3647 3 19.2966 3.30448 20.0317C3.71046 21.0118 4.48915 21.7905 5.46927 22.1965C6.20435 22.501 7.13623 22.501 9 22.501H14V20.501H9C8.04075 20.501 7.42148 20.4999 6.94752 20.4676C6.49152 20.4364 6.31786 20.3832 6.23463 20.3487C5.74458 20.1457 5.35523 19.7564 5.15224 19.2663C5.11777 19.1831 5.06453 19.0095 5.03342 18.5535C5.00108 18.0795 5 17.4602 5 16.501Z" fill="#21201F"/>
<path d="M15.8787 9.20807L17.2929 7.79385L22 12.501L17.2929 17.2081L15.8787 15.7939L18.1716 13.501L8.96937 13.501V11.501H18.1716L15.8787 9.20807Z" fill="#21201F"/>
</svg>
