<svg width="28" height="28" viewBox="0 0 28 28" fill="none" xmlns="http://www.w3.org/2000/svg">
<path d="M14.0088 1.94141C16.8628 1.94355 19.6353 2.89742 21.8867 4.65137C24.1379 6.40527 25.7402 8.85942 26.4404 11.626C27.1407 14.3927 26.8989 17.314 25.7529 19.9277C24.607 22.5415 22.6226 24.699 20.1133 26.0586L19 24.0039C21.0524 22.8919 22.6759 21.128 23.6133 18.9902C24.5506 16.8522 24.7486 14.4623 24.1758 12.1992C23.603 9.9363 22.2925 7.92877 20.4512 6.49414C18.6097 5.05954 16.3422 4.27917 14.0078 4.27734C11.6734 4.27559 9.40428 5.05248 7.56055 6.48438C5.71707 7.91619 4.40333 9.92162 3.82715 12.1836C3.25097 14.4458 3.44574 16.8362 4.37988 18.9756C5.31405 21.1148 6.93461 22.882 8.98535 23.9971L7.86914 26.0488C5.36193 24.6855 3.38029 22.5256 2.23828 19.9102C1.09627 17.2947 0.859093 14.3731 1.56348 11.6074C2.26788 8.84174 3.87388 6.38923 6.12793 4.63867C8.38182 2.8883 11.1551 1.93937 14.0088 1.94141ZM14.0059 6.6084C15.8219 6.60979 17.5859 7.21598 19.0186 8.33203C20.4513 9.44818 21.4714 11.0108 21.917 12.7715C22.3624 14.532 22.2077 16.3906 21.4785 18.0537C20.7493 19.717 19.4865 21.0899 17.8896 21.9551L16.7812 19.9092C17.9231 19.2906 18.8262 18.3085 19.3477 17.1191C19.869 15.9299 19.9788 14.6006 19.6602 13.3418C19.3415 12.083 18.6122 10.966 17.5879 10.168C16.5635 9.37008 15.3024 8.93652 14.0039 8.93555C12.7053 8.93459 11.4436 9.36656 10.418 10.1631C9.39235 10.9596 8.66133 12.0756 8.34082 13.334C8.02044 14.5923 8.12885 15.9213 8.64844 17.1113C9.16809 18.3014 10.0691 19.2849 11.21 19.9053L10.0986 21.9492C8.50319 21.0817 7.2424 19.7072 6.51562 18.043C5.78887 16.3785 5.63768 14.5188 6.08594 12.7588C6.53422 10.9991 7.55609 9.43909 8.99023 8.3252C10.4246 7.2112 12.1897 6.60703 14.0059 6.6084ZM14 11.8584C15.6105 11.8586 16.9158 13.1639 16.916 14.7744C16.916 16.3851 15.6107 17.6912 14 17.6914C12.3892 17.6914 11.083 16.3852 11.083 14.7744C11.0832 13.1638 12.3893 11.8584 14 11.8584Z" fill="black"/>
</svg>
