<svg width="22" height="22" viewBox="0 0 22 22" fill="none" xmlns="http://www.w3.org/2000/svg">
<mask id="path-1-outside-1_1892_6388" maskUnits="userSpaceOnUse" x="0.125" y="0" width="22" height="22" fill="black">
<rect fill="white" x="0.125" width="22" height="22"/>
<path d="M11.125 1C13.7772 1 16.3209 2.05335 18.1963 3.92871C20.0717 5.80407 21.125 8.34784 21.125 11C21.125 13.6522 20.0717 16.1959 18.1963 18.0713C16.3209 19.9467 13.7772 21 11.125 21C8.47284 21 5.92907 19.9467 4.05371 18.0713C2.17835 16.1959 1.125 13.6522 1.125 11C1.125 8.34784 2.17835 5.80407 4.05371 3.92871C5.92907 2.05335 8.47284 1 11.125 1ZM6.2207 17.3184C7.61639 18.4017 9.33941 19 11.125 19C13.2467 19 15.2819 18.1575 16.7822 16.6572C18.2825 15.1569 19.125 13.1217 19.125 11C19.125 9.21467 18.5264 7.49226 17.4434 6.09668L6.2207 17.3184ZM11.125 3C9.00327 3 6.96806 3.84248 5.46777 5.34277C3.96748 6.84306 3.125 8.87827 3.125 11C3.125 12.7856 3.72326 14.5086 4.80664 15.9043L16.0293 4.68164C14.6336 3.59826 12.9106 3 11.125 3Z"/>
</mask>
<path d="M11.125 1C13.7772 1 16.3209 2.05335 18.1963 3.92871C20.0717 5.80407 21.125 8.34784 21.125 11C21.125 13.6522 20.0717 16.1959 18.1963 18.0713C16.3209 19.9467 13.7772 21 11.125 21C8.47284 21 5.92907 19.9467 4.05371 18.0713C2.17835 16.1959 1.125 13.6522 1.125 11C1.125 8.34784 2.17835 5.80407 4.05371 3.92871C5.92907 2.05335 8.47284 1 11.125 1ZM6.2207 17.3184C7.61639 18.4017 9.33941 19 11.125 19C13.2467 19 15.2819 18.1575 16.7822 16.6572C18.2825 15.1569 19.125 13.1217 19.125 11C19.125 9.21467 18.5264 7.49226 17.4434 6.09668L6.2207 17.3184ZM11.125 3C9.00327 3 6.96806 3.84248 5.46777 5.34277C3.96748 6.84306 3.125 8.87827 3.125 11C3.125 12.7856 3.72326 14.5086 4.80664 15.9043L16.0293 4.68164C14.6336 3.59826 12.9106 3 11.125 3Z" fill="#FA3E2C"/>
<path d="M18.1963 3.92871L18.5498 3.57516V3.57516L18.1963 3.92871ZM18.1963 18.0713L18.5498 18.4248L18.1963 18.0713ZM4.05371 18.0713L3.70016 18.4248H3.70016L4.05371 18.0713ZM4.05371 3.92871L3.70016 3.57516L4.05371 3.92871ZM6.2207 17.3184L5.86717 16.9648L5.46624 17.3657L5.91411 17.7133L6.2207 17.3184ZM16.7822 16.6572L17.1358 17.0108L16.7822 16.6572ZM17.4434 6.09668L17.8384 5.79013L17.4907 5.34222L17.0898 5.74311L17.4434 6.09668ZM5.46777 5.34277L5.82133 5.69633L5.46777 5.34277ZM4.80664 15.9043L4.41167 16.2109L4.75931 16.6587L5.16019 16.2579L4.80664 15.9043ZM16.0293 4.68164L16.3829 5.03519L16.7837 4.63431L16.3359 4.28667L16.0293 4.68164ZM11.125 1V1.5C13.6446 1.5 16.0612 2.5007 17.8427 4.28226L18.1963 3.92871L18.5498 3.57516C16.5807 1.606 13.9097 0.5 11.125 0.5V1ZM18.1963 3.92871L17.8427 4.28226C19.6243 6.06383 20.625 8.4804 20.625 11H21.125H21.625C21.625 8.21527 20.519 5.54432 18.5498 3.57516L18.1963 3.92871ZM21.125 11H20.625C20.625 13.5196 19.6243 15.9362 17.8427 17.7177L18.1963 18.0713L18.5498 18.4248C20.519 16.4557 21.625 13.7847 21.625 11H21.125ZM18.1963 18.0713L17.8427 17.7177C16.0612 19.4993 13.6446 20.5 11.125 20.5V21V21.5C13.9097 21.5 16.5807 20.394 18.5498 18.4248L18.1963 18.0713ZM11.125 21V20.5C8.6054 20.5 6.18883 19.4993 4.40726 17.7177L4.05371 18.0713L3.70016 18.4248C5.66932 20.394 8.34027 21.5 11.125 21.5V21ZM4.05371 18.0713L4.40726 17.7177C2.6257 15.9362 1.625 13.5196 1.625 11H1.125H0.625C0.625 13.7847 1.731 16.4557 3.70016 18.4248L4.05371 18.0713ZM1.125 11H1.625C1.625 8.4804 2.6257 6.06383 4.40726 4.28226L4.05371 3.92871L3.70016 3.57516C1.731 5.54432 0.625 8.21527 0.625 11H1.125ZM4.05371 3.92871L4.40726 4.28226C6.18883 2.5007 8.6054 1.5 11.125 1.5V1V0.5C8.34027 0.5 5.66932 1.606 3.70016 3.57516L4.05371 3.92871ZM6.2207 17.3184L5.91411 17.7133C7.39678 18.8642 9.22748 19.5 11.125 19.5V19V18.5C9.45134 18.5 7.836 17.9392 6.52729 16.9234L6.2207 17.3184ZM11.125 19V19.5C13.3793 19.5 15.5417 18.6049 17.1358 17.0108L16.7822 16.6572L16.4287 16.3037C15.0222 17.7101 13.1142 18.5 11.125 18.5V19ZM16.7822 16.6572L17.1358 17.0108C18.7299 15.4167 19.625 13.2543 19.625 11H19.125H18.625C18.625 12.9892 17.8351 14.8972 16.4287 16.3037L16.7822 16.6572ZM19.125 11H19.625C19.625 9.10264 18.9889 7.27259 17.8384 5.79013L17.4434 6.09668L17.0484 6.40323C18.064 7.71193 18.625 9.3267 18.625 11H19.125ZM17.4434 6.09668L17.0898 5.74311L5.86717 16.9648L6.2207 17.3184L6.57424 17.6719L17.7969 6.45025L17.4434 6.09668ZM11.125 3V2.5C8.87074 2.5 6.70834 3.3951 5.11422 4.98922L5.46777 5.34277L5.82133 5.69633C7.22779 4.28986 9.13579 3.5 11.125 3.5V3ZM5.46777 5.34277L5.11422 4.98922C3.5201 6.58334 2.625 8.74574 2.625 11H3.125H3.625C3.625 9.01079 4.41486 7.10279 5.82133 5.69633L5.46777 5.34277ZM3.125 11H2.625C2.625 12.8975 3.26078 14.7282 4.41167 16.2109L4.80664 15.9043L5.20161 15.5977C4.18575 14.289 3.625 12.6737 3.625 11H3.125ZM4.80664 15.9043L5.16019 16.2579L16.3829 5.03519L16.0293 4.68164L15.6757 4.32809L4.45309 15.5507L4.80664 15.9043ZM16.0293 4.68164L16.3359 4.28667C14.8532 3.13578 13.0225 2.5 11.125 2.5V3V3.5C12.7987 3.5 14.414 4.06075 15.7227 5.07661L16.0293 4.68164Z" fill="#FA3E2C" mask="url(#path-1-outside-1_1892_6388)"/>
</svg>
