<svg width="24" height="24" viewBox="0 0 24 24" fill="none" xmlns="http://www.w3.org/2000/svg">
<path fill-rule="evenodd" clip-rule="evenodd" d="M15.9099 6.53357C15.9099 7.93282 14.7756 9.72521 13.3763 9.72521C11.9771 9.72521 10.8427 7.93282 10.8427 6.53357C10.8427 5.13432 11.9771 4 13.3763 4C14.7756 4 15.9099 5.13432 15.9099 6.53357ZM15.3178 10.7546L11.1184 10.5253C10.8145 10.5087 10.5099 10.5384 10.2149 10.6135L9.66016 10.7546C9.07349 10.8911 6.60233 11.9984 6 12.0002L1 12.3472L1.00486 13.423C1.01448 13.471 1.02272 13.5213 1.03116 13.5727C1.10073 13.997 1.18321 14.5001 2.16005 14.5001L6.19298 14.5002L9 14L11.16 20.0002H17.5391L16.2592 15.0236L20.0994 20.094L20.7395 19.7137C21.1235 19.2067 21.2515 18.5729 20.8675 18.0658L16.652 11.1993C16.3517 10.8028 15.8226 10.7824 15.5143 10.7705C15.4284 10.7672 15.3597 10.7645 15.3178 10.7546Z" fill="#21201F"/>
</svg>
