<svg width="32" height="32" viewBox="0 0 32 32" fill="none" xmlns="http://www.w3.org/2000/svg">
<rect width="32" height="32" rx="12" fill="#21201F"/>
<path d="M13.9369 7.56125C14.2483 8.6394 15.5212 9.76802 16.5993 9.45663C17.6774 9.14523 18.1526 7.51174 17.8412 6.4336C17.5298 5.35545 16.4033 4.73388 15.3252 5.04527C14.247 5.35667 13.6255 6.48311 13.9369 7.56125Z" fill="white"/>
<path d="M23.3872 4.38867C22.6483 4.38867 22.0149 4.72042 21.6983 5.38391L19.9038 8.14846C19.376 8.92253 18.6372 9.47544 17.7927 9.80719L14.626 11.0236C14.2038 11.0236 13.676 11.2448 13.3594 11.6871L10.0872 16.995C9.77049 17.4373 9.87604 17.9903 10.1927 18.4326L10.7205 18.7643L13.8872 14.3411L12.8316 19.8702L8.60938 27.6109H10.7205L15.9983 18.7643L14.9427 27.6109H17.0538L18.1094 19.8702L18.9538 15.668C19.2705 13.7881 20.0094 12.0188 20.9594 10.4707L24.4427 4.38867H23.3872Z" fill="white"/>
</svg>
