<svg width="32" height="32" viewBox="0 0 32 32" fill="none" xmlns="http://www.w3.org/2000/svg">
<rect width="32" height="32" rx="9.6" fill="#FCE000"/>
<path fill-rule="evenodd" clip-rule="evenodd" d="M19.1271 11.6274C19.1271 12.7468 18.2197 14.1808 17.1003 14.1808C15.9809 14.1808 15.0734 12.7468 15.0734 11.6274C15.0734 10.508 15.9809 9.60059 17.1003 9.60059C18.2197 9.60059 19.1271 10.508 19.1271 11.6274ZM18.6535 15.0043L15.2939 14.8208C15.0508 14.8075 14.8071 14.8313 14.5712 14.8914L14.1273 15.0043C13.658 15.1135 11.6811 15.9993 11.1992 16.0008L7.19922 16.2784L7.20311 17.139C7.2108 17.1774 7.2174 17.2177 7.22414 17.2588C7.2798 17.5982 7.34579 18.0007 8.12726 18.0007L11.3536 18.0008L13.5992 17.6006L15.3272 22.4008H20.4305L19.4066 18.4195L22.4787 22.4758L22.9908 22.1716C23.298 21.766 23.4004 21.2589 23.0932 20.8533L19.7208 15.3601C19.4806 15.0429 19.0573 15.0265 18.8107 15.017C18.7419 15.0144 18.687 15.0122 18.6535 15.0043Z" fill="#21201F"/>
</svg>
