<svg width="32" height="32" viewBox="0 0 32 32" fill="none" xmlns="http://www.w3.org/2000/svg">
<path fill-rule="evenodd" clip-rule="evenodd" d="M4 22.6666C4 23.9066 4 24.5266 4.1363 25.0353C4.50617 26.4156 5.58436 27.4938 6.96472 27.8637C7.47339 28 8.09337 28 9.33333 28C10.5733 28 11.1933 28 11.7019 27.8637C13.0823 27.4938 14.1605 26.4156 14.5304 25.0353C14.6667 24.5266 14.6667 23.9066 14.6667 22.6666V9.33333C14.6667 8.09337 14.6667 7.47339 14.5304 6.96472C14.1605 5.58436 13.0823 4.50616 11.7019 4.1363C11.1933 4 10.5733 4 9.33333 4C8.09337 4 7.47339 4 6.96472 4.1363C5.58436 4.50616 4.50617 5.58436 4.1363 6.96472C4 7.47339 4 8.09337 4 9.33333V22.6666ZM12 22.6666V9.33333C12 8.68918 11.9994 8.29502 11.9857 7.99628C11.9728 7.71187 11.9519 7.64494 11.9546 7.65491C11.8313 7.19479 11.4719 6.83539 11.0118 6.7121C11.0024 6.70985 10.9205 6.69234 10.6704 6.68093C10.3716 6.66731 9.97748 6.66667 9.33333 6.66667C8.68918 6.66667 8.29502 6.66731 7.99628 6.68093C7.71187 6.69391 7.64494 6.71477 7.65491 6.7121C7.19479 6.83539 6.83539 7.19479 6.7121 7.65491C6.71477 7.64494 6.69391 7.71187 6.68093 7.99628C6.66731 8.29502 6.66667 8.68918 6.66667 9.33333V22.6666C6.66667 23.3108 6.66731 23.705 6.68093 24.0037C6.69391 24.2881 6.71477 24.355 6.7121 24.3451C6.83539 24.8052 7.19479 25.1646 7.65491 25.2879C7.64494 25.2852 7.71187 25.3061 7.99628 25.319C8.29502 25.3327 8.68918 25.3333 9.33333 25.3333C9.97748 25.3333 10.3716 25.3327 10.6704 25.319C10.9382 25.3068 11.0127 25.2876 11.0127 25.2876C11.4728 25.1644 11.8313 24.8052 11.9546 24.3451C11.9519 24.355 11.9728 24.2881 11.9857 24.0037C11.9994 23.705 12 23.3108 12 22.6666Z" fill="#21201F"/>
<path fill-rule="evenodd" clip-rule="evenodd" d="M17.3333 22.6666C17.3333 23.9066 17.3333 24.5266 17.4696 25.0353C17.8395 26.4156 18.9177 27.4938 20.2981 27.8637C20.8067 28 21.4267 28 22.6667 28C23.9066 28 24.5266 28 25.0353 27.8637C26.4156 27.4938 27.4938 26.4156 27.8637 25.0353C28 24.5266 28 23.9066 28 22.6666V9.33333C28 8.09337 28 7.47339 27.8637 6.96472C27.4938 5.58436 26.4156 4.50616 25.0353 4.1363C24.5266 4 23.9066 4 22.6667 4C21.4267 4 20.8067 4 20.2981 4.1363C18.9177 4.50616 17.8395 5.58436 17.4696 6.96472C17.3333 7.47339 17.3333 8.09337 17.3333 9.33333V22.6666ZM25.3333 22.6666V9.33333C25.3333 8.68918 25.3327 8.29502 25.3191 7.99628C25.3061 7.71187 25.2852 7.64494 25.2879 7.65491C25.1646 7.19479 24.8052 6.83539 24.3451 6.7121C24.3357 6.70985 24.2538 6.69234 24.0037 6.68093C23.705 6.66731 23.3108 6.66667 22.6667 6.66667C22.0225 6.66667 21.6284 6.66731 21.3296 6.68093C21.0621 6.69313 20.9873 6.71233 20.9873 6.71233C20.5272 6.83562 20.1687 7.19479 20.0454 7.65491C20.0481 7.64494 20.0272 7.71187 20.0143 7.99628C20.0006 8.29502 20 8.68918 20 9.33333V22.6666C20 23.3108 20.0006 23.705 20.0143 24.0037C20.0272 24.2881 20.0481 24.355 20.0454 24.3451C20.1687 24.8052 20.5281 25.1646 20.9882 25.2879C20.9783 25.2852 21.0452 25.3061 21.3296 25.319C21.6284 25.3327 22.0225 25.3333 22.6667 25.3333C23.3108 25.3333 23.705 25.3327 24.0037 25.319C24.2719 25.3068 24.346 25.2876 24.346 25.2876C24.8061 25.1644 25.1646 24.8052 25.2879 24.3451C25.2852 24.355 25.3061 24.2881 25.3191 24.0037C25.3327 23.705 25.3333 23.3108 25.3333 22.6666Z" fill="#21201F"/>
</svg>
