<svg width="24" height="25" viewBox="0 0 24 25" fill="none" xmlns="http://www.w3.org/2000/svg">
<path fill-rule="evenodd" clip-rule="evenodd" d="M4.92893 5.42991C6.8043 3.55454 9.34784 2.50098 12 2.50098C14.6522 2.50098 17.1957 3.55454 19.0711 5.42991C20.9464 7.30527 22 9.84881 22 12.501C22 15.1531 20.9464 17.6967 19.0711 19.572C17.1957 21.4474 14.6522 22.501 12 22.501C9.34784 22.501 6.8043 21.4474 4.92893 19.572C3.05357 17.6967 2 15.1531 2 12.501C2 9.84881 3.05357 7.30527 4.92893 5.42991ZM12 4.50098C9.87827 4.50098 7.84344 5.34383 6.34315 6.84412C4.84285 8.34441 4 10.3792 4 12.501C4 14.6227 4.84285 16.6575 6.34315 18.1578C7.84344 19.6581 9.87827 20.501 12 20.501C14.1217 20.501 16.1566 19.6581 17.6569 18.1578C19.1571 16.6575 20 14.6227 20 12.501C20 10.3792 19.1571 8.34441 17.6569 6.84412C16.1566 5.34383 14.1217 4.50098 12 4.50098Z" fill="#21201F"/>
<path fill-rule="evenodd" clip-rule="evenodd" d="M9.75 11.751C10.9926 11.751 12 10.7436 12 9.50098C12 8.25834 10.9926 7.25098 9.75 7.25098C8.50736 7.25098 7.5 8.25834 7.5 9.50098C7.5 10.7436 8.50736 11.751 9.75 11.751ZM9.75 10.251C10.1642 10.251 10.5 9.91519 10.5 9.50098C10.5 9.08676 10.1642 8.75098 9.75 8.75098C9.33579 8.75098 9 9.08676 9 9.50098C9 9.91519 9.33579 10.251 9.75 10.251Z" fill="#21201F"/>
<path d="M14.25 8.00098H15.9375L9.75 17.001H8.0625L14.25 8.00098Z" fill="#21201F"/>
<path fill-rule="evenodd" clip-rule="evenodd" d="M16.5 15.501C16.5 16.7436 15.4926 17.751 14.25 17.751C13.0074 17.751 12 16.7436 12 15.501C12 14.2583 13.0074 13.251 14.25 13.251C15.4926 13.251 16.5 14.2583 16.5 15.501ZM15 15.501C15 15.9152 14.6642 16.251 14.25 16.251C13.8358 16.251 13.5 15.9152 13.5 15.501C13.5 15.0868 13.8358 14.751 14.25 14.751C14.6642 14.751 15 15.0868 15 15.501Z" fill="#21201F"/>
</svg>
