<svg width="22" height="21" viewBox="0 0 22 21" fill="none" xmlns="http://www.w3.org/2000/svg">
<path d="M0.769331 16.9996C1.76933 15.5186 4.26933 14.0186 6.45975 13.5141L8.7504 15.5598C10.3884 14.9864 11.8712 14.0411 13.0822 12.7981C14.321 11.5966 15.266 10.1257 15.8439 8.49963L13.7983 6.20898C14.2693 4.01855 15.7693 1.51855 17.2504 0.518555C18.2243 1.01759 19.3826 1.90298 20.324 2.77888C20.9394 3.35137 21.2176 4.19573 21.0639 5.02203C20.36 8.80788 18.2783 12.4217 15.5004 15.2496C12.718 18.0821 9.05723 20.171 5.25618 20.8317C4.43905 20.9737 3.60903 20.6928 3.04401 20.0857C2.16495 19.1411 1.27299 17.9769 0.769331 16.9996Z" fill="#00CA50"/>
</svg>
