<svg width="24" height="24" viewBox="0 0 24 24" fill="none" xmlns="http://www.w3.org/2000/svg">
<path fill-rule="evenodd" clip-rule="evenodd" d="M12 22C17.5228 22 22 17.5228 22 12C22 6.47715 17.5228 2 12 2C6.47715 2 2 6.47715 2 12C2 17.5228 6.47715 22 12 22ZM12 20C12.1504 20 12.414 19.9232 12.7719 19.5755C13.126 19.2315 13.5002 18.6873 13.8417 17.9457C14.3355 16.8734 14.7221 15.4726 14.8974 13.8831C13.9959 13.9585 13.0256 14 12 14C10.9744 14 10.0041 13.9585 9.10261 13.8831C9.27791 15.4726 9.66452 16.8734 10.1583 17.9457C10.4998 18.6873 10.874 19.2315 11.2281 19.5755C11.586 19.9232 11.8496 20 12 20ZM19.9522 12.8794C19.6453 15.6863 17.8863 18.0568 15.4425 19.2235C15.517 19.08 15.589 18.9327 15.6583 18.7822C16.3022 17.3841 16.763 15.6039 16.9306 13.6391C17.4616 13.554 17.9559 13.4561 18.4093 13.3475C18.9796 13.211 19.4989 13.0544 19.9522 12.8794ZM19.8947 10.6986C19.4658 8.07722 17.7629 5.88429 15.4425 4.77648C15.517 4.92001 15.589 5.06726 15.6583 5.21776C16.4351 6.90455 16.9455 9.14726 16.9959 11.5995C17.3334 11.5389 17.6498 11.4728 17.9436 11.4025C18.6835 11.2253 19.2511 11.0276 19.6422 10.8362C19.7469 10.7849 19.8297 10.7386 19.8947 10.6986ZM8.55753 19.2235C6.11366 18.0568 4.35468 15.6863 4.04778 12.8794C4.5011 13.0544 5.02038 13.211 5.59067 13.3475C6.04405 13.4561 6.53838 13.5541 7.06943 13.6391C7.23699 15.6039 7.69783 17.3841 8.34168 18.7822C8.41099 18.9327 8.48296 19.08 8.55753 19.2235ZM4.10531 10.6986C4.17031 10.7386 4.25311 10.785 4.3578 10.8362C4.74888 11.0276 5.31646 11.2253 6.05638 11.4025C6.35016 11.4728 6.66657 11.5389 7.00411 11.5995C7.05454 9.14726 7.56492 6.90455 8.34168 5.21776C8.41099 5.06726 8.48295 4.92001 8.55753 4.77648C6.23712 5.88429 4.53416 8.07724 4.10531 10.6986ZM12 4C11.8496 4 11.586 4.07675 11.2281 4.42449C10.874 4.76854 10.4998 5.31272 10.1583 6.05432C9.49006 7.5055 9.01812 9.55811 9.00051 11.8663C9.91358 11.9514 10.919 12 12 12C13.081 12 14.0864 11.9514 14.9995 11.8663C14.9819 9.55811 14.5099 7.5055 13.8417 6.05432C13.5002 5.31272 13.126 4.76854 12.7719 4.42449C12.414 4.07675 12.1504 4 12 4Z" fill="black"/>
</svg>
