<svg width="32" height="32" viewBox="0 0 32 32" fill="none" xmlns="http://www.w3.org/2000/svg">
<rect x="1.5" y="1.5" width="29" height="29" rx="10.5" fill="white"/>
<rect x="1.5" y="1.5" width="29" height="29" rx="10.5" stroke="#21201F" stroke-width="3"/>
<path d="M11.043 23V8.68H20.523V11.06H13.903V14.18H15.983C17.7964 14.18 19.1897 14.5333 20.163 15.24C21.1497 15.9333 21.643 16.9933 21.643 18.42C21.643 19.5 21.403 20.38 20.923 21.06C20.4564 21.7267 19.7897 22.22 18.923 22.54C18.0697 22.8467 17.063 23 15.903 23H11.043ZM15.903 20.62C16.8097 20.62 17.5097 20.4733 18.003 20.18C18.4964 19.8733 18.743 19.3267 18.743 18.54C18.743 17.22 17.8164 16.56 15.963 16.56H13.903V20.62H15.903Z" fill="#21201F"/>
</svg>
