<svg width="24" height="24" viewBox="0 0 24 24" fill="none" xmlns="http://www.w3.org/2000/svg">
<path d="M16 2.83398C19.5315 4.37721 22 7.8995 22 12C22 17.523 17.523 22 12 22C6.477 22 2 17.523 2 12C2 7.8995 4.46852 4.37721 8 2.83398V5.07324C7.39986 5.41978 6.8413 5.84425 6.34277 6.34277C4.84248 7.84306 4 9.87827 4 12C4 14.1217 4.84248 16.1569 6.34277 17.6572C7.84306 19.1575 9.87827 20 12 20C14.1217 20 16.1569 19.1575 17.6572 17.6572C19.1575 16.1569 20 14.1217 20 12C20 9.87827 19.1575 7.84306 17.6572 6.34277C17.1587 5.84425 16.6001 5.41978 16 5.07324V2.83398Z" fill="#8A8784"/>
<rect x="11" width="2" height="12" fill="#8A8784"/>
</svg>
