<svg width="32" height="32" viewBox="0 0 32 32" fill="none" xmlns="http://www.w3.org/2000/svg">
<path d="M15.999 1.33203C24.0992 1.33203 30.666 7.89885 30.666 15.999C30.6659 24.0991 24.0991 30.665 15.999 30.665C7.89893 30.665 1.33216 24.0991 1.33203 15.999C1.33203 7.89885 7.89885 1.33203 15.999 1.33203ZM22.2256 7.74902C22.2123 7.76297 19.6586 10.4395 15.999 10.4395C12.3394 10.4395 9.7857 7.76293 9.77246 7.74902L7.74902 9.77246C7.76211 9.7846 10.4395 12.2723 10.4395 15.999C10.4393 19.7347 7.74902 22.2256 7.74902 22.2256L9.77246 24.249C9.77246 24.249 12.3076 21.5576 15.999 21.5576C19.6904 21.5576 22.2256 24.249 22.2256 24.249L24.249 22.2256C24.249 22.2256 21.5587 19.7347 21.5586 15.999C21.5586 12.2723 24.2359 9.78462 24.249 9.77246L22.2256 7.74902Z" fill="#21201F"/>
</svg>
