<svg width="34" height="35" viewBox="0 0 34 35" fill="none" xmlns="http://www.w3.org/2000/svg">
<path fill-rule="evenodd" clip-rule="evenodd" d="M23.375 1.58398C24.5994 1.58398 25.3619 2.54762 25.5445 3.41013C25.7745 4.49614 26.8378 5.55944 27.9238 5.78945C28.7864 5.97213 29.75 6.7346 29.75 7.95898L29.75 26.3756C29.75 27.6 28.7864 28.3625 27.9239 28.5452C26.8378 28.7752 25.7745 29.8385 25.5445 30.9245C25.3619 31.787 24.5994 32.7506 23.375 32.7506H10.625C9.40062 32.7506 8.63814 31.787 8.45547 30.9245C8.22546 29.8385 7.16216 28.7752 6.07615 28.5452C5.21363 28.3625 4.25 27.6 4.25 26.3756L4.25 7.95898C4.25 6.7346 5.21363 5.97213 6.07615 5.78945C7.16216 5.55944 8.22546 4.49615 8.45547 3.41014C8.63814 2.54762 9.40062 1.58398 10.625 1.58398L23.375 1.58398ZM17.6597 10.084L16.3399 10.084L14.5365 14.7059L9.9161 16.5097V17.8293L14.5365 19.6331L16.3399 24.2551L17.6597 24.2551L19.4629 19.6331L24.0833 17.8293V16.5097L19.4629 14.7059L17.6597 10.084Z" fill="white"/>
</svg>
