<svg width="24" height="24" viewBox="0 0 24 24" fill="none" xmlns="http://www.w3.org/2000/svg">
<path d="M17.7503 14.265L19.1707 15.4246L16.8817 18.1985C15.2468 20.1798 12.5084 20.59 10.7778 19.1134C9.04726 17.6368 8.96905 14.8233 10.6039 12.8421L12.9759 9.9676C13.9567 8.779 13.973 7.14456 13.0111 6.32383C12.0492 5.5031 10.4691 5.80318 9.48829 6.99178L9.44796 7.04065L8.04128 5.86076L8.09323 5.80146C9.72812 3.82022 12.4665 3.40999 14.1971 4.88659C15.9276 6.36319 16.0059 9.17669 14.371 11.1579L11.999 14.0324C11.0182 15.221 11.0019 16.8554 11.9638 17.6762C12.9257 18.4969 14.5058 18.1968 15.4866 17.0082L17.7503 14.265Z" fill="black"/>
<path d="M3.91428 12.2873L5.40587 15.3479L5.80258 15.3102L8.16117 7.48074L7.8355 7.21289L0.589844 11.0019L0.627525 11.3986L3.91428 12.2873Z" fill="black"/>
<path d="M23.1887 12C23.1887 13.3807 22.0695 14.5 20.6887 14.5C19.308 14.5 18.1887 13.3807 18.1887 12C18.1887 10.6193 19.308 9.5 20.6887 9.5C22.0695 9.5 23.1887 10.6193 23.1887 12Z" fill="black"/>
</svg>
