<svg width="24" height="25" viewBox="0 0 24 25" fill="none" xmlns="http://www.w3.org/2000/svg">
<path d="M12.3301 2.50879C12.4173 2.51178 12.5042 2.51524 12.5908 2.52051C15.0275 2.66465 17.3357 3.69409 19.0713 5.42969C20.7472 7.10556 21.764 9.31545 21.9619 11.6592C21.9857 11.937 22 12.2176 22 12.501C22 12.739 21.9885 12.9749 21.9717 13.209C21.9646 13.3081 21.9582 13.4072 21.9482 13.5059C21.9451 13.5365 21.9409 13.5671 21.9375 13.5977C21.6894 15.8463 20.6863 17.9573 19.0713 19.5723C17.4456 21.198 15.3172 22.2038 13.0518 22.4434C13.0374 22.4449 13.0232 22.4477 13.0088 22.4492C12.9241 22.4578 12.839 22.4623 12.7539 22.4688C12.5048 22.4878 12.2535 22.501 12 22.501C11.7461 22.501 11.4946 22.4879 11.2451 22.4688C11.1601 22.4623 11.0749 22.4578 10.9902 22.4492C10.9759 22.4477 10.9616 22.4449 10.9473 22.4434C8.68215 22.2036 6.55422 21.1978 4.92871 19.5723C3.3137 17.9573 2.3096 15.8464 2.06152 13.5977C2.0581 13.5671 2.05392 13.5365 2.05078 13.5059C2.04082 13.4072 2.03535 13.3081 2.02832 13.209C2.01152 12.9749 2 12.739 2 12.501C2 12.2176 2.01432 11.937 2.03809 11.6592C2.23605 9.31545 3.25284 7.10556 4.92871 5.42969C6.3125 4.0459 8.06069 3.11162 9.94727 2.71582C9.96487 2.71208 9.98236 2.70775 10 2.7041C10.1089 2.68188 10.2184 2.66314 10.3281 2.64453C10.3848 2.63481 10.4411 2.623 10.498 2.61426C10.573 2.60288 10.6484 2.59465 10.7236 2.58496C10.8178 2.57274 10.912 2.55933 11.0068 2.5498C11.0247 2.54802 11.0427 2.54758 11.0605 2.5459C11.3669 2.51685 11.677 2.50098 11.9902 2.50098H12C12.1103 2.50098 12.2202 2.50516 12.3301 2.50879ZM12 4.50098C9.87827 4.50098 7.84306 5.34346 6.34277 6.84375C4.84248 8.34404 4 10.3792 4 12.501C4 14.6227 4.84248 16.6579 6.34277 18.1582C7.84306 19.6585 9.87827 20.501 12 20.501C14.1217 20.501 16.1569 19.6585 17.6572 18.1582C19.1575 16.6579 20 14.6227 20 12.501C20 10.3792 19.1575 8.34404 17.6572 6.84375C16.1569 5.34346 14.1217 4.50098 12 4.50098ZM12.6436 7.00098C13.2186 7.00098 13.7414 7.06919 14.2119 7.20508C14.6928 7.33054 15.101 7.52899 15.4355 7.80078C15.7701 8.07259 16.0315 8.41782 16.2197 8.83594C16.4079 9.25417 16.5029 9.75112 16.5029 10.3262C16.5029 10.9118 16.4028 11.4086 16.2041 11.8164C16.0159 12.2138 15.7494 12.5432 15.4043 12.8047C15.0592 13.0661 14.6461 13.2541 14.165 13.3691C13.6841 13.4841 13.1561 13.542 12.5811 13.542H11.7451V14.4834H14.8047V15.9268H11.7451V18.001H9.50195V15.9268H8V14.4834H9.50195V13.542H8V12.0986H9.50195V7.00098H12.6436ZM11.7451 12.0986H12.6123C13.7208 12.0986 14.2754 11.513 14.2754 10.3418C14.2753 9.75635 14.1442 9.34302 13.8828 9.10254C13.6318 8.86216 13.2185 8.74219 12.6436 8.74219H11.7451V12.0986Z" fill="#21201F"/>
</svg>
