<svg width="24" height="24" viewBox="0 0 24 24" fill="none" xmlns="http://www.w3.org/2000/svg">
<path fill-rule="evenodd" clip-rule="evenodd" d="M7.50078 12.001C7.50078 9.5157 9.5155 7.50098 12.0008 7.50098C14.4861 7.50098 16.5008 9.5157 16.5008 12.001C16.5008 14.4863 14.4861 16.501 12.0008 16.501C9.5155 16.501 7.50078 14.4863 7.50078 12.001ZM9.50078 12.001C9.50078 10.6203 10.6201 9.50098 12.0008 9.50098C13.3815 9.50098 14.5008 10.6203 14.5008 12.001C14.5008 13.3817 13.3815 14.501 12.0008 14.501C10.6201 14.501 9.50078 13.3817 9.50078 12.001Z" fill="#21201F"/>
<path fill-rule="evenodd" clip-rule="evenodd" d="M10.0008 2.00098H14.0008L15.4208 4.76098C15.8434 4.95536 16.2483 5.18623 16.6308 5.45098L19.7008 5.27098L21.7008 8.73098L20.0008 11.301V12.701L21.6608 15.271L19.6608 18.731L16.5908 18.551C16.2083 18.8157 15.8034 19.0466 15.3808 19.241L14.0008 22.001H10.0008L8.58078 19.241C8.15815 19.0466 7.75329 18.8157 7.37078 18.551L4.30078 18.731L2.30078 15.271L4.00078 12.701V11.301L2.34078 8.73098L4.34078 5.27098L7.41078 5.45098C7.79329 5.18623 8.19815 4.95536 8.62078 4.76098L10.0008 2.00098ZM13.5908 5.65098L12.7608 4.00098H11.2408L10.4208 5.61098L10.1108 6.23098L9.48078 6.53098C9.16323 6.67814 8.85879 6.85211 8.57078 7.05098L8.00078 7.45098H7.30078L5.46078 7.34098L4.70078 8.66098L5.70078 10.201L6.06078 10.781L6.00078 11.471C5.96081 11.8232 5.96081 12.1788 6.00078 12.531L6.09078 13.181L5.70078 13.761L4.70078 15.301L5.46078 16.621L7.30078 16.511H8.00078L8.56078 16.911C8.84879 17.1098 9.15323 17.2838 9.47078 17.431L10.1008 17.731L10.4108 18.351L11.2408 20.001H12.7608L13.5908 18.431L13.9008 17.811L14.5308 17.511C14.8483 17.3638 15.1528 17.1898 15.4408 16.991L16.0108 16.591H16.7108L18.5508 16.701L19.3108 15.381L18.3108 13.841L17.9208 13.261L17.9808 12.571C18.0208 12.2188 18.0208 11.8632 17.9808 11.511L17.9208 10.821L18.3108 10.241L19.3108 8.70098L18.5508 7.38098L16.7108 7.49098H16.0108L15.4408 7.09098C15.1528 6.89211 14.8483 6.71814 14.5308 6.57098L13.9008 6.27098L13.5908 5.65098Z" fill="#21201F"/>
</svg>
