<svg width="24" height="24" viewBox="0 0 24 24" fill="none" xmlns="http://www.w3.org/2000/svg">
<path d="M3 12.0024C3 15.4113 4.89524 18.3776 7.68952 19.905L6.73163 21.6611C3.31641 19.7943 1 16.1689 1 12.0024C1 7.83598 3.31641 4.21055 6.73163 2.34375L7.68952 4.09987C4.89524 5.62726 3 8.59351 3 12.0024Z" fill="black"/>
<path d="M21 12.0024C21 15.4113 19.1048 18.3776 16.3105 19.905L17.2684 21.6611C20.6836 19.7943 23 16.1689 23 12.0024C23 7.83598 20.6836 4.21055 17.2684 2.34375L16.3105 4.09987C19.1048 5.62726 21 8.59351 21 12.0024Z" fill="black"/>
<path d="M8.6474 18.1489C6.47408 16.9609 5 14.6538 5 12.0024C5 9.35105 6.47408 7.04396 8.6474 5.856L9.60529 7.61212C8.05291 8.46066 7 10.1086 7 12.0024C7 13.8963 8.05291 15.5442 9.60529 16.3927L8.6474 18.1489Z" fill="black"/>
<path d="M14.3947 16.3927L15.3526 18.1489C17.5259 16.9609 19 14.6538 19 12.0024C19 9.35105 17.5259 7.04396 15.3526 5.856L14.3947 7.61212C15.9471 8.46066 17 10.1086 17 12.0024C17 13.8963 15.9471 15.5442 14.3947 16.3927Z" fill="black"/>
<path d="M12.002 14.5024C13.3828 14.5024 14.502 13.3831 14.502 12.0024C14.502 10.6217 13.3828 9.50242 12.002 9.50242C10.6213 9.50242 9.50205 10.6217 9.50205 12.0024C9.50205 13.3831 10.6213 14.5024 12.002 14.5024Z" fill="black"/>
</svg>
