<svg width="24" height="24" viewBox="0 0 24 24" fill="none" xmlns="http://www.w3.org/2000/svg">
<path d="M23.0713 9.87891L20.9502 12L23.0713 14.1211L21.6572 15.5352L19.5352 13.4141L17.4141 15.5352L16 14.1211L18.1211 12L16 9.87891L17.4141 8.46484L19.5352 10.5859L21.6572 8.46484L23.0713 9.87891Z" fill="black"/>
<path fill-rule="evenodd" clip-rule="evenodd" d="M11.0732 2.00195C13.2486 2.09962 15 6.53833 15 12C15 17.4617 13.2486 21.9004 11.0732 21.998C11.0522 21.999 11.0309 21.9999 11.0098 22H11C10.3748 22 9.77516 21.6395 9.24805 21L5 17H3C1.89543 17 1 14.7614 1 12C1 9.23858 1.89543 7 3 7H5L9.24805 3L9.24902 3.00586L9.25195 3.00293L9.25586 2.99805C9.78297 2.35858 10.3748 2 11 2C11.0244 2 11.049 2.00087 11.0732 2.00195ZM7 12C7 13.6373 7.15748 15.1828 7.43652 16.5469L5.79297 15H3.53418C3.50528 14.9413 3.47424 14.8726 3.44238 14.793C3.19645 14.1781 3 13.1914 3 12C3 10.8086 3.19645 9.82186 3.44238 9.20703C3.47424 9.12739 3.50528 9.05865 3.53418 9H5.79395L7.43652 7.45312C7.15748 8.81723 7 10.3627 7 12ZM10.8965 4.16016L10.9062 4.14941C10.9416 4.11265 10.9731 4.08285 11 4.05957C11.0189 4.07604 11.0407 4.09556 11.0645 4.11914C11.0769 4.13152 11.0897 4.14557 11.1035 4.16016C11.1652 4.22541 11.2318 4.30433 11.3008 4.39844C11.5078 4.68092 11.7421 5.09785 11.9717 5.67188C12.5795 7.19152 13 9.428 13 12C13 14.572 12.5795 16.8085 11.9717 18.3281C11.6655 19.0935 11.3505 19.5787 11.1035 19.8398C11.0634 19.8823 11.0288 19.9153 11 19.9404C10.9731 19.9172 10.9416 19.8874 10.9062 19.8506L10.8965 19.8398C10.8841 19.8267 10.8711 19.8131 10.8584 19.7988C10.8386 19.7767 10.8176 19.752 10.7959 19.7256L10.7891 19.7168C10.5617 19.4374 10.2916 18.9864 10.0283 18.3281C9.67261 17.4388 9.3809 16.3039 9.2002 15H9.60059C10.2631 14.9995 10.7998 13.6565 10.7998 12C10.7998 10.3435 10.2631 9.00054 9.60059 9H9.2002C9.3809 7.69618 9.67263 6.56116 10.0283 5.67188C10.2916 5.01357 10.5617 4.56265 10.7891 4.2832L10.7959 4.27441C10.8176 4.24797 10.8386 4.22333 10.8584 4.20117C10.8705 4.18763 10.8828 4.17467 10.8946 4.16215L10.8965 4.16016Z" fill="black"/>
</svg>
