<svg width="24" height="24" viewBox="0 0 24 24" fill="none" xmlns="http://www.w3.org/2000/svg">
<path d="M19.6172 7.88281C20.4847 9.07553 20.9542 10.5115 20.957 11.9863C20.9598 13.4613 20.4959 14.8996 19.6328 16.0957L18.0107 14.9258C18.6273 14.0714 18.959 13.0438 18.957 11.9902C18.955 10.9367 18.6197 9.91057 18 9.05859L19.6172 7.88281Z" fill="black"/>
<path fill-rule="evenodd" clip-rule="evenodd" d="M13.0732 2.00195C15.2486 2.09962 17 6.53833 17 12C17 17.4617 15.2486 21.9004 13.0732 21.998C13.0522 21.999 13.0309 21.9999 13.0098 22H13C12.3748 22 11.7752 21.6395 11.248 21L7 17H5C3.89543 17 3 14.7614 3 12C3 9.23858 3.89543 7 5 7H7L11.248 3L11.249 3.00586L11.252 3.00293L11.2559 2.99805C11.783 2.35858 12.3748 2 13 2C13.0244 2 13.049 2.00087 13.0732 2.00195ZM9 12C9 13.6373 9.15748 15.1828 9.43652 16.5469L7.79297 15H5.53418C5.50528 14.9413 5.47424 14.8726 5.44238 14.793C5.19645 14.1781 5 13.1914 5 12C5 10.8086 5.19645 9.82186 5.44238 9.20703C5.47424 9.12739 5.50528 9.05865 5.53418 9H7.79395L9.43652 7.45312C9.15748 8.81723 9 10.3627 9 12ZM12.8965 4.16016L12.9062 4.14941C12.9416 4.11265 12.9731 4.08285 13 4.05957C13.0189 4.07604 13.0407 4.09556 13.0645 4.11914C13.0769 4.13152 13.0897 4.14557 13.1035 4.16016C13.1652 4.22541 13.2318 4.30433 13.3008 4.39844C13.5078 4.68092 13.7421 5.09785 13.9717 5.67188C14.5795 7.19152 15 9.428 15 12C15 14.572 14.5795 16.8085 13.9717 18.3281C13.6655 19.0935 13.3505 19.5787 13.1035 19.8398C13.0634 19.8823 13.0288 19.9153 13 19.9404C12.9731 19.9172 12.9416 19.8874 12.9062 19.8506L12.8965 19.8398C12.8841 19.8267 12.8711 19.8131 12.8584 19.7988C12.8386 19.7767 12.8176 19.752 12.7959 19.7256L12.7891 19.7168C12.5617 19.4374 12.2916 18.9864 12.0283 18.3281C11.6726 17.4388 11.3809 16.3039 11.2002 15H11.6006C12.2631 14.9995 12.7998 13.6565 12.7998 12C12.7998 10.3435 12.2631 9.00054 11.6006 9H11.2002C11.3809 7.69618 11.6726 6.56116 12.0283 5.67188C12.2916 5.01357 12.5617 4.56265 12.7891 4.2832L12.7959 4.27441C12.8176 4.24797 12.8386 4.22333 12.8584 4.20117C12.8705 4.18763 12.8828 4.17467 12.8946 4.16215L12.8965 4.16016Z" fill="black"/>
</svg>
