<svg width="24" height="24" viewBox="0 0 24 24" fill="none" xmlns="http://www.w3.org/2000/svg">
<g clip-path="url(#clip0_1092_25983)">
<path fill-rule="evenodd" clip-rule="evenodd" d="M3 7H5.00034L9.24794 3L9.24932 3.00612L9.25171 3.00321L9.25581 2.99822C9.78295 2.35868 10.3747 2 11 2C11.0244 2 11.0487 2.00055 11.073 2.00163C13.2485 2.099 15 6.53814 15 12C15 17.4619 13.2485 21.901 11.073 21.9984C11.0519 21.9993 11.0307 21.9999 11.0095 22L11 22C10.3747 22 9.78295 21.6413 9.25581 21.0018L9.25136 20.9964L7.13846 16.2665L7.4365 16.5472C7.15743 15.183 7 13.6375 7 12C7 10.3627 7.1574 8.81723 7.43644 7.45313L5.79382 9H3.89328H3.53443C3.50551 9.05869 3.47462 9.12754 3.44274 9.20725C3.19681 9.82207 3 10.8086 3 12C3 13.1914 3.19681 14.1779 3.44274 14.7928C3.47462 14.8725 3.50551 14.9413 3.53443 15H5.79344L7.13846 16.2665L9.25018 20.9949L9.24932 20.9939L9.24794 21L5 17H3C1.89543 17 1 14.7614 1 12C1 9.23858 1.89543 7 3 7ZM10.8581 19.7985C10.8382 19.7762 10.8173 19.7519 10.7955 19.7253L10.7889 19.7172C10.5615 19.4378 10.2919 18.9867 10.0285 18.3283C9.67276 17.4389 9.38112 16.3039 9.20041 14.9998L9.21184 14.9998L9.60018 15C10.2629 15 10.8002 13.6568 10.8002 12C10.8002 10.3431 10.2629 8.99998 9.60018 8.99998L9.20046 8.99978C9.38118 7.69586 9.6728 6.56103 10.0285 5.67171C10.2919 5.01328 10.5615 4.56222 10.7889 4.28279L10.7955 4.27469C10.8173 4.24811 10.8382 4.22377 10.8581 4.20151C10.8709 4.18712 10.8836 4.1733 10.8961 4.16007L10.9065 4.14918C10.9419 4.11233 10.9734 4.08288 11.0003 4.05958C11.0192 4.07609 11.0406 4.09588 11.0644 4.11953C11.0769 4.13195 11.09 4.14543 11.1039 4.16007C11.1656 4.22534 11.2316 4.30462 11.3006 4.39879C11.5075 4.68127 11.7419 5.09769 11.9715 5.67171C12.5793 7.19136 13 9.42788 13 12C13 14.5721 12.5793 16.8086 11.9715 18.3283C11.6653 19.0937 11.3508 19.5788 11.1039 19.8399C11.0637 19.8824 11.0292 19.9152 11.0003 19.9404C10.9734 19.9171 10.9419 19.8877 10.9065 19.8508L10.8961 19.8399C10.8836 19.8267 10.8709 19.8129 10.8581 19.7985ZM10.8909 20.0178C10.8909 20.0178 10.8944 20.0157 10.9013 20.0133C10.8944 20.017 10.8909 20.0178 10.8909 20.0178Z" fill="#21201F"/>
<path d="M23.0711 9.87906L20.9498 12.0004L23.0711 14.1217L21.6569 15.5359L19.5355 13.4146L17.4142 15.5359L16 14.1217L18.1213 12.0004L16 9.87906L17.4142 8.46484L19.5355 10.5862L21.6569 8.46484L23.0711 9.87906Z" fill="#21201F"/>
</g>
<defs>
<clipPath id="clip0_1092_25983">
<rect width="24" height="24" fill="white"/>
</clipPath>
</defs>
</svg>
