<svg width="52" height="51" viewBox="0 0 52 51" fill="none" xmlns="http://www.w3.org/2000/svg">
<mask id="mask0_1055_12836" style="mask-type:alpha" maskUnits="userSpaceOnUse" x="10" y="10" width="48" height="47">
<path d="M36.2006 45.9725C35.8378 45.7645 35.3838 45.8042 35.0626 46.0721L23.1421 56.0153C22.4141 56.6226 21.3284 55.9703 21.5228 55.0424L24.7059 39.8492C24.7916 39.4398 24.6136 39.0203 24.2595 38.7976L11.1193 30.5332C10.3168 30.0285 10.6017 28.7944 11.5443 28.6925L26.9775 27.0248C27.3933 26.9799 27.7373 26.6809 27.8396 26.2754L31.639 11.2245C31.8711 10.3052 33.1328 10.1948 33.5209 11.0598L39.8761 25.2223C40.0474 25.6039 40.438 25.8386 40.8553 25.8107L56.3436 24.7731C57.2896 24.7097 57.7845 25.8756 57.0818 26.512L45.5763 36.9326C45.2663 37.2134 45.1638 37.6575 45.3193 38.0457L51.0923 52.4554C51.4449 53.3355 50.489 54.1664 49.6665 53.6947L36.2006 45.9725Z" fill="#FCB900"/>
<path d="M36.2006 45.9725C35.8378 45.7645 35.3838 45.8042 35.0626 46.0721L23.1421 56.0153C22.4141 56.6226 21.3284 55.9703 21.5228 55.0424L24.7059 39.8492C24.7916 39.4398 24.6136 39.0203 24.2595 38.7976L11.1193 30.5332C10.3168 30.0285 10.6017 28.7944 11.5443 28.6925L26.9775 27.0248C27.3933 26.9799 27.7373 26.6809 27.8396 26.2754L31.639 11.2245C31.8711 10.3052 33.1328 10.1948 33.5209 11.0598L39.8761 25.2223C40.0474 25.6039 40.438 25.8386 40.8553 25.8107L56.3436 24.7731C57.2896 24.7097 57.7845 25.8756 57.0818 26.512L45.5763 36.9326C45.2663 37.2134 45.1638 37.6575 45.3193 38.0457L51.0923 52.4554C51.4449 53.3355 50.489 54.1664 49.6665 53.6947L36.2006 45.9725Z" fill="url(#paint0_radial_1055_12836)" fill-opacity="0.2"/>
</mask>
<g mask="url(#mask0_1055_12836)">
<path d="M36.2006 45.9725C35.8378 45.7645 35.3838 45.8042 35.0626 46.0721L23.1421 56.0153C22.4141 56.6226 21.3284 55.9703 21.5228 55.0424L24.7059 39.8492C24.7916 39.4398 24.6136 39.0203 24.2595 38.7976L11.1193 30.5332C10.3168 30.0285 10.6017 28.7944 11.5443 28.6925L26.9775 27.0248C27.3933 26.9799 27.7373 26.6809 27.8396 26.2754L31.639 11.2245C31.8711 10.3052 33.1328 10.1948 33.5209 11.0598L39.8761 25.2223C40.0474 25.6039 40.438 25.8386 40.8553 25.8107L56.3436 24.7731C57.2896 24.7097 57.7845 25.8756 57.0818 26.512L45.5763 36.9326C45.2663 37.2134 45.1638 37.6575 45.3193 38.0457L51.0923 52.4554C51.4449 53.3355 50.489 54.1664 49.6665 53.6947L36.2006 45.9725Z" fill="#FCB900"/>
<path d="M36.2006 45.9725C35.8378 45.7645 35.3838 45.8042 35.0626 46.0721L23.1421 56.0153C22.4141 56.6226 21.3284 55.9703 21.5228 55.0424L24.7059 39.8492C24.7916 39.4398 24.6136 39.0203 24.2595 38.7976L11.1193 30.5332C10.3168 30.0285 10.6017 28.7944 11.5443 28.6925L26.9775 27.0248C27.3933 26.9799 27.7373 26.6809 27.8396 26.2754L31.639 11.2245C31.8711 10.3052 33.1328 10.1948 33.5209 11.0598L39.8761 25.2223C40.0474 25.6039 40.438 25.8386 40.8553 25.8107L56.3436 24.7731C57.2896 24.7097 57.7845 25.8756 57.0818 26.512L45.5763 36.9326C45.2663 37.2134 45.1638 37.6575 45.3193 38.0457L51.0923 52.4554C51.4449 53.3355 50.489 54.1664 49.6665 53.6947L36.2006 45.9725Z" fill="url(#paint1_radial_1055_12836)" fill-opacity="0.2"/>
<path opacity="0.4" d="M26.9414 25.3492L32.2784 7.67389L40.6035 24.1539L56.4654 24.5747C57.5218 24.6027 57.8183 26.0368 56.8597 26.4815L42.6932 33.0529C37.6046 35.4134 31.85 35.9169 26.4288 34.4759L11.3364 30.4643C10.3151 30.1928 10.3581 28.729 11.3936 28.518L26.9414 25.3492Z" fill="white"/>
</g>
<defs>
<radialGradient id="paint0_radial_1055_12836" cx="0" cy="0" r="1" gradientUnits="userSpaceOnUse" gradientTransform="translate(33.1951 18.1757) rotate(85) scale(33.3333 35.0487)">
<stop stop-color="#FEF297"/>
<stop offset="1" stop-color="#FCE000" stop-opacity="0"/>
</radialGradient>
<radialGradient id="paint1_radial_1055_12836" cx="0" cy="0" r="1" gradientUnits="userSpaceOnUse" gradientTransform="translate(33.1951 18.1757) rotate(85) scale(33.3333 35.0487)">
<stop stop-color="#FEF297"/>
<stop offset="1" stop-color="#FCE000" stop-opacity="0"/>
</radialGradient>
</defs>
</svg>
