<svg width="42" height="41" viewBox="0 0 42 41" fill="none" xmlns="http://www.w3.org/2000/svg">
<path d="M26.2006 35.9725C25.8378 35.7645 25.3838 35.8042 25.0626 36.0721L13.1421 46.0153C12.4141 46.6226 11.3284 45.9703 11.5228 45.0424L14.7059 29.8492C14.7916 29.4398 14.6136 29.0203 14.2595 28.7976L1.11934 20.5332C0.316756 20.0285 0.601664 18.7944 1.5443 18.6925L16.9775 17.0248C17.3933 16.9799 17.7373 16.6809 17.8396 16.2754L21.639 1.22448C21.8711 0.305194 23.1328 0.194809 23.5209 1.05983L29.8761 15.2223C30.0474 15.6039 30.438 15.8386 30.8553 15.8107L46.3436 14.7731C47.2896 14.7097 47.7845 15.8756 47.0818 16.512L35.5763 26.9326C35.2663 27.2134 35.1638 27.6575 35.3193 28.0457L41.0923 42.4554C41.4449 43.3355 40.489 44.1664 39.6665 43.6947L26.2006 35.9725Z" fill="#FCB900"/>
<path d="M26.2006 35.9725C25.8378 35.7645 25.3838 35.8042 25.0626 36.0721L13.1421 46.0153C12.4141 46.6226 11.3284 45.9703 11.5228 45.0424L14.7059 29.8492C14.7916 29.4398 14.6136 29.0203 14.2595 28.7976L1.11934 20.5332C0.316756 20.0285 0.601664 18.7944 1.5443 18.6925L16.9775 17.0248C17.3933 16.9799 17.7373 16.6809 17.8396 16.2754L21.639 1.22448C21.8711 0.305194 23.1328 0.194809 23.5209 1.05983L29.8761 15.2223C30.0474 15.6039 30.438 15.8386 30.8553 15.8107L46.3436 14.7731C47.2896 14.7097 47.7845 15.8756 47.0818 16.512L35.5763 26.9326C35.2663 27.2134 35.1638 27.6575 35.3193 28.0457L41.0923 42.4554C41.4449 43.3355 40.489 44.1664 39.6665 43.6947L26.2006 35.9725Z" fill="url(#paint0_radial_1055_12838)" fill-opacity="0.2"/>
<defs>
<radialGradient id="paint0_radial_1055_12838" cx="0" cy="0" r="1" gradientUnits="userSpaceOnUse" gradientTransform="translate(23.1951 8.17569) rotate(85) scale(33.3333 35.0487)">
<stop stop-color="#FEF297"/>
<stop offset="1" stop-color="#FCE000" stop-opacity="0"/>
</radialGradient>
</defs>
</svg>
