<svg width="42" height="41" viewBox="0 0 42 41" fill="none" xmlns="http://www.w3.org/2000/svg">
<g filter="url(#filter0_d_1055_12862)">
<path d="M29.1571 45.7901C40.6404 44.7854 49.1351 34.6619 48.1304 23.1786C47.1257 11.6953 37.0022 3.20066 25.5189 4.20532C14.0356 5.20998 5.541 15.3335 6.54566 26.8168C7.55032 38.3001 17.6738 46.7947 29.1571 45.7901Z" fill="url(#paint0_linear_1055_12862)"/>
<g filter="url(#filter1_d_1055_12862)">
<path d="M25.4202 3.0816C13.3162 4.14056 4.36235 14.8111 5.42136 26.9156C6.48029 39.0193 17.1511 47.9731 29.255 46.9142C41.359 45.8552 50.3129 35.1844 49.2539 23.0807C48.1949 10.9762 37.5242 2.02264 25.4202 3.0816ZM20.9211 44.8647C18.3535 44.0344 15.9986 42.7293 13.9215 40.9866C11.8446 39.2439 10.1504 37.1512 8.8869 34.7671C7.57869 32.2994 6.79087 29.6245 6.54527 26.8173C6.29964 24.0097 6.61101 21.2387 7.4708 18.581C8.30113 16.0138 9.60614 13.6586 11.3489 11.5817C13.0919 9.50481 15.1844 7.81096 17.5687 6.54714C20.0361 5.23896 22.711 4.45114 25.5185 4.20551C28.3261 3.95988 31.0968 4.27127 33.7545 5.13107C36.3218 5.96168 38.6769 7.26641 40.7535 9.00915C42.8307 10.7518 44.5245 12.8446 45.7883 15.2287C47.0966 17.6967 47.8844 20.3715 48.13 23.1791C48.3756 25.9863 48.0643 28.7574 47.2044 31.4147C46.3738 33.982 45.0691 36.3371 43.3261 38.4141C42.149 39.8172 40.8084 41.0409 39.3297 42.08C38.4133 39.9353 37.2176 37.036 37.1791 36.6407C37.1634 36.4781 37.2382 35.3968 37.3248 34.1446C37.5551 30.8153 37.9348 25.3307 37.6276 23.4113L39.2413 22.1028C39.3375 22.0245 39.3744 21.9281 39.3278 21.8132C39.2812 21.6981 39.1713 21.6978 39.048 21.7086L37.3697 21.8554C37.3772 21.7016 37.3827 21.5253 37.3894 21.382C37.4077 20.9761 37.2321 20.5838 36.8807 20.247C36.3028 19.6925 35.3097 19.357 34.4662 19.4308C34.0127 19.4705 33.6455 19.6229 33.3851 19.8702C32.5345 19.4738 31.3776 19.4417 30.5909 19.8185C30.5776 19.8248 30.5661 19.8323 30.5531 19.8388C30.6683 17.1362 30.8063 13.7758 30.9083 11.285L30.944 10.4209C30.9819 9.49514 30.1828 8.93991 29.3742 8.8688C28.5916 8.80052 27.6841 9.20806 27.542 10.2661C27.3524 11.6757 26.9723 14.6382 26.7698 16.3034L25.5991 13.5176C25.5513 13.4049 25.4319 13.2831 25.3097 13.2938C25.188 13.3045 25.0898 13.4274 25.0626 13.547L24.5101 15.9861C24.0366 14.331 23.1761 11.5147 23.0513 11.1918C22.7807 10.4901 22.0019 10.1457 21.1589 10.3543C20.4254 10.5359 19.6877 11.1718 19.8012 12.1393C19.8954 12.9444 20.2884 14.689 20.7857 16.8975C21.2287 18.8638 21.7297 21.0893 22.1399 23.1879L13.2416 23.9664C13.1182 23.9772 13.0101 23.9965 12.9841 24.1177C12.9582 24.2386 13.0082 24.2926 13.116 24.3528L18.2628 27.2279C17.6856 27.7149 17.3133 28.0932 17.2442 28.4786C16.9005 29.7695 18.4869 32.6177 20.0919 34.2194C20.1003 34.228 20.1119 34.2304 20.1213 34.2378L19.1741 38.0749C19.1446 38.1941 19.1958 38.3188 19.3007 38.3829C19.4055 38.4471 19.5398 38.4362 19.633 38.3553L22.3341 36.0128C23.085 36.4473 23.9406 36.8125 24.7063 37.1342C25.4009 37.4268 26.0576 37.7029 26.28 37.9023C26.8279 38.3945 27.8855 42.7712 28.5181 45.8306C25.9294 45.9792 23.3765 45.6592 20.9211 44.8647ZM27.2039 17.3371C27.2107 17.3172 27.2207 17.2991 27.2227 17.2771C27.3463 16.1556 27.8681 12.0742 28.1012 10.3412C28.2007 9.59859 28.8229 9.38674 29.3251 9.43086C29.8672 9.47828 30.4038 9.82545 30.3802 10.3974L30.3449 11.2618C30.2369 13.8947 30.0886 17.5003 29.9703 20.2715C29.9697 20.278 29.9728 20.284 29.9731 20.2905C29.8118 20.4886 29.7075 20.7206 29.6668 20.9804C29.6663 20.9849 29.6658 20.9887 29.6653 20.9929C29.6601 21.0393 29.5899 21.6875 29.5759 22.5373L29.3958 22.5531L27.2039 17.3371ZM21.336 16.7734C20.8619 14.6679 20.4522 12.8496 20.3611 12.0736C20.2872 11.4421 20.7766 11.0301 21.2946 10.9018C21.7671 10.7852 22.3311 10.8919 22.5252 11.395C22.6761 11.7864 24.0368 16.2752 24.2419 17.15C24.2426 17.1522 24.2445 17.154 24.245 17.1562L22.8937 23.1219L22.7049 23.1384C22.2912 21.0147 21.784 18.7617 21.336 16.7734ZM14.2044 24.4481L23.1474 23.6657C23.2694 23.655 23.3661 23.5144 23.3933 23.395L25.4143 14.4894L28.9495 22.8911C28.9976 23.0038 29.1185 23.1433 29.2404 23.1326L29.5759 23.1033C29.5841 23.5853 29.6149 24.0993 29.6863 24.5883C29.8288 25.5631 30.6543 26.018 31.4087 26.0358C31.4824 26.0376 31.5561 26.0354 31.6306 26.0289C32.2928 25.9709 32.967 25.5759 33.213 24.78C33.4511 24.854 33.7078 24.8859 33.9641 24.8635C34.6472 24.8037 35.1971 24.4617 35.4244 23.8309C35.8336 22.6954 36.1716 22.5262 36.2297 22.5211L36.2517 22.5192L37.0997 22.445L38.1817 22.3504L37.3843 22.9901C37.3417 22.9788 37.2971 22.9736 37.2513 22.9842C37.1166 23.0138 37.0316 23.1362 37.0364 23.2691L31.3865 27.8017C31.2887 27.8813 31.249 27.9459 31.2991 28.0616L34.7995 36.1985L27.0652 31.4249C26.9602 31.3602 26.8255 31.3709 26.7324 31.4521L19.9349 37.347L22.0572 28.7481C22.604 28.2892 23.1671 27.7161 23.3375 27.1938C23.7494 25.9285 22.9866 24.6784 22.3012 24.2975C21.9361 24.0947 21.5903 24.1261 21.3756 24.381C20.5583 25.3534 19.5995 26.1341 18.8287 26.7613C18.7767 26.8038 18.7291 26.8428 18.6789 26.8837L14.2044 24.4481ZM31.4224 25.4718C30.9044 25.4596 30.3396 25.156 30.2446 24.5066C30.025 23.0071 30.2122 21.1826 30.2251 21.0615C30.2774 20.7429 30.4823 20.4959 30.8345 20.3275C31.4467 20.0341 32.3742 20.0498 33.0659 20.3412C33.0626 20.3492 33.0581 20.3561 33.0552 20.3643C32.9513 20.5429 32.3431 21.6398 32.1135 23.1672C32.0478 23.6039 32.1746 24.0172 32.4696 24.3312C32.538 24.4039 32.6166 24.4681 32.6997 24.5276C32.5456 25.1637 32.0369 25.4268 31.5803 25.4667C31.5266 25.4714 31.4738 25.4732 31.4224 25.4718ZM33.9149 24.3015C33.5224 24.3359 33.1166 24.1959 32.8806 23.945C32.7014 23.7543 32.6309 23.5209 32.6715 23.2509C32.8998 21.7309 33.5458 20.6424 33.5522 20.6317C33.5619 20.6158 33.57 20.599 33.5759 20.5817C33.732 20.149 34.1728 20.0227 34.5153 19.9927C35.1975 19.9331 36.0313 20.2463 36.4933 20.6892C36.654 20.8433 36.8458 21.1255 36.8322 21.4262C36.8275 21.5249 36.8141 21.6209 36.8162 21.9039L36.2025 21.9576L36.1534 21.9619C35.96 21.9788 35.444 22.1128 34.8935 23.6395C34.6819 24.2271 34.1625 24.2799 33.9324 24.3C33.9265 24.3005 33.9206 24.3011 33.9149 24.3015ZM17.7916 28.6159C17.7944 28.6049 17.7971 28.5936 17.7986 28.5825C17.8439 28.2903 18.4954 27.7599 19.1849 27.1987C19.9742 26.5566 20.9561 25.7572 21.8077 24.7441C21.8362 24.7105 21.9395 24.742 22.0272 24.7906C22.4831 25.0438 23.1313 26.0052 22.8009 27.0191C22.5659 27.7407 21.1125 28.7976 20.5723 29.1442C20.4409 29.2279 20.4027 29.4025 20.4869 29.5339C20.5709 29.665 20.7452 29.7029 20.8766 29.619C20.9334 29.5826 21.1083 29.4685 21.3391 29.303L20.2791 33.5985C18.7897 32.004 17.5354 29.5254 17.7916 28.6159ZM35.5964 37.1257C35.6893 37.0454 35.72 36.9181 35.6714 36.8051L31.9033 28.052L37.1131 23.8284C37.3272 25.9362 36.9647 31.1744 36.7622 34.1058C36.6506 35.7135 36.5981 36.495 36.6176 36.6952C36.6728 37.2586 38.2061 40.8881 38.8567 42.4087C38.2926 42.7823 37.7094 43.1295 37.1068 43.4486C34.6388 44.7568 31.9642 45.5446 29.1567 45.7903C29.1334 45.7923 29.1102 45.7926 29.0869 45.7947C28.6532 43.6825 27.465 38.208 26.6566 37.4826C26.3635 37.2197 25.7286 36.9522 24.925 36.6145C24.233 36.3234 23.4679 35.9957 22.787 35.6198L26.9452 32.0139L35.2633 37.1478C35.3166 37.1805 35.3772 37.1938 35.4362 37.1887C35.4938 37.1836 35.5503 37.1654 35.5964 37.1257Z" fill="black"/>
</g>
<path d="M25.4202 3.0816C13.3162 4.14056 4.36235 14.8111 5.42136 26.9156C6.48029 39.0193 17.1511 47.9731 29.255 46.9142C41.359 45.8552 50.3129 35.1844 49.2539 23.0807C48.1949 10.9762 37.5242 2.02264 25.4202 3.0816ZM20.9211 44.8647C18.3535 44.0344 15.9986 42.7293 13.9215 40.9866C11.8446 39.2439 10.1504 37.1512 8.8869 34.7671C7.57869 32.2994 6.79087 29.6245 6.54527 26.8173C6.29964 24.0097 6.61101 21.2387 7.4708 18.581C8.30113 16.0138 9.60614 13.6586 11.3489 11.5817C13.0919 9.50481 15.1844 7.81096 17.5687 6.54714C20.0361 5.23896 22.711 4.45114 25.5185 4.20551C28.3261 3.95988 31.0968 4.27127 33.7545 5.13107C36.3218 5.96168 38.6769 7.26641 40.7535 9.00915C42.8307 10.7518 44.5245 12.8446 45.7883 15.2287C47.0966 17.6967 47.8844 20.3715 48.13 23.1791C48.3756 25.9863 48.0643 28.7574 47.2044 31.4147C46.3738 33.982 45.0691 36.3371 43.3261 38.4141C42.149 39.8172 40.8084 41.0409 39.3297 42.08C38.4133 39.9353 37.2176 37.036 37.1791 36.6407C37.1634 36.4781 37.2382 35.3968 37.3248 34.1446C37.5551 30.8153 37.9348 25.3307 37.6276 23.4113L39.2413 22.1028C39.3375 22.0245 39.3744 21.9281 39.3278 21.8132C39.2812 21.6981 39.1713 21.6978 39.048 21.7086L37.3697 21.8554C37.3772 21.7016 37.3827 21.5253 37.3894 21.382C37.4077 20.9761 37.2321 20.5838 36.8807 20.247C36.3028 19.6925 35.3097 19.357 34.4662 19.4308C34.0127 19.4705 33.6455 19.6229 33.3851 19.8702C32.5345 19.4738 31.3776 19.4417 30.5909 19.8185C30.5776 19.8248 30.5661 19.8323 30.5531 19.8388C30.6683 17.1362 30.8063 13.7758 30.9083 11.285L30.944 10.4209C30.9819 9.49514 30.1828 8.93991 29.3742 8.8688C28.5916 8.80052 27.6841 9.20806 27.542 10.2661C27.3524 11.6757 26.9723 14.6382 26.7698 16.3034L25.5991 13.5176C25.5513 13.4049 25.4319 13.2831 25.3097 13.2938C25.188 13.3045 25.0898 13.4274 25.0626 13.547L24.5101 15.9861C24.0366 14.331 23.1761 11.5147 23.0513 11.1918C22.7807 10.4901 22.0019 10.1457 21.1589 10.3543C20.4254 10.5359 19.6877 11.1718 19.8012 12.1393C19.8954 12.9444 20.2884 14.689 20.7857 16.8975C21.2287 18.8638 21.7297 21.0893 22.1399 23.1879L13.2416 23.9664C13.1182 23.9772 13.0101 23.9965 12.9841 24.1177C12.9582 24.2386 13.0082 24.2926 13.116 24.3528L18.2628 27.2279C17.6856 27.7149 17.3133 28.0932 17.2442 28.4786C16.9005 29.7695 18.4869 32.6177 20.0919 34.2194C20.1003 34.228 20.1119 34.2304 20.1213 34.2378L19.1741 38.0749C19.1446 38.1941 19.1958 38.3188 19.3007 38.3829C19.4055 38.4471 19.5398 38.4362 19.633 38.3553L22.3341 36.0128C23.085 36.4473 23.9406 36.8125 24.7063 37.1342C25.4009 37.4268 26.0576 37.7029 26.28 37.9023C26.8279 38.3945 27.8855 42.7712 28.5181 45.8306C25.9294 45.9792 23.3765 45.6592 20.9211 44.8647ZM27.2039 17.3371C27.2107 17.3172 27.2207 17.2991 27.2227 17.2771C27.3463 16.1556 27.8681 12.0742 28.1012 10.3412C28.2007 9.59859 28.8229 9.38674 29.3251 9.43086C29.8672 9.47828 30.4038 9.82545 30.3802 10.3974L30.3449 11.2618C30.2369 13.8947 30.0886 17.5003 29.9703 20.2715C29.9697 20.278 29.9728 20.284 29.9731 20.2905C29.8118 20.4886 29.7075 20.7206 29.6668 20.9804C29.6663 20.9849 29.6658 20.9887 29.6653 20.9929C29.6601 21.0393 29.5899 21.6875 29.5759 22.5373L29.3958 22.5531L27.2039 17.3371ZM21.336 16.7734C20.8619 14.6679 20.4522 12.8496 20.3611 12.0736C20.2872 11.4421 20.7766 11.0301 21.2946 10.9018C21.7671 10.7852 22.3311 10.8919 22.5252 11.395C22.6761 11.7864 24.0368 16.2752 24.2419 17.15C24.2426 17.1522 24.2445 17.154 24.245 17.1562L22.8937 23.1219L22.7049 23.1384C22.2912 21.0147 21.784 18.7617 21.336 16.7734ZM14.2044 24.4481L23.1474 23.6657C23.2694 23.655 23.3661 23.5144 23.3933 23.395L25.4143 14.4894L28.9495 22.8911C28.9976 23.0038 29.1185 23.1433 29.2404 23.1326L29.5759 23.1033C29.5841 23.5853 29.6149 24.0993 29.6863 24.5883C29.8288 25.5631 30.6543 26.018 31.4087 26.0358C31.4824 26.0376 31.5561 26.0354 31.6306 26.0289C32.2928 25.9709 32.967 25.5759 33.213 24.78C33.4511 24.854 33.7078 24.8859 33.9641 24.8635C34.6472 24.8037 35.1971 24.4617 35.4244 23.8309C35.8336 22.6954 36.1716 22.5262 36.2297 22.5211L36.2517 22.5192L37.0997 22.445L38.1817 22.3504L37.3843 22.9901C37.3417 22.9788 37.2971 22.9736 37.2513 22.9842C37.1166 23.0138 37.0316 23.1362 37.0364 23.2691L31.3865 27.8017C31.2887 27.8813 31.249 27.9459 31.2991 28.0616L34.7995 36.1985L27.0652 31.4249C26.9602 31.3602 26.8255 31.3709 26.7324 31.4521L19.9349 37.347L22.0572 28.7481C22.604 28.2892 23.1671 27.7161 23.3375 27.1938C23.7494 25.9285 22.9866 24.6784 22.3012 24.2975C21.9361 24.0947 21.5903 24.1261 21.3756 24.381C20.5583 25.3534 19.5995 26.1341 18.8287 26.7613C18.7767 26.8038 18.7291 26.8428 18.6789 26.8837L14.2044 24.4481ZM31.4224 25.4718C30.9044 25.4596 30.3396 25.156 30.2446 24.5066C30.025 23.0071 30.2122 21.1826 30.2251 21.0615C30.2774 20.7429 30.4823 20.4959 30.8345 20.3275C31.4467 20.0341 32.3742 20.0498 33.0659 20.3412C33.0626 20.3492 33.0581 20.3561 33.0552 20.3643C32.9513 20.5429 32.3431 21.6398 32.1135 23.1672C32.0478 23.6039 32.1746 24.0172 32.4696 24.3312C32.538 24.4039 32.6166 24.4681 32.6997 24.5276C32.5456 25.1637 32.0369 25.4268 31.5803 25.4667C31.5266 25.4714 31.4738 25.4732 31.4224 25.4718ZM33.9149 24.3015C33.5224 24.3359 33.1166 24.1959 32.8806 23.945C32.7014 23.7543 32.6309 23.5209 32.6715 23.2509C32.8998 21.7309 33.5458 20.6424 33.5522 20.6317C33.5619 20.6158 33.57 20.599 33.5759 20.5817C33.732 20.149 34.1728 20.0227 34.5153 19.9927C35.1975 19.9331 36.0313 20.2463 36.4933 20.6892C36.654 20.8433 36.8458 21.1255 36.8322 21.4262C36.8275 21.5249 36.8141 21.6209 36.8162 21.9039L36.2025 21.9576L36.1534 21.9619C35.96 21.9788 35.444 22.1128 34.8935 23.6395C34.6819 24.2271 34.1625 24.2799 33.9324 24.3C33.9265 24.3005 33.9206 24.3011 33.9149 24.3015ZM17.7916 28.6159C17.7944 28.6049 17.7971 28.5936 17.7986 28.5825C17.8439 28.2903 18.4954 27.7599 19.1849 27.1987C19.9742 26.5566 20.9561 25.7572 21.8077 24.7441C21.8362 24.7105 21.9395 24.742 22.0272 24.7906C22.4831 25.0438 23.1313 26.0052 22.8009 27.0191C22.5659 27.7407 21.1125 28.7976 20.5723 29.1442C20.4409 29.2279 20.4027 29.4025 20.4869 29.5339C20.5709 29.665 20.7452 29.7029 20.8766 29.619C20.9334 29.5826 21.1083 29.4685 21.3391 29.303L20.2791 33.5985C18.7897 32.004 17.5354 29.5254 17.7916 28.6159ZM35.5964 37.1257C35.6893 37.0454 35.72 36.9181 35.6714 36.8051L31.9033 28.052L37.1131 23.8284C37.3272 25.9362 36.9647 31.1744 36.7622 34.1058C36.6506 35.7135 36.5981 36.495 36.6176 36.6952C36.6728 37.2586 38.2061 40.8881 38.8567 42.4087C38.2926 42.7823 37.7094 43.1295 37.1068 43.4486C34.6388 44.7568 31.9642 45.5446 29.1567 45.7903C29.1334 45.7923 29.1102 45.7926 29.0869 45.7947C28.6532 43.6825 27.465 38.208 26.6566 37.4826C26.3635 37.2197 25.7286 36.9522 24.925 36.6145C24.233 36.3234 23.4679 35.9957 22.787 35.6198L26.9452 32.0139L35.2633 37.1478C35.3166 37.1805 35.3772 37.1938 35.4362 37.1887C35.4938 37.1836 35.5503 37.1654 35.5964 37.1257Z" fill="url(#paint1_linear_1055_12862)"/>
<path d="M14.2053 24.4479L23.1483 23.6655C23.2702 23.6548 23.3669 23.5141 23.3941 23.3948L25.4151 14.4892L28.9503 22.8909C28.9984 23.0036 29.1193 23.1431 29.2413 23.1324L29.5768 23.1031C29.5849 23.5851 29.6158 24.0991 29.6871 24.588C29.8296 25.5629 30.6551 26.0178 31.4095 26.0356C31.4833 26.0374 31.557 26.0352 31.6314 26.0287C32.2937 25.9707 32.9678 25.5757 33.2139 24.7798C33.4519 24.8538 33.7087 24.8857 33.9649 24.8633C34.648 24.8035 35.1979 24.4615 35.4253 23.8306C35.8344 22.6952 36.1724 22.526 36.2306 22.5209L36.2525 22.519L37.1005 22.4448L38.1825 22.3502L37.3852 22.9899C37.3426 22.9786 37.2979 22.9734 37.2521 22.9839C37.1174 23.0136 37.0324 23.136 37.0373 23.2689L31.3873 27.8015C31.2895 27.8811 31.2499 27.9457 31.2999 28.0614L34.8003 36.1983L27.0661 31.4247C26.9611 31.36 26.8264 31.3707 26.7332 31.4519L19.9358 37.3467L22.0581 28.7479C22.6048 28.289 23.168 27.7159 23.3383 27.1936C23.7502 25.9282 22.9874 24.6782 22.302 24.2973C21.9369 24.0945 21.5911 24.1259 21.3764 24.3808C20.5592 25.3532 19.6003 26.1339 18.8296 26.7611C18.7775 26.8036 18.73 26.8426 18.6797 26.8835L14.2053 24.4479Z" fill="url(#paint2_linear_1055_12862)"/>
<g filter="url(#filter2_i_1055_12862)">
<path d="M14.2053 24.4479L23.1483 23.6655C23.2702 23.6548 23.3669 23.5141 23.3941 23.3948L25.4151 14.4892L28.9503 22.8909C28.9984 23.0036 29.1193 23.1431 29.2413 23.1324L29.5768 23.1031C29.5849 23.5851 29.6158 24.0991 29.6871 24.588C29.8296 25.5629 30.6551 26.0178 31.4095 26.0356C31.4833 26.0374 31.557 26.0352 31.6314 26.0287C32.2937 25.9707 32.9678 25.5757 33.2139 24.7798C33.4519 24.8538 33.7087 24.8857 33.9649 24.8633C34.648 24.8035 35.1979 24.4615 35.4253 23.8306C35.8344 22.6952 36.1724 22.526 36.2306 22.5209L36.2525 22.519L37.1005 22.4448L38.1825 22.3502L37.3852 22.9899C37.3426 22.9786 37.2979 22.9734 37.2521 22.9839C37.1174 23.0136 37.0324 23.136 37.0373 23.2689L31.3873 27.8015C31.2895 27.8811 31.2499 27.9457 31.2999 28.0614L34.8003 36.1983L27.0661 31.4247C26.9611 31.36 26.8264 31.3707 26.7332 31.4519L19.9358 37.3467L22.0581 28.7479C22.6048 28.289 23.168 27.7159 23.3383 27.1936C23.7502 25.9282 22.9874 24.6782 22.302 24.2973C21.9369 24.0945 21.5911 24.1259 21.3764 24.3808C20.5592 25.3532 19.6003 26.1339 18.8296 26.7611C18.7775 26.8036 18.73 26.8426 18.6797 26.8835L14.2053 24.4479Z" fill="#FCB900"/>
</g>
</g>
<defs>
<filter id="filter0_d_1055_12862" x="-1.49609" y="-1.83594" width="57.668" height="57.668" filterUnits="userSpaceOnUse" color-interpolation-filters="sRGB">
<feFlood flood-opacity="0" result="BackgroundImageFix"/>
<feColorMatrix in="SourceAlpha" type="matrix" values="0 0 0 0 0 0 0 0 0 0 0 0 0 0 0 0 0 0 127 0" result="hardAlpha"/>
<feOffset dy="2"/>
<feGaussianBlur stdDeviation="2.5"/>
<feColorMatrix type="matrix" values="0 0 0 0 0 0 0 0 0 0 0 0 0 0 0 0 0 0 0.1 0"/>
<feBlend mode="normal" in2="BackgroundImageFix" result="effect1_dropShadow_1055_12862"/>
<feBlend mode="normal" in="SourceGraphic" in2="effect1_dropShadow_1055_12862" result="shape"/>
</filter>
<filter id="filter1_d_1055_12862" x="0.335938" y="-0.00390625" width="54.0039" height="54.0029" filterUnits="userSpaceOnUse" color-interpolation-filters="sRGB">
<feFlood flood-opacity="0" result="BackgroundImageFix"/>
<feColorMatrix in="SourceAlpha" type="matrix" values="0 0 0 0 0 0 0 0 0 0 0 0 0 0 0 0 0 0 127 0" result="hardAlpha"/>
<feOffset dy="2"/>
<feGaussianBlur stdDeviation="2.5"/>
<feColorMatrix type="matrix" values="0 0 0 0 0 0 0 0 0 0 0 0 0 0 0 0 0 0 0.1 0"/>
<feBlend mode="normal" in2="BackgroundImageFix" result="effect1_dropShadow_1055_12862"/>
<feBlend mode="normal" in="SourceGraphic" in2="effect1_dropShadow_1055_12862" result="shape"/>
</filter>
<filter id="filter2_i_1055_12862" x="14.207" y="14.4893" width="23.9766" height="22.8574" filterUnits="userSpaceOnUse" color-interpolation-filters="sRGB">
<feFlood flood-opacity="0" result="BackgroundImageFix"/>
<feBlend mode="normal" in="SourceGraphic" in2="BackgroundImageFix" result="shape"/>
<feColorMatrix in="SourceAlpha" type="matrix" values="0 0 0 0 0 0 0 0 0 0 0 0 0 0 0 0 0 0 127 0" result="hardAlpha"/>
<feOffset/>
<feGaussianBlur stdDeviation="1.5"/>
<feComposite in2="hardAlpha" operator="arithmetic" k2="-1" k3="1"/>
<feColorMatrix type="matrix" values="0 0 0 0 0.878431 0 0 0 0 0.705882 0 0 0 0 0 0 0 0 1 0"/>
<feBlend mode="normal" in2="shape" result="effect1_innerShadow_1055_12862"/>
</filter>
<linearGradient id="paint0_linear_1055_12862" x1="25.5189" y1="4.20532" x2="29.1571" y2="45.7901" gradientUnits="userSpaceOnUse">
<stop stop-color="#0596FA"/>
<stop offset="1" stop-color="#0062C6"/>
</linearGradient>
<linearGradient id="paint1_linear_1055_12862" x1="25.4202" y1="3.0816" x2="29.255" y2="46.9142" gradientUnits="userSpaceOnUse">
<stop stop-color="white"/>
<stop offset="0.487384" stop-color="white"/>
<stop offset="0.496031" stop-color="#E8ECEF"/>
<stop offset="0.869041" stop-color="#D8DFE4"/>
<stop offset="1" stop-color="#8E969E"/>
</linearGradient>
<linearGradient id="paint2_linear_1055_12862" x1="25.4249" y1="14.6089" x2="27.3394" y2="36.4923" gradientUnits="userSpaceOnUse">
<stop stop-color="#FAF055"/>
<stop offset="0.489756" stop-color="#FCE000"/>
<stop offset="1" stop-color="#E0B400"/>
</linearGradient>
</defs>
</svg>
