<svg width="24" height="24" viewBox="0 0 24 24" fill="none" xmlns="http://www.w3.org/2000/svg">
<path d="M13.2467 5L12.9967 1H10.9967L10.7467 5H13.2467Z" fill="black"/>
<path d="M7.30745 6.655L4.0254 4.35486L2.77764 5.9179L5.74775 8.6088L7.30745 6.655Z" fill="black"/>
<path d="M1.04688 13.4618L4.89209 12.3318L5.44596 14.7697L1.48997 15.4121L1.04688 13.4618Z" fill="black"/>
<path d="M7.81837 17.7587L6.30253 21.4688L8.10316 22.3393L10.0692 18.8468L7.81837 17.7587Z" fill="black"/>
<path d="M15.8513 22.3513L13.8975 18.8519L16.1521 17.7717L17.6549 21.4871L15.8513 22.3513Z" fill="black"/>
<path d="M18.5345 14.7907L22.4882 15.4469L22.9381 13.4982L19.0968 12.3548L18.5345 14.7907Z" fill="black"/>
<path d="M21.2424 5.9443L18.2629 8.62481L16.7101 6.66558L20.0001 4.37691L21.2424 5.9443Z" fill="black"/>
<path fill-rule="evenodd" clip-rule="evenodd" d="M18 12C18 15.3137 15.3137 18 12 18C8.68629 18 6 15.3137 6 12C6 8.68629 8.68629 6 12 6C15.3137 6 18 8.68629 18 12ZM16 12C16 14.2091 14.2091 16 12 16C9.79086 16 8 14.2091 8 12C8 9.79086 9.79086 8 12 8C14.2091 8 16 9.79086 16 12Z" fill="black"/>
</svg>
