<svg width="36" height="54" viewBox="0 0 36 54" fill="none" xmlns="http://www.w3.org/2000/svg">
<g clip-path="url(#clip0_867_89975)">
<path opacity="0.351562" d="M35.1094 2.3264C35.1094 1.22548 34.2227 0.333008 33.1113 0.333008H29.1075C28.004 0.333008 27.1094 1.23633 27.1094 2.3264V51.673C27.1094 52.7739 27.9961 53.6663 29.1075 53.6663H33.1113C34.2148 53.6663 35.1094 52.763 35.1094 51.673V2.3264Z" fill="white"/>
<path d="M11.627 14.1717C12.8115 15.0579 13.9753 16.0133 15.1032 17.0384C22.6531 23.9006 27.1131 32.4382 27.1131 42.9137V45.0257V51.6567C27.1131 52.7755 28.0076 53.6671 29.1109 53.6671H33.1142C34.2254 53.6671 35.112 52.767 35.112 51.6567V45.0257V42.9137C35.112 29.9345 29.5734 19.3323 20.459 11.0481C19.0667 9.78265 17.6329 8.61168 16.1755 7.53218L18.2917 3.47219C18.72 2.44938 18.166 1.59945 17.0646 1.57406L1.84811 1.22323C0.742062 1.19773 0.173072 2.02393 0.573421 3.05874L6.10474 17.3559C6.5068 18.3951 7.49864 18.6295 8.29343 17.8693L11.627 14.1717Z" fill="white"/>
</g>
<defs>
<clipPath id="clip0_867_89975">
<rect width="36" height="54" fill="white"/>
</clipPath>
</defs>
</svg>
