<svg width="24" height="24" viewBox="0 0 24 24" fill="none" xmlns="http://www.w3.org/2000/svg">
<path fill-rule="evenodd" clip-rule="evenodd" d="M23.4919 11.061L12.939 0.508102C12.6125 0.181584 12.4601 0.097178 12.2769 0.0416477C12.0937 -0.0138826 11.9063 -0.0138826 11.7231 0.0416477C11.5399 0.097178 11.3875 0.181584 11.061 0.508102L0.508102 11.061C0.181584 11.3875 0.097178 11.5399 0.0416477 11.7231C-0.0138826 11.9063 -0.0138826 12.0937 0.0416477 12.2769C0.097178 12.4601 0.181584 12.6125 0.508102 12.939L11.061 23.4919C11.3875 23.8184 11.5399 23.9028 11.7231 23.9584C11.9063 24.0139 12.0937 24.0139 12.2769 23.9584C12.4601 23.9028 12.6125 23.8184 12.939 23.4919L23.4919 12.939C23.8184 12.6125 23.9028 12.4601 23.9584 12.2769C24.0139 12.0937 24.0139 11.9063 23.9584 11.7231C23.9028 11.5399 23.8184 11.3875 23.4919 11.061ZM14.3144 12.89L17.2144 10.95C17.3844 10.87 17.4994 10.7 17.4994 10.5C17.4994 10.3 17.3794 10.125 17.2094 10.045L14.3194 8.115C14.2294 8.045 14.1194 8 13.9994 8C13.7244 8 13.5044 8.22 13.4994 8.495V8.5V9.5H11.0044H10.9544C9.93445 9.48 9.17945 9.755 8.68945 10.33C8.19445 10.91 7.96445 11.785 8.00445 12.965V13V15C8.00445 15.55 8.44945 16 9.00445 16C9.55445 16 10.0044 15.55 10.0044 15V13C9.99945 12.57 10.0894 12.21 10.2794 11.93C10.4644 11.65 10.7094 11.505 10.9994 11.5H11.0044H13.4994V12.5V12.515C13.5094 12.785 13.7294 13 13.9994 13C14.1194 13 14.2294 12.96 14.3144 12.89Z" fill="#21201F"/>
</svg>
