<svg width="76" height="94" viewBox="0 0 76 94" fill="none" xmlns="http://www.w3.org/2000/svg">
<rect width="76" height="94" rx="5" fill="#21201F"/>
<g clip-path="url(#clip0_922_26793)">
<path opacity="0.351562" d="M55.1113 22.3264C55.1113 21.2255 54.2246 20.333 53.1132 20.333H49.1094C48.0059 20.333 47.1113 21.2363 47.1113 22.3264V71.673C47.1113 72.7739 47.998 73.6663 49.1094 73.6663H53.1132C54.2167 73.6663 55.1113 72.763 55.1113 71.673V22.3264Z" fill="white"/>
<path d="M31.627 34.1717C32.8115 35.0579 33.9753 36.0133 35.1032 37.0384C42.6531 43.9006 47.1131 52.4382 47.1131 62.9137V65.0257V71.6567C47.1131 72.7755 48.0076 73.6671 49.1109 73.6671H53.1142C54.2254 73.6671 55.112 72.767 55.112 71.6567V65.0257V62.9137C55.112 49.9345 49.5734 39.3323 40.459 31.0481C39.0667 29.7826 37.6329 28.6117 36.1755 27.5322L38.2917 23.4722C38.72 22.4494 38.166 21.5995 37.0646 21.5741L21.8481 21.2232C20.7421 21.1977 20.1731 22.0239 20.5734 23.0587L26.1047 37.3559C26.5068 38.3951 27.4986 38.6295 28.2934 37.8693L31.627 34.1717Z" fill="white"/>
</g>
<defs>
<clipPath id="clip0_922_26793">
<rect x="20" y="20" width="36" height="54" fill="white"/>
</clipPath>
</defs>
</svg>
