<svg width="16" height="20" viewBox="0 0 16 20" fill="none" xmlns="http://www.w3.org/2000/svg">
<path d="M10 0C11.8635 0 12.7952 0.000338374 13.5303 0.304688C14.5104 0.710663 15.2893 1.48961 15.6953 2.46973C15.9997 3.20476 16 4.1365 16 6V14C16 15.8635 15.9997 16.7952 15.6953 17.5303C15.2893 18.5104 14.5104 19.2893 13.5303 19.6953C12.7952 19.9997 11.8635 20 10 20H6C4.1365 20 3.20476 19.9997 2.46973 19.6953C1.48961 19.2893 0.710663 18.5104 0.304688 17.5303C0.000338037 16.7952 0 15.8635 0 14V6C0 4.1365 0.00033829 3.20476 0.304688 2.46973C0.710663 1.48961 1.48961 0.710663 2.46973 0.304688C3.20476 0.00033829 4.1365 0 6 0H10ZM6 2C5.04075 2 4.42123 2.00086 3.94727 2.0332C3.49145 2.06432 3.31759 2.11788 3.23438 2.15234C2.74453 2.35533 2.35533 2.74453 2.15234 3.23438C2.11788 3.31759 2.06432 3.49145 2.0332 3.94727C2.00086 4.42123 2 5.04075 2 6V14C2 14.9592 2.00086 15.5788 2.0332 16.0527C2.06432 16.5086 2.11788 16.6824 2.15234 16.7656C2.35533 17.2555 2.74453 17.6447 3.23438 17.8477C3.31759 17.8821 3.49145 17.9357 3.94727 17.9668C4.42123 17.9991 5.04075 18 6 18H10C10.9592 18 11.5788 17.9991 12.0527 17.9668C12.5086 17.9357 12.6824 17.8821 12.7656 17.8477C13.2555 17.6447 13.6447 17.2555 13.8477 16.7656C13.8821 16.6824 13.9357 16.5086 13.9668 16.0527C13.9991 15.5788 14 14.9592 14 14V6C14 5.04075 13.9991 4.42123 13.9668 3.94727C13.9357 3.49145 13.8821 3.31759 13.8477 3.23438C13.6447 2.74453 13.2555 2.35533 12.7656 2.15234C12.6824 2.11788 12.5086 2.06432 12.0527 2.0332C11.5788 2.00086 10.9592 2 10 2H6ZM8 15H4V13H8V15ZM12 11H4V9H12V11ZM12 7H4V5H12V7Z" fill="#21201F"/>
</svg>
