<svg width="32" height="32" viewBox="0 0 32 32" fill="none" xmlns="http://www.w3.org/2000/svg">
<path fill-rule="evenodd" clip-rule="evenodd" d="M21.3327 12.667C21.3327 16.0003 18.666 18.667 15.9994 18.667C13.3327 18.667 10.666 16.0003 10.666 12.667C10.666 8.00033 13.9993 6.66699 15.9994 6.66699C17.9994 6.66699 21.3327 8.00033 21.3327 12.667ZM15.9994 16.0003C16.9963 16.0003 18.666 14.7326 18.666 12.667C18.666 11.039 18.1202 10.3137 17.6935 9.95269C17.1732 9.5124 16.4843 9.33366 15.9994 9.33366C15.5144 9.33366 14.8255 9.5124 14.3052 9.95269C13.8785 10.3137 13.3327 11.039 13.3327 12.667C13.3327 14.7325 15.0024 16.0003 15.9994 16.0003Z" fill="#21201F"/>
<path fill-rule="evenodd" clip-rule="evenodd" d="M15.9993 29.3337C23.3631 29.3337 29.3327 23.3641 29.3327 16.0003C29.3327 8.63653 23.3631 2.66699 15.9993 2.66699C8.63555 2.66699 2.66602 8.63653 2.66602 16.0003C2.66602 23.3641 8.63555 29.3337 15.9993 29.3337ZM24.5732 22.3471C25.8882 20.5736 26.666 18.3778 26.666 16.0003C26.666 10.1093 21.8904 5.33366 15.9993 5.33366C10.1083 5.33366 5.33268 10.1093 5.33268 16.0003C5.33268 18.3778 6.11049 20.5736 7.42551 22.3471C7.7114 21.9829 8.08339 21.6523 8.55055 21.3648C9.96038 20.4972 12.2726 20.0003 15.9993 20.0003C19.7261 20.0003 22.0383 20.4972 23.4481 21.3648C23.9153 21.6523 24.2873 21.9829 24.5732 22.3471ZM22.6388 24.3492C22.6239 24.2762 22.6028 24.212 22.5749 24.153C22.5194 24.0354 22.3952 23.8479 22.0506 23.6359C21.2937 23.1701 19.606 22.667 15.9993 22.667C12.3927 22.667 10.705 23.1701 9.94815 23.6359C9.60354 23.8479 9.47929 24.0354 9.42376 24.153C9.39592 24.212 9.37477 24.2762 9.35988 24.3492C11.1818 25.8 13.4893 26.667 15.9993 26.667C18.5094 26.667 20.8169 25.8 22.6388 24.3492Z" fill="#21201F"/>
</svg>
