<svg width="24" height="24" viewBox="0 0 24 24" fill="none" xmlns="http://www.w3.org/2000/svg">
<path d="M2.30448 6.46927C2 7.20435 2 8.13623 2 10V14C2 15.8638 2 16.7956 2.30448 17.5307C2.71046 18.5108 3.48915 19.2895 4.46927 19.6955C5.20435 20 6.13623 20 8 20H16C17.8638 20 18.7956 20 19.5307 19.6955C20.5108 19.2895 21.2895 18.5108 21.6955 17.5307C21.8644 17.1229 21.9397 16.6545 21.9731 16H16C14.3431 16 13 14.6569 13 13V11C13 9.34315 14.3431 8 16 8H21.9731C21.9397 7.34549 21.8644 6.87709 21.6955 6.46927C21.2895 5.48915 20.5108 4.71046 19.5307 4.30448C18.7956 4 17.8638 4 16 4H8C6.13623 4 5.20435 4 4.46927 4.30448C3.48915 4.71046 2.71046 5.48915 2.30448 6.46927Z" fill="#21201F"/>
<path d="M22 10H16C15.4477 10 15 10.4477 15 11V13C15 13.5523 15.4477 14 16 14H22V10Z" fill="#21201F"/>
</svg>
