<svg width="36" height="37" viewBox="0 0 36 37" fill="none" xmlns="http://www.w3.org/2000/svg">
<path d="M18 0.666016C27.9411 0.666017 36 8.72489 36 18.666C36 28.6071 27.9411 36.666 18 36.666C8.05888 36.666 1.03088e-06 28.6071 0 18.666C0 8.72489 8.05888 0.666016 18 0.666016ZM25.6416 8.54102C25.6416 8.54102 22.503 11.8438 18 11.8438C13.497 11.8437 10.3584 8.54102 10.3584 8.54102L7.875 11.0244C7.875 11.0244 11.1767 14.0812 11.1768 18.666C11.1768 23.2394 7.89151 26.2923 7.875 26.3076L10.3584 28.791C10.3748 28.7737 13.4816 25.4893 18 25.4893C22.5177 25.4893 25.6244 28.7728 25.6416 28.791L28.125 26.3076C28.1075 26.2914 24.8232 23.2387 24.8232 18.666C24.8234 14.0812 28.125 11.0244 28.125 11.0244L25.6416 8.54102Z" fill="black"/>
</svg>
